<svg width="36" height="36" viewBox="0 0 36 36" fill="none" xmlns="http://www.w3.org/2000/svg">
<circle cx="4.84615" cy="4.84615" r="3.34615" stroke="#3A1772" stroke-width="3"/>
<circle cx="18.0005" cy="4.84615" r="3.34615" stroke="#3A1772" stroke-width="3"/>
<path d="M34.4999 4.84615C34.4999 6.69418 33.0018 8.19231 31.1538 8.19231C29.3057 8.19231 27.8076 6.69418 27.8076 4.84615C27.8076 2.99812 29.3057 1.5 31.1538 1.5C33.0018 1.5 34.4999 2.99812 34.4999 4.84615Z" stroke="#3A1772" stroke-width="3"/>
<path d="M34.4999 18C34.4999 19.848 33.0018 21.3461 31.1538 21.3461C29.3057 21.3461 27.8076 19.848 27.8076 18C27.8076 16.1519 29.3057 14.6538 31.1538 14.6538C33.0018 14.6538 34.4999 16.1519 34.4999 18Z" stroke="#3A1772" stroke-width="3"/>
<circle cx="18.0005" cy="18" r="3.34615" stroke="#3A1772" stroke-width="3"/>
<circle cx="4.84615" cy="18" r="3.34615" stroke="#3A1772" stroke-width="3"/>
<path d="M8.19231 31.1538C8.19231 33.0018 6.69418 34.4999 4.84615 34.4999C2.99812 34.4999 1.5 33.0018 1.5 31.1538C1.5 29.3057 2.99812 27.8076 4.84615 27.8076C6.69418 27.8076 8.19231 29.3057 8.19231 31.1538Z" stroke="#3A1772" stroke-width="3"/>
<path d="M21.3466 31.1538C21.3466 33.0018 19.8485 34.4999 18.0005 34.4999C16.1524 34.4999 14.6543 33.0018 14.6543 31.1538C14.6543 29.3057 16.1524 27.8076 18.0005 27.8076C19.8485 27.8076 21.3466 29.3057 21.3466 31.1538Z" stroke="#3A1772" stroke-width="3"/>
<circle cx="31.1538" cy="31.1538" r="3.34615" stroke="#3A1772" stroke-width="3"/>
</svg>
