<svg width="44" height="5" viewBox="0 0 44 5" fill="none" xmlns="http://www.w3.org/2000/svg">
<path d="M13.546 4.40899L30.4488 4.40899C31.6663 4.40899 32.655 3.42698 32.655 2.20618C32.655 0.985385 31.6663 3.55398e-06 30.4488 3.34112e-06L13.546 3.85737e-07C12.3252 1.72286e-07 11.3398 0.988744 11.3398 2.20618C11.3398 3.42361 12.3286 4.40899 13.546 4.40899Z" fill="white"/>
<path d="M3.18471 4.40899L3.25869 4.40899C4.47612 4.40899 5.46489 3.42697 5.46489 2.20618C5.46489 0.985382 4.47612 6.11541e-07 3.25869 3.98678e-07L3.18471 3.85744e-07C1.96728 1.72881e-07 0.978515 0.988744 0.978515 2.20618C0.978515 3.42361 1.96728 4.40899 3.18471 4.40899Z" fill="white"/>
</svg>
