<svg viewBox="0 0 1029 1080" fill="#000" xmlns="http://www.w3.org/2000/svg">
<path d="M5.54078 243.773L5.54078 265.014C5.54078 266.544 4.30246 267.787 2.77252 267.787C1.24258 267.787 3.53018e-05 266.548 3.55029e-05 265.014L3.82885e-05 243.773C3.84891e-05 242.243 1.23836 241 2.77252 241C4.30669 241 5.54078 242.243 5.54078 243.773Z" />
<path d="M5.54077 278.036V277.943C5.54078 276.413 4.30668 275.174 2.77252 275.174C1.23835 275.174 3.51466e-05 276.413 3.4946e-05 277.943L3.49338e-05 278.036C3.47331e-05 279.565 1.24258 280.808 2.77252 280.808C4.30246 280.808 5.54077 279.565 5.54077 278.036Z" />
<path d="M5.54077 312.206L5.54078 290.964C5.54078 289.434 4.30668 288.191 2.77252 288.191C1.23836 288.191 3.64263e-05 289.434 3.62256e-05 290.964L3.34401e-05 312.206C3.3239e-05 313.74 1.24258 314.978 2.77252 314.978C4.30245 314.978 5.54077 313.735 5.54077 312.206Z" />
<path d="M5.54077 325.227V325.134C5.54077 323.604 4.30668 322.362 2.77252 322.362C1.23835 322.362 3.30838e-05 323.604 3.28832e-05 325.134L3.2871e-05 325.227C3.26703e-05 326.757 1.24258 327.999 2.77252 327.999C4.30245 327.999 5.54077 326.757 5.54077 325.227Z" />
<path d="M5.54077 337.773L5.54077 359.014C5.54077 360.544 4.30245 361.787 2.77251 361.787C1.24258 361.787 3.11929e-05 360.548 3.13941e-05 359.014L3.41796e-05 337.773C3.43802e-05 336.243 1.23835 335 2.77252 335C4.30668 335 5.54077 336.243 5.54077 337.773Z" />
<path d="M5.54077 372.036V371.943C5.54077 370.413 4.30668 369.174 2.77251 369.174C1.23835 369.174 3.10377e-05 370.413 3.08371e-05 371.943L3.08249e-05 372.036C3.06243e-05 373.565 1.24258 374.808 2.77251 374.808C4.30245 374.808 5.54077 373.565 5.54077 372.036Z" />
<path d="M5.54077 406.206L5.54077 384.964C5.54077 383.434 4.30668 382.191 2.77252 382.191C1.23835 382.191 3.23174e-05 383.434 3.21168e-05 384.964L2.93313e-05 406.206C2.91301e-05 407.74 1.24257 408.978 2.77251 408.978C4.30245 408.978 5.54077 407.735 5.54077 406.206Z" />
<path d="M5.54077 419.227V419.134C5.54077 417.604 4.30668 416.362 2.77251 416.362C1.23835 416.362 2.89749e-05 417.604 2.87743e-05 419.134L2.87621e-05 419.227C2.85615e-05 420.757 1.24257 421.999 2.77251 421.999C4.30245 421.999 5.54077 420.757 5.54077 419.227Z" />
<path d="M5.54077 431.773L5.54077 453.014C5.54077 454.544 4.30245 455.787 2.77251 455.787C1.24257 455.787 2.7084e-05 454.548 2.72852e-05 453.014L3.00707e-05 431.773C3.02713e-05 430.243 1.23835 429 2.77251 429C4.30668 429 5.54077 430.243 5.54077 431.773Z" />
<path d="M5.54077 466.036V465.943C5.54077 464.413 4.30667 463.174 2.77251 463.174C1.23835 463.174 2.69288e-05 464.413 2.67282e-05 465.943L2.6716e-05 466.036C2.65154e-05 467.565 1.24257 468.808 2.77251 468.808C4.30245 468.808 5.54077 467.565 5.54077 466.036Z" />
<path d="M5.54077 500.206L5.54077 478.964C5.54077 477.434 4.30668 476.191 2.77251 476.191C1.23835 476.191 2.82085e-05 477.434 2.80079e-05 478.964L2.52224e-05 500.206C2.50212e-05 501.74 1.24257 502.978 2.77251 502.978C4.30245 502.978 5.54077 501.735 5.54077 500.206Z" />
<path d="M5.54076 513.227V513.134C5.54077 511.604 4.30667 510.362 2.77251 510.362C1.23834 510.362 2.4866e-05 511.604 2.46654e-05 513.134L2.46532e-05 513.227C2.44526e-05 514.757 1.24257 516 2.77251 516C4.30244 516 5.54076 514.757 5.54076 513.227Z" />
<path d="M5.54077 525.772L5.54076 547.014C5.54076 548.544 4.30244 549.787 2.77251 549.787C1.24257 549.787 2.29752e-05 548.548 2.31763e-05 547.014L2.59618e-05 525.772C2.61625e-05 524.243 1.23835 523 2.77251 523C4.30667 523 5.54077 524.243 5.54077 525.772Z" />
<path d="M5.54076 560.036V559.943C5.54076 558.413 4.30667 557.174 2.77251 557.174C1.23834 557.174 2.282e-05 558.413 2.26193e-05 559.943L2.26072e-05 560.036C2.24065e-05 561.565 1.24257 562.808 2.77251 562.808C4.30244 562.808 5.54076 561.565 5.54076 560.036Z" />
<path d="M5.54079 8.77251L5.54079 30.0141C5.54079 31.5441 4.30247 32.7866 2.77253 32.7866C1.24259 32.7866 4.55739e-05 31.5483 4.57751e-05 30.0141L4.85606e-05 8.77251C4.87613e-05 7.24257 1.23837 6 2.77253 6C4.3067 6 5.54079 7.24257 5.54079 8.77251Z" />
<path d="M5.54079 43.0356V42.9426C5.54079 41.4127 4.30669 40.1744 2.77253 40.1744C1.23836 40.1744 4.54188e-05 41.4127 4.52181e-05 42.9426L4.52059e-05 43.0356C4.50053e-05 44.5655 1.24259 45.8081 2.77253 45.8081C4.30247 45.8081 5.54079 44.5655 5.54079 43.0356Z" />
<path d="M5.54078 77.2055L5.54079 55.9639C5.54079 54.434 4.30669 53.1914 2.77253 53.1914C1.23837 53.1914 4.66985e-05 54.434 4.64978e-05 55.9639L4.37123e-05 77.2055C4.35111e-05 78.7397 1.24259 79.978 2.77253 79.978C4.30246 79.978 5.54078 78.7355 5.54078 77.2055Z" />
<path d="M5.54078 90.227L5.54078 90.134C5.54078 88.6041 4.30669 87.3615 2.77253 87.3615C1.23836 87.3615 4.3356e-05 88.6041 4.31553e-05 90.134L4.31431e-05 90.227C4.29425e-05 91.7569 1.24259 92.9995 2.77253 92.9995C4.30246 92.9995 5.54078 91.7569 5.54078 90.227Z" />
<path d="M5.54078 102.773L5.54078 124.014C5.54078 125.544 4.30246 126.787 2.77252 126.787C1.24259 126.787 4.14651e-05 125.548 4.16663e-05 124.014L4.44518e-05 102.773C4.46524e-05 101.243 1.23836 100 2.77253 100C4.30669 100 5.54078 101.243 5.54078 102.773Z" />
<path d="M5.54078 137.036V136.943C5.54078 135.413 4.30669 134.174 2.77252 134.174C1.23836 134.174 4.13099e-05 135.413 4.11093e-05 136.943L4.10971e-05 137.036C4.08964e-05 138.566 1.24259 139.808 2.77252 139.808C4.30246 139.808 5.54078 138.566 5.54078 137.036Z" />
<path d="M5.54078 171.206L5.54078 149.964C5.54078 148.434 4.30669 147.191 2.77253 147.191C1.23836 147.191 4.25896e-05 148.434 4.2389e-05 149.964L3.96035e-05 171.206C3.94023e-05 172.74 1.24259 173.978 2.77252 173.978C4.30246 173.978 5.54078 172.735 5.54078 171.206Z" />
<path d="M5.54078 184.227V184.134C5.54078 182.604 4.30669 181.361 2.77252 181.361C1.23836 181.361 3.92471e-05 182.604 3.90465e-05 184.134L3.90343e-05 184.227C3.88336e-05 185.757 1.24258 186.999 2.77252 186.999C4.30246 186.999 5.54078 185.757 5.54078 184.227Z" />
<path d="M5.54078 196.773L5.54078 218.014C5.54078 219.544 4.30246 220.787 2.77252 220.787C1.24258 220.787 3.73562e-05 219.548 3.75574e-05 218.014L4.03429e-05 196.773C4.05435e-05 195.243 1.23836 194 2.77252 194C4.30669 194 5.54078 195.243 5.54078 196.773Z" />
<path d="M5.54078 231.036V230.943C5.54078 229.413 4.30668 228.174 2.77252 228.174C1.23836 228.174 3.7201e-05 229.413 3.70004e-05 230.943L3.69882e-05 231.036C3.67876e-05 232.566 1.24258 233.808 2.77252 233.808C4.30246 233.808 5.54078 232.566 5.54078 231.036Z" />
<path d="M5.54076 594.206L5.54076 572.964C5.54076 571.434 4.30667 570.191 2.77251 570.191C1.23834 570.191 2.40997e-05 571.434 2.3899e-05 572.964L2.11135e-05 594.206C2.09124e-05 595.74 1.24257 596.978 2.7725 596.978C4.30244 596.978 5.54076 595.735 5.54076 594.206Z" />
<path d="M5.54076 607.227V607.134C5.54076 605.604 4.30667 604.361 2.7725 604.361C1.23834 604.361 2.07572e-05 605.604 2.05565e-05 607.134L2.05444e-05 607.227C2.03437e-05 608.757 1.24257 609.999 2.7725 609.999C4.30244 609.999 5.54076 608.757 5.54076 607.227Z" />
<path d="M5.54076 619.772L5.54076 641.014C5.54076 642.544 4.30244 643.787 2.7725 643.787C1.24256 643.787 1.88663e-05 642.548 1.90675e-05 641.014L2.1853e-05 619.772C2.20536e-05 618.243 1.23834 617 2.77251 617C4.30667 617 5.54076 618.243 5.54076 619.772Z" />
<path d="M5.54076 654.036V653.943C5.54076 652.413 4.30667 651.174 2.7725 651.174C1.23834 651.174 1.87111e-05 652.413 1.85105e-05 653.943L1.84983e-05 654.036C1.82977e-05 655.565 1.24256 656.808 2.7725 656.808C4.30244 656.808 5.54076 655.565 5.54076 654.036Z" />
<path d="M5.54076 688.206L5.54076 666.964C5.54076 665.434 4.30667 664.191 2.7725 664.191C1.23834 664.191 1.99908e-05 665.434 1.97902e-05 666.964L1.70047e-05 688.206C1.68035e-05 689.74 1.24256 690.978 2.7725 690.978C4.30244 690.978 5.54076 689.735 5.54076 688.206Z" />
<path d="M5.54076 701.227V701.134C5.54076 699.604 4.30666 698.361 2.7725 698.361C1.23834 698.361 1.66483e-05 699.604 1.64477e-05 701.134L1.64355e-05 701.227C1.62349e-05 702.757 1.24256 703.999 2.7725 703.999C4.30244 703.999 5.54076 702.757 5.54076 701.227Z" />
<path d="M5.54076 713.772L5.54075 735.014C5.54075 736.544 4.30244 737.787 2.7725 737.787C1.24256 737.787 1.47574e-05 736.548 1.49586e-05 735.014L1.77441e-05 713.772C1.79447e-05 712.243 1.23834 711 2.7725 711C4.30666 711 5.54076 712.243 5.54076 713.772Z" />
<path d="M5.54075 748.036V747.943C5.54075 746.413 4.30666 745.174 2.7725 745.174C1.23833 745.174 1.46022e-05 746.413 1.44016e-05 747.943L1.43894e-05 748.036C1.41888e-05 749.565 1.24256 750.808 2.7725 750.808C4.30243 750.808 5.54075 749.565 5.54075 748.036Z" />
<path d="M5.54075 782.206L5.54076 760.964C5.54076 759.434 4.30666 758.191 2.7725 758.191C1.23834 758.191 1.58819e-05 759.434 1.56813e-05 760.964L1.28958e-05 782.206C1.26946e-05 783.74 1.24256 784.978 2.7725 784.978C4.30243 784.978 5.54075 783.735 5.54075 782.206Z" />
<path d="M5.54075 795.227V795.134C5.54075 793.604 4.30666 792.361 2.7725 792.361C1.23833 792.361 1.25394e-05 793.604 1.23388e-05 795.134L1.23266e-05 795.227C1.2126e-05 796.757 1.24256 797.999 2.7725 797.999C4.30243 797.999 5.54075 796.757 5.54075 795.227Z" />
<path d="M5.54075 807.772L5.54075 829.014C5.54075 830.544 4.30243 831.787 2.77249 831.787C1.24256 831.787 1.06485e-05 830.548 1.08497e-05 829.014L1.36352e-05 807.772C1.38359e-05 806.243 1.23833 805 2.7725 805C4.30666 805 5.54075 806.243 5.54075 807.772Z" />
<path d="M5.54075 842.036V841.943C5.54075 840.413 4.30666 839.174 2.77249 839.174C1.23833 839.174 1.04934e-05 840.413 1.02927e-05 841.943L1.02805e-05 842.036C1.00799e-05 843.565 1.24256 844.808 2.77249 844.808C4.30243 844.808 5.54075 843.565 5.54075 842.036Z" />
<path d="M5.54075 876.206L5.54075 854.964C5.54075 853.434 4.30666 852.191 2.7725 852.191C1.23833 852.191 1.17731e-05 853.434 1.15724e-05 854.964L8.78692e-06 876.206C8.58574e-06 877.74 1.24255 878.978 2.77249 878.978C4.30243 878.978 5.54075 877.735 5.54075 876.206Z" />
<path d="M5.54075 889.227V889.134C5.54075 887.604 4.30666 886.361 2.77249 886.361C1.23833 886.361 8.43056e-06 887.604 8.22994e-06 889.134L8.21774e-06 889.227C8.01712e-06 890.757 1.24255 891.999 2.77249 891.999C4.30243 891.999 5.54075 890.757 5.54075 889.227Z" />
<path d="M5.54075 901.772L5.54075 923.014C5.54075 924.544 4.30243 925.787 2.77249 925.787C1.24255 925.787 6.53967e-06 924.548 6.74085e-06 923.014L9.52636e-06 901.772C9.72698e-06 900.243 1.23833 899 2.77249 899C4.30666 899 5.54075 900.243 5.54075 901.772Z" />
<path d="M5.54075 936.036V935.943C5.54075 934.413 4.30665 933.174 2.77249 933.174C1.23833 933.174 6.38449e-06 934.413 6.18387e-06 935.943L6.17167e-06 936.036C5.97105e-06 937.565 1.24255 938.808 2.77249 938.808C4.30243 938.808 5.54075 937.565 5.54075 936.036Z" />
<path d="M5.54074 970.206L5.54075 948.964C5.54075 947.434 4.30665 946.191 2.77249 946.191C1.23833 946.191 7.66418e-06 947.434 7.46356e-06 948.964L4.67805e-06 970.206C4.47687e-06 971.74 1.24255 972.978 2.77249 972.978C4.30242 972.978 5.54074 971.735 5.54074 970.206Z" />
<path d="M5.54074 983.227V983.134C5.54074 981.604 4.30665 980.361 2.77249 980.361C1.23832 980.361 4.32169e-06 981.604 4.12106e-06 983.134L4.10887e-06 983.227C3.90825e-06 984.757 1.24255 985.999 2.77249 985.999C4.30242 985.999 5.54074 984.757 5.54074 983.227Z" />
<path d="M5.54075 995.772L5.54074 1017.01C5.54074 1018.54 4.30242 1019.79 2.77249 1019.79C1.24255 1019.79 2.4308e-06 1018.55 2.63198e-06 1017.01L5.41749e-06 995.772C5.61811e-06 994.243 1.23833 993 2.77249 993C4.30665 993 5.54075 994.243 5.54075 995.772Z" />
<path d="M5.54074 1030.04V1029.94C5.54074 1028.41 4.30665 1027.17 2.77249 1027.17C1.23832 1027.17 2.27562e-06 1028.41 2.07499e-06 1029.94L2.0628e-06 1030.04C1.86218e-06 1031.57 1.24255 1032.81 2.77248 1032.81C4.30242 1032.81 5.54074 1031.57 5.54074 1030.04Z" />
<path d="M5.54074 1064.21L5.54074 1042.96C5.54074 1041.43 4.30665 1040.19 2.77249 1040.19C1.23832 1040.19 3.55531e-06 1041.43 3.35468e-06 1042.96L5.6918e-07 1064.21C3.67999e-07 1065.74 1.24255 1066.98 2.77248 1066.98C4.30242 1066.98 5.54074 1065.74 5.54074 1064.21Z" />
<path d="M5.54074 1077.23V1077.13C5.54074 1075.6 4.30665 1074.36 2.77248 1074.36C1.23832 1074.36 2.12818e-07 1075.6 1.21909e-08 1077.13L0 1077.23C-2.00627e-07 1078.76 1.24255 1080 2.77248 1080C4.30242 1080 5.54074 1078.76 5.54074 1077.23Z" />
<path d="M346.541 243.773V265.014C346.541 266.544 345.302 267.787 343.773 267.787C342.243 267.787 341 266.548 341 265.014V243.773C341 242.243 342.238 241 343.773 241C345.307 241 346.541 242.243 346.541 243.773Z" />
<path d="M346.541 278.036V277.943C346.541 276.413 345.307 275.174 343.773 275.174C342.238 275.174 341 276.413 341 277.943V278.036C341 279.565 342.243 280.808 343.773 280.808C345.302 280.808 346.541 279.565 346.541 278.036Z" />
<path d="M346.541 312.206L346.541 290.964C346.541 289.434 345.307 288.191 343.773 288.191C342.238 288.191 341 289.434 341 290.964V312.206C341 313.74 342.243 314.978 343.773 314.978C345.302 314.978 346.541 313.735 346.541 312.206Z" />
<path d="M346.541 325.227V325.134C346.541 323.604 345.307 322.362 343.773 322.362C342.238 322.362 341 323.604 341 325.134V325.227C341 326.757 342.243 327.999 343.773 327.999C345.302 327.999 346.541 326.757 346.541 325.227Z" />
<path d="M346.541 337.773L346.541 359.014C346.541 360.544 345.302 361.787 343.773 361.787C342.243 361.787 341 360.548 341 359.014L341 337.773C341 336.243 342.238 335 343.773 335C345.307 335 346.541 336.243 346.541 337.773Z" />
<path d="M346.541 372.036V371.943C346.541 370.413 345.307 369.174 343.773 369.174C342.238 369.174 341 370.413 341 371.943V372.036C341 373.565 342.243 374.808 343.773 374.808C345.302 374.808 346.541 373.565 346.541 372.036Z" />
<path d="M346.541 406.206V384.964C346.541 383.434 345.307 382.191 343.773 382.191C342.238 382.191 341 383.434 341 384.964V406.206C341 407.74 342.243 408.978 343.773 408.978C345.302 408.978 346.541 407.735 346.541 406.206Z" />
<path d="M346.541 419.227V419.134C346.541 417.604 345.307 416.362 343.773 416.362C342.238 416.362 341 417.604 341 419.134V419.227C341 420.757 342.243 421.999 343.773 421.999C345.302 421.999 346.541 420.757 346.541 419.227Z" />
<path d="M346.541 431.773V453.014C346.541 454.544 345.302 455.787 343.773 455.787C342.243 455.787 341 454.548 341 453.014V431.773C341 430.243 342.238 429 343.773 429C345.307 429 346.541 430.243 346.541 431.773Z" />
<path d="M346.541 466.036V465.943C346.541 464.413 345.307 463.174 343.773 463.174C342.238 463.174 341 464.413 341 465.943V466.036C341 467.565 342.243 468.808 343.773 468.808C345.302 468.808 346.541 467.565 346.541 466.036Z" />
<path d="M346.541 500.206V478.964C346.541 477.434 345.307 476.191 343.773 476.191C342.238 476.191 341 477.434 341 478.964V500.206C341 501.74 342.243 502.978 343.773 502.978C345.302 502.978 346.541 501.735 346.541 500.206Z" />
<path d="M346.541 513.227V513.134C346.541 511.604 345.307 510.362 343.773 510.362C342.238 510.362 341 511.604 341 513.134V513.227C341 514.757 342.243 516 343.773 516C345.302 516 346.541 514.757 346.541 513.227Z" />
<path d="M346.541 525.772V547.014C346.541 548.544 345.302 549.787 343.773 549.787C342.243 549.787 341 548.548 341 547.014V525.772C341 524.243 342.238 523 343.773 523C345.307 523 346.541 524.243 346.541 525.772Z" />
<path d="M346.541 560.036V559.943C346.541 558.413 345.307 557.174 343.773 557.174C342.238 557.174 341 558.413 341 559.943V560.036C341 561.565 342.243 562.808 343.773 562.808C345.302 562.808 346.541 561.565 346.541 560.036Z" />
<path d="M346.541 8.77251V30.0141C346.541 31.5441 345.302 32.7866 343.773 32.7866C342.243 32.7866 341 31.5483 341 30.0141V8.77251C341 7.24257 342.238 6 343.773 6C345.307 6 346.541 7.24257 346.541 8.77251Z" />
<path d="M346.541 43.0356V42.9426C346.541 41.4127 345.307 40.1744 343.773 40.1744C342.238 40.1744 341 41.4127 341 42.9426V43.0356C341 44.5655 342.243 45.8081 343.773 45.8081C345.302 45.8081 346.541 44.5655 346.541 43.0356Z" />
<path d="M346.541 77.2055V55.9639C346.541 54.434 345.307 53.1914 343.773 53.1914C342.238 53.1914 341 54.434 341 55.9639V77.2055C341 78.7397 342.243 79.978 343.773 79.978C345.302 79.978 346.541 78.7355 346.541 77.2055Z" />
<path d="M346.541 90.227V90.134C346.541 88.6041 345.307 87.3615 343.773 87.3615C342.238 87.3615 341 88.6041 341 90.134V90.227C341 91.7569 342.243 92.9995 343.773 92.9995C345.302 92.9995 346.541 91.7569 346.541 90.227Z" />
<path d="M346.541 102.773V124.014C346.541 125.544 345.302 126.787 343.773 126.787C342.243 126.787 341 125.548 341 124.014V102.773C341 101.243 342.238 100 343.773 100C345.307 100 346.541 101.243 346.541 102.773Z" />
<path d="M346.541 137.036V136.943C346.541 135.413 345.307 134.174 343.773 134.174C342.238 134.174 341 135.413 341 136.943V137.036C341 138.566 342.243 139.808 343.773 139.808C345.302 139.808 346.541 138.566 346.541 137.036Z" />
<path d="M346.541 171.206V149.964C346.541 148.434 345.307 147.191 343.773 147.191C342.238 147.191 341 148.434 341 149.964V171.206C341 172.74 342.243 173.978 343.773 173.978C345.302 173.978 346.541 172.735 346.541 171.206Z" />
<path d="M346.541 184.227V184.134C346.541 182.604 345.307 181.361 343.773 181.361C342.238 181.361 341 182.604 341 184.134V184.227C341 185.757 342.243 186.999 343.773 186.999C345.302 186.999 346.541 185.757 346.541 184.227Z" />
<path d="M346.541 196.773V218.014C346.541 219.544 345.302 220.787 343.773 220.787C342.243 220.787 341 219.548 341 218.014V196.773C341 195.243 342.238 194 343.773 194C345.307 194 346.541 195.243 346.541 196.773Z" />
<path d="M346.541 231.036V230.943C346.541 229.413 345.307 228.174 343.773 228.174C342.238 228.174 341 229.413 341 230.943V231.036C341 232.566 342.243 233.808 343.773 233.808C345.302 233.808 346.541 232.566 346.541 231.036Z" />
<path d="M346.541 594.206V572.964C346.541 571.434 345.307 570.191 343.773 570.191C342.238 570.191 341 571.434 341 572.964V594.206C341 595.74 342.243 596.978 343.773 596.978C345.302 596.978 346.541 595.735 346.541 594.206Z" />
<path d="M346.541 607.227V607.134C346.541 605.604 345.307 604.361 343.773 604.361C342.238 604.361 341 605.604 341 607.134V607.227C341 608.757 342.243 609.999 343.773 609.999C345.302 609.999 346.541 608.757 346.541 607.227Z" />
<path d="M346.541 619.772V641.014C346.541 642.544 345.302 643.787 343.773 643.787C342.243 643.787 341 642.548 341 641.014V619.772C341 618.243 342.238 617 343.773 617C345.307 617 346.541 618.243 346.541 619.772Z" />
<path d="M346.541 654.036V653.943C346.541 652.413 345.307 651.174 343.773 651.174C342.238 651.174 341 652.413 341 653.943V654.036C341 655.565 342.243 656.808 343.773 656.808C345.302 656.808 346.541 655.565 346.541 654.036Z" />
<path d="M346.541 688.206V666.964C346.541 665.434 345.307 664.191 343.773 664.191C342.238 664.191 341 665.434 341 666.964V688.206C341 689.74 342.243 690.978 343.773 690.978C345.302 690.978 346.541 689.735 346.541 688.206Z" />
<path d="M346.541 701.227V701.134C346.541 699.604 345.307 698.361 343.773 698.361C342.238 698.361 341 699.604 341 701.134V701.227C341 702.757 342.243 703.999 343.773 703.999C345.302 703.999 346.541 702.757 346.541 701.227Z" />
<path d="M346.541 713.772V735.014C346.541 736.544 345.302 737.787 343.773 737.787C342.243 737.787 341 736.548 341 735.014V713.772C341 712.243 342.238 711 343.773 711C345.307 711 346.541 712.243 346.541 713.772Z" />
<path d="M346.541 748.036V747.943C346.541 746.413 345.307 745.174 343.773 745.174C342.238 745.174 341 746.413 341 747.943V748.036C341 749.565 342.243 750.808 343.773 750.808C345.302 750.808 346.541 749.565 346.541 748.036Z" />
<path d="M346.541 782.206V760.964C346.541 759.434 345.307 758.191 343.773 758.191C342.238 758.191 341 759.434 341 760.964V782.206C341 783.74 342.243 784.978 343.773 784.978C345.302 784.978 346.541 783.735 346.541 782.206Z" />
<path d="M346.541 795.227V795.134C346.541 793.604 345.307 792.361 343.773 792.361C342.238 792.361 341 793.604 341 795.134V795.227C341 796.757 342.243 797.999 343.773 797.999C345.302 797.999 346.541 796.757 346.541 795.227Z" />
<path d="M346.541 807.772V829.014C346.541 830.544 345.302 831.787 343.772 831.787C342.243 831.787 341 830.548 341 829.014V807.772C341 806.243 342.238 805 343.773 805C345.307 805 346.541 806.243 346.541 807.772Z" />
<path d="M346.541 842.036V841.943C346.541 840.413 345.307 839.174 343.772 839.174C342.238 839.174 341 840.413 341 841.943V842.036C341 843.565 342.243 844.808 343.772 844.808C345.302 844.808 346.541 843.565 346.541 842.036Z" />
<path d="M346.541 876.206V854.964C346.541 853.434 345.307 852.191 343.773 852.191C342.238 852.191 341 853.434 341 854.964V876.206C341 877.74 342.243 878.978 343.772 878.978C345.302 878.978 346.541 877.735 346.541 876.206Z" />
<path d="M346.541 889.227V889.134C346.541 887.604 345.307 886.361 343.772 886.361C342.238 886.361 341 887.604 341 889.134V889.227C341 890.757 342.243 891.999 343.772 891.999C345.302 891.999 346.541 890.757 346.541 889.227Z" />
<path d="M346.541 901.772V923.014C346.541 924.544 345.302 925.787 343.772 925.787C342.243 925.787 341 924.548 341 923.014V901.772C341 900.243 342.238 899 343.772 899C345.307 899 346.541 900.243 346.541 901.772Z" />
<path d="M346.541 936.036V935.943C346.541 934.413 345.307 933.174 343.772 933.174C342.238 933.174 341 934.413 341 935.943V936.036C341 937.565 342.243 938.808 343.772 938.808C345.302 938.808 346.541 937.565 346.541 936.036Z" />
<path d="M346.541 970.206V948.964C346.541 947.434 345.307 946.191 343.772 946.191C342.238 946.191 341 947.434 341 948.964V970.206C341 971.74 342.243 972.978 343.772 972.978C345.302 972.978 346.541 971.735 346.541 970.206Z" />
<path d="M346.541 983.227V983.134C346.541 981.604 345.307 980.361 343.772 980.361C342.238 980.361 341 981.604 341 983.134V983.227C341 984.757 342.243 985.999 343.772 985.999C345.302 985.999 346.541 984.757 346.541 983.227Z" />
<path d="M346.541 995.772L346.541 1017.01C346.541 1018.54 345.302 1019.79 343.772 1019.79C342.243 1019.79 341 1018.55 341 1017.01V995.772C341 994.243 342.238 993 343.772 993C345.307 993 346.541 994.243 346.541 995.772Z" />
<path d="M346.541 1030.04V1029.94C346.541 1028.41 345.307 1027.17 343.772 1027.17C342.238 1027.17 341 1028.41 341 1029.94V1030.04C341 1031.57 342.243 1032.81 343.772 1032.81C345.302 1032.81 346.541 1031.57 346.541 1030.04Z" />
<path d="M346.541 1064.21L346.541 1042.96C346.541 1041.43 345.307 1040.19 343.772 1040.19C342.238 1040.19 341 1041.43 341 1042.96L341 1064.21C341 1065.74 342.243 1066.98 343.772 1066.98C345.302 1066.98 346.541 1065.74 346.541 1064.21Z" />
<path d="M346.541 1077.23V1077.13C346.541 1075.6 345.307 1074.36 343.772 1074.36C342.238 1074.36 341 1075.6 341 1077.13V1077.23C341 1078.76 342.243 1080 343.772 1080C345.302 1080 346.541 1078.76 346.541 1077.23Z" />
<path d="M687.541 240.773V262.014C687.541 263.544 686.302 264.787 684.773 264.787C683.243 264.787 682 263.548 682 262.014V240.773C682 239.243 683.238 238 684.773 238C686.307 238 687.541 239.243 687.541 240.773Z" />
<path d="M687.541 275.036V274.943C687.541 273.413 686.307 272.174 684.773 272.174C683.238 272.174 682 273.413 682 274.943V275.036C682 276.565 683.243 277.808 684.773 277.808C686.302 277.808 687.541 276.565 687.541 275.036Z" />
<path d="M687.541 309.206V287.964C687.541 286.434 686.307 285.191 684.773 285.191C683.238 285.191 682 286.434 682 287.964V309.206C682 310.74 683.243 311.978 684.773 311.978C686.302 311.978 687.541 310.735 687.541 309.206Z" />
<path d="M687.541 322.227V322.134C687.541 320.604 686.307 319.362 684.773 319.362C683.238 319.362 682 320.604 682 322.134V322.227C682 323.757 683.243 324.999 684.773 324.999C686.302 324.999 687.541 323.757 687.541 322.227Z" />
<path d="M687.541 334.773V356.014C687.541 357.544 686.302 358.787 684.773 358.787C683.243 358.787 682 357.548 682 356.014V334.773C682 333.243 683.238 332 684.773 332C686.307 332 687.541 333.243 687.541 334.773Z" />
<path d="M687.541 369.036V368.943C687.541 367.413 686.307 366.174 684.773 366.174C683.238 366.174 682 367.413 682 368.943V369.036C682 370.565 683.243 371.808 684.773 371.808C686.302 371.808 687.541 370.565 687.541 369.036Z" />
<path d="M687.541 403.206V381.964C687.541 380.434 686.307 379.191 684.773 379.191C683.238 379.191 682 380.434 682 381.964V403.206C682 404.74 683.243 405.978 684.773 405.978C686.302 405.978 687.541 404.735 687.541 403.206Z" />
<path d="M687.541 416.227V416.134C687.541 414.604 686.307 413.362 684.773 413.362C683.238 413.362 682 414.604 682 416.134V416.227C682 417.757 683.243 418.999 684.773 418.999C686.302 418.999 687.541 417.757 687.541 416.227Z" />
<path d="M687.541 428.773V450.014C687.541 451.544 686.302 452.787 684.773 452.787C683.243 452.787 682 451.548 682 450.014V428.773C682 427.243 683.238 426 684.773 426C686.307 426 687.541 427.243 687.541 428.773Z" />
<path d="M687.541 463.036V462.943C687.541 461.413 686.307 460.174 684.773 460.174C683.238 460.174 682 461.413 682 462.943V463.036C682 464.565 683.243 465.808 684.773 465.808C686.302 465.808 687.541 464.565 687.541 463.036Z" />
<path d="M687.541 497.206V475.964C687.541 474.434 686.307 473.191 684.773 473.191C683.238 473.191 682 474.434 682 475.964V497.206C682 498.74 683.243 499.978 684.772 499.978C686.302 499.978 687.541 498.735 687.541 497.206Z" />
<path d="M687.541 510.227V510.134C687.541 508.604 686.307 507.362 684.772 507.362C683.238 507.362 682 508.604 682 510.134V510.227C682 511.757 683.243 512.999 684.772 512.999C686.302 512.999 687.541 511.757 687.541 510.227Z" />
<path d="M687.541 522.772V544.014C687.541 545.544 686.302 546.787 684.772 546.787C683.243 546.787 682 545.548 682 544.014V522.772C682 521.243 683.238 520 684.773 520C686.307 520 687.541 521.243 687.541 522.772Z" />
<path d="M687.541 557.036V556.943C687.541 555.413 686.307 554.174 684.772 554.174C683.238 554.174 682 555.413 682 556.943V557.036C682 558.565 683.243 559.808 684.772 559.808C686.302 559.808 687.541 558.565 687.541 557.036Z" />
<path d="M687.541 5.77251V27.0141C687.541 28.5441 686.302 29.7866 684.773 29.7866C683.243 29.7866 682 28.5483 682 27.0141L682 5.77251C682 4.24257 683.238 3 684.773 3C686.307 3 687.541 4.24257 687.541 5.77251Z" />
<path d="M687.541 40.0356V39.9426C687.541 38.4127 686.307 37.1744 684.773 37.1744C683.238 37.1744 682 38.4127 682 39.9426V40.0356C682 41.5655 683.243 42.8081 684.773 42.8081C686.302 42.8081 687.541 41.5655 687.541 40.0356Z" />
<path d="M687.541 74.2055V52.9639C687.541 51.434 686.307 50.1914 684.773 50.1914C683.238 50.1914 682 51.434 682 52.9639V74.2055C682 75.7397 683.243 76.978 684.773 76.978C686.302 76.978 687.541 75.7355 687.541 74.2055Z" />
<path d="M687.541 87.227V87.134C687.541 85.6041 686.307 84.3615 684.773 84.3615C683.238 84.3615 682 85.6041 682 87.134V87.227C682 88.7569 683.243 89.9995 684.773 89.9995C686.302 89.9995 687.541 88.7569 687.541 87.227Z" />
<path d="M687.541 99.7725V121.014C687.541 122.544 686.302 123.787 684.773 123.787C683.243 123.787 682 122.548 682 121.014V99.7725C682 98.2426 683.238 97 684.773 97C686.307 97 687.541 98.2426 687.541 99.7725Z" />
<path d="M687.541 134.036V133.943C687.541 132.413 686.307 131.174 684.773 131.174C683.238 131.174 682 132.413 682 133.943V134.036C682 135.566 683.243 136.808 684.773 136.808C686.302 136.808 687.541 135.566 687.541 134.036Z" />
<path d="M687.541 168.206V146.964C687.541 145.434 686.307 144.191 684.773 144.191C683.238 144.191 682 145.434 682 146.964V168.206C682 169.74 683.243 170.978 684.773 170.978C686.302 170.978 687.541 169.735 687.541 168.206Z" />
<path d="M687.541 181.227V181.134C687.541 179.604 686.307 178.361 684.773 178.361C683.238 178.361 682 179.604 682 181.134V181.227C682 182.757 683.243 183.999 684.773 183.999C686.302 183.999 687.541 182.757 687.541 181.227Z" />
<path d="M687.541 193.773V215.014C687.541 216.544 686.302 217.787 684.773 217.787C683.243 217.787 682 216.548 682 215.014V193.773C682 192.243 683.238 191 684.773 191C686.307 191 687.541 192.243 687.541 193.773Z" />
<path d="M687.541 228.036V227.943C687.541 226.413 686.307 225.174 684.773 225.174C683.238 225.174 682 226.413 682 227.943V228.036C682 229.566 683.243 230.808 684.773 230.808C686.302 230.808 687.541 229.566 687.541 228.036Z" />
<path d="M687.541 591.206V569.964C687.541 568.434 686.307 567.191 684.772 567.191C683.238 567.191 682 568.434 682 569.964V591.206C682 592.74 683.243 593.978 684.772 593.978C686.302 593.978 687.541 592.735 687.541 591.206Z" />
<path d="M687.541 604.227V604.134C687.541 602.604 686.307 601.361 684.772 601.361C683.238 601.361 682 602.604 682 604.134V604.227C682 605.757 683.243 606.999 684.772 606.999C686.302 606.999 687.541 605.757 687.541 604.227Z" />
<path d="M687.541 616.772V638.014C687.541 639.544 686.302 640.787 684.772 640.787C683.243 640.787 682 639.548 682 638.014V616.772C682 615.243 683.238 614 684.772 614C686.307 614 687.541 615.243 687.541 616.772Z" />
<path d="M687.541 651.036V650.943C687.541 649.413 686.307 648.174 684.772 648.174C683.238 648.174 682 649.413 682 650.943V651.036C682 652.565 683.243 653.808 684.772 653.808C686.302 653.808 687.541 652.565 687.541 651.036Z" />
<path d="M687.541 685.206L687.541 663.964C687.541 662.434 686.307 661.191 684.772 661.191C683.238 661.191 682 662.434 682 663.964V685.206C682 686.74 683.243 687.978 684.772 687.978C686.302 687.978 687.541 686.735 687.541 685.206Z" />
<path d="M687.541 698.227V698.134C687.541 696.604 686.307 695.361 684.772 695.361C683.238 695.361 682 696.604 682 698.134V698.227C682 699.757 683.243 700.999 684.772 700.999C686.302 700.999 687.541 699.757 687.541 698.227Z" />
<path d="M687.541 710.772V732.014C687.541 733.544 686.302 734.787 684.772 734.787C683.243 734.787 682 733.548 682 732.014V710.772C682 709.243 683.238 708 684.772 708C686.307 708 687.541 709.243 687.541 710.772Z" />
<path d="M687.541 745.036V744.943C687.541 743.413 686.307 742.174 684.772 742.174C683.238 742.174 682 743.413 682 744.943V745.036C682 746.565 683.243 747.808 684.772 747.808C686.302 747.808 687.541 746.565 687.541 745.036Z" />
<path d="M687.541 779.206V757.964C687.541 756.434 686.307 755.191 684.772 755.191C683.238 755.191 682 756.434 682 757.964V779.206C682 780.74 683.243 781.978 684.772 781.978C686.302 781.978 687.541 780.735 687.541 779.206Z" />
<path d="M687.541 792.227V792.134C687.541 790.604 686.307 789.361 684.772 789.361C683.238 789.361 682 790.604 682 792.134V792.227C682 793.757 683.243 794.999 684.772 794.999C686.302 794.999 687.541 793.757 687.541 792.227Z" />
<path d="M687.541 804.772V826.014C687.541 827.544 686.302 828.787 684.772 828.787C683.243 828.787 682 827.548 682 826.014V804.772C682 803.243 683.238 802 684.772 802C686.307 802 687.541 803.243 687.541 804.772Z" />
<path d="M687.541 839.036V838.943C687.541 837.413 686.307 836.174 684.772 836.174C683.238 836.174 682 837.413 682 838.943V839.036C682 840.565 683.243 841.808 684.772 841.808C686.302 841.808 687.541 840.565 687.541 839.036Z" />
<path d="M687.541 873.206V851.964C687.541 850.434 686.307 849.191 684.772 849.191C683.238 849.191 682 850.434 682 851.964V873.206C682 874.74 683.243 875.978 684.772 875.978C686.302 875.978 687.541 874.735 687.541 873.206Z" />
<path d="M687.541 886.227V886.134C687.541 884.604 686.307 883.361 684.772 883.361C683.238 883.361 682 884.604 682 886.134V886.227C682 887.757 683.243 888.999 684.772 888.999C686.302 888.999 687.541 887.757 687.541 886.227Z" />
<path d="M687.541 898.772V920.014C687.541 921.544 686.302 922.787 684.772 922.787C683.243 922.787 682 921.548 682 920.014V898.772C682 897.243 683.238 896 684.772 896C686.307 896 687.541 897.243 687.541 898.772Z" />
<path d="M687.541 933.036V932.943C687.541 931.413 686.307 930.174 684.772 930.174C683.238 930.174 682 931.413 682 932.943V933.036C682 934.565 683.243 935.808 684.772 935.808C686.302 935.808 687.541 934.565 687.541 933.036Z" />
<path d="M687.541 967.206V945.964C687.541 944.434 686.307 943.191 684.772 943.191C683.238 943.191 682 944.434 682 945.964V967.206C682 968.74 683.243 969.978 684.772 969.978C686.302 969.978 687.541 968.735 687.541 967.206Z" />
<path d="M687.541 980.227V980.134C687.541 978.604 686.307 977.361 684.772 977.361C683.238 977.361 682 978.604 682 980.134V980.227C682 981.757 683.243 982.999 684.772 982.999C686.302 982.999 687.541 981.757 687.541 980.227Z" />
<path d="M687.541 992.772V1014.01C687.541 1015.54 686.302 1016.79 684.772 1016.79C683.243 1016.79 682 1015.55 682 1014.01V992.772C682 991.243 683.238 990 684.772 990C686.307 990 687.541 991.243 687.541 992.772Z" />
<path d="M687.541 1027.04V1026.94C687.541 1025.41 686.307 1024.17 684.772 1024.17C683.238 1024.17 682 1025.41 682 1026.94V1027.04C682 1028.57 683.243 1029.81 684.772 1029.81C686.302 1029.81 687.541 1028.57 687.541 1027.04Z" />
<path d="M687.541 1061.21V1039.96C687.541 1038.43 686.307 1037.19 684.772 1037.19C683.238 1037.19 682 1038.43 682 1039.96V1061.21C682 1062.74 683.243 1063.98 684.772 1063.98C686.302 1063.98 687.541 1062.74 687.541 1061.21Z" />
<path d="M687.541 1074.23V1074.13C687.541 1072.6 686.307 1071.36 684.772 1071.36C683.238 1071.36 682 1072.6 682 1074.13V1074.23C682 1075.76 683.243 1077 684.772 1077C686.302 1077 687.541 1075.76 687.541 1074.23Z" />
<path d="M1028.54 237.773V259.014C1028.54 260.544 1027.3 261.787 1025.77 261.787C1024.24 261.787 1023 260.548 1023 259.014V237.773C1023 236.243 1024.24 235 1025.77 235C1027.31 235 1028.54 236.243 1028.54 237.773Z" />
<path d="M1028.54 272.036V271.943C1028.54 270.413 1027.31 269.174 1025.77 269.174C1024.24 269.174 1023 270.413 1023 271.943V272.036C1023 273.565 1024.24 274.808 1025.77 274.808C1027.3 274.808 1028.54 273.565 1028.54 272.036Z" />
<path d="M1028.54 306.206V284.964C1028.54 283.434 1027.31 282.191 1025.77 282.191C1024.24 282.191 1023 283.434 1023 284.964V306.206C1023 307.74 1024.24 308.978 1025.77 308.978C1027.3 308.978 1028.54 307.735 1028.54 306.206Z" />
<path d="M1028.54 319.227V319.134C1028.54 317.604 1027.31 316.362 1025.77 316.362C1024.24 316.362 1023 317.604 1023 319.134V319.227C1023 320.757 1024.24 321.999 1025.77 321.999C1027.3 321.999 1028.54 320.757 1028.54 319.227Z" />
<path d="M1028.54 331.773V353.014C1028.54 354.544 1027.3 355.787 1025.77 355.787C1024.24 355.787 1023 354.548 1023 353.014V331.773C1023 330.243 1024.24 329 1025.77 329C1027.31 329 1028.54 330.243 1028.54 331.773Z" />
<path d="M1028.54 366.036V365.943C1028.54 364.413 1027.31 363.174 1025.77 363.174C1024.24 363.174 1023 364.413 1023 365.943V366.036C1023 367.565 1024.24 368.808 1025.77 368.808C1027.3 368.808 1028.54 367.565 1028.54 366.036Z" />
<path d="M1028.54 400.206V378.964C1028.54 377.434 1027.31 376.191 1025.77 376.191C1024.24 376.191 1023 377.434 1023 378.964V400.206C1023 401.74 1024.24 402.978 1025.77 402.978C1027.3 402.978 1028.54 401.735 1028.54 400.206Z" />
<path d="M1028.54 413.227V413.134C1028.54 411.604 1027.31 410.362 1025.77 410.362C1024.24 410.362 1023 411.604 1023 413.134V413.227C1023 414.757 1024.24 415.999 1025.77 415.999C1027.3 415.999 1028.54 414.757 1028.54 413.227Z" />
<path d="M1028.54 425.773V447.014C1028.54 448.544 1027.3 449.787 1025.77 449.787C1024.24 449.787 1023 448.548 1023 447.014V425.773C1023 424.243 1024.24 423 1025.77 423C1027.31 423 1028.54 424.243 1028.54 425.773Z" />
<path d="M1028.54 460.036V459.943C1028.54 458.413 1027.31 457.174 1025.77 457.174C1024.24 457.174 1023 458.413 1023 459.943V460.036C1023 461.565 1024.24 462.808 1025.77 462.808C1027.3 462.808 1028.54 461.565 1028.54 460.036Z" />
<path d="M1028.54 494.206V472.964C1028.54 471.434 1027.31 470.191 1025.77 470.191C1024.24 470.191 1023 471.434 1023 472.964V494.206C1023 495.74 1024.24 496.978 1025.77 496.978C1027.3 496.978 1028.54 495.735 1028.54 494.206Z" />
<path d="M1028.54 507.227V507.134C1028.54 505.604 1027.31 504.362 1025.77 504.362C1024.24 504.362 1023 505.604 1023 507.134V507.227C1023 508.757 1024.24 509.999 1025.77 509.999C1027.3 509.999 1028.54 508.757 1028.54 507.227Z" />
<path d="M1028.54 519.772V541.014C1028.54 542.544 1027.3 543.787 1025.77 543.787C1024.24 543.787 1023 542.548 1023 541.014V519.772C1023 518.243 1024.24 517 1025.77 517C1027.31 517 1028.54 518.243 1028.54 519.772Z" />
<path d="M1028.54 554.036V553.943C1028.54 552.413 1027.31 551.174 1025.77 551.174C1024.24 551.174 1023 552.413 1023 553.943V554.036C1023 555.565 1024.24 556.808 1025.77 556.808C1027.3 556.808 1028.54 555.565 1028.54 554.036Z" />
<path d="M1028.54 2.77251V24.0141C1028.54 25.5441 1027.3 26.7866 1025.77 26.7866C1024.24 26.7866 1023 25.5483 1023 24.0141L1023 2.77251C1023 1.24257 1024.24 -2.01181e-07 1025.77 0C1027.31 2.01181e-07 1028.54 1.24257 1028.54 2.77251Z" />
<path d="M1028.54 37.0356V36.9426C1028.54 35.4127 1027.31 34.1744 1025.77 34.1744C1024.24 34.1744 1023 35.4127 1023 36.9426V37.0356C1023 38.5655 1024.24 39.8081 1025.77 39.8081C1027.3 39.8081 1028.54 38.5655 1028.54 37.0356Z" />
<path d="M1028.54 71.2055V49.9639C1028.54 48.434 1027.31 47.1914 1025.77 47.1914C1024.24 47.1914 1023 48.434 1023 49.9639V71.2055C1023 72.7397 1024.24 73.978 1025.77 73.978C1027.3 73.978 1028.54 72.7355 1028.54 71.2055Z" />
<path d="M1028.54 84.227V84.134C1028.54 82.6041 1027.31 81.3615 1025.77 81.3615C1024.24 81.3615 1023 82.6041 1023 84.134V84.227C1023 85.7569 1024.24 86.9995 1025.77 86.9995C1027.3 86.9995 1028.54 85.7569 1028.54 84.227Z" />
<path d="M1028.54 96.7725V118.014C1028.54 119.544 1027.3 120.787 1025.77 120.787C1024.24 120.787 1023 119.548 1023 118.014V96.7725C1023 95.2426 1024.24 94 1025.77 94C1027.31 94 1028.54 95.2426 1028.54 96.7725Z" />
<path d="M1028.54 131.036V130.943C1028.54 129.413 1027.31 128.174 1025.77 128.174C1024.24 128.174 1023 129.413 1023 130.943V131.036C1023 132.566 1024.24 133.808 1025.77 133.808C1027.3 133.808 1028.54 132.566 1028.54 131.036Z" />
<path d="M1028.54 165.206V143.964C1028.54 142.434 1027.31 141.191 1025.77 141.191C1024.24 141.191 1023 142.434 1023 143.964V165.206C1023 166.74 1024.24 167.978 1025.77 167.978C1027.3 167.978 1028.54 166.735 1028.54 165.206Z" />
<path d="M1028.54 178.227V178.134C1028.54 176.604 1027.31 175.361 1025.77 175.361C1024.24 175.361 1023 176.604 1023 178.134V178.227C1023 179.757 1024.24 180.999 1025.77 180.999C1027.3 180.999 1028.54 179.757 1028.54 178.227Z" />
<path d="M1028.54 190.773V212.014C1028.54 213.544 1027.3 214.787 1025.77 214.787C1024.24 214.787 1023 213.548 1023 212.014V190.773C1023 189.243 1024.24 188 1025.77 188C1027.31 188 1028.54 189.243 1028.54 190.773Z" />
<path d="M1028.54 225.036V224.943C1028.54 223.413 1027.31 222.174 1025.77 222.174C1024.24 222.174 1023 223.413 1023 224.943V225.036C1023 226.566 1024.24 227.808 1025.77 227.808C1027.3 227.808 1028.54 226.566 1028.54 225.036Z" />
<path d="M1028.54 588.206V566.964C1028.54 565.434 1027.31 564.191 1025.77 564.191C1024.24 564.191 1023 565.434 1023 566.964V588.206C1023 589.74 1024.24 590.978 1025.77 590.978C1027.3 590.978 1028.54 589.735 1028.54 588.206Z" />
<path d="M1028.54 601.227V601.134C1028.54 599.604 1027.31 598.361 1025.77 598.361C1024.24 598.361 1023 599.604 1023 601.134V601.227C1023 602.757 1024.24 603.999 1025.77 603.999C1027.3 603.999 1028.54 602.757 1028.54 601.227Z" />
<path d="M1028.54 613.772V635.014C1028.54 636.544 1027.3 637.787 1025.77 637.787C1024.24 637.787 1023 636.548 1023 635.014V613.772C1023 612.243 1024.24 611 1025.77 611C1027.31 611 1028.54 612.243 1028.54 613.772Z" />
<path d="M1028.54 648.036V647.943C1028.54 646.413 1027.31 645.174 1025.77 645.174C1024.24 645.174 1023 646.413 1023 647.943V648.036C1023 649.565 1024.24 650.808 1025.77 650.808C1027.3 650.808 1028.54 649.565 1028.54 648.036Z" />
<path d="M1028.54 682.206V660.964C1028.54 659.434 1027.31 658.191 1025.77 658.191C1024.24 658.191 1023 659.434 1023 660.964V682.206C1023 683.74 1024.24 684.978 1025.77 684.978C1027.3 684.978 1028.54 683.735 1028.54 682.206Z" />
<path d="M1028.54 695.227V695.134C1028.54 693.604 1027.31 692.361 1025.77 692.361C1024.24 692.361 1023 693.604 1023 695.134V695.227C1023 696.757 1024.24 697.999 1025.77 697.999C1027.3 697.999 1028.54 696.757 1028.54 695.227Z" />
<path d="M1028.54 707.772V729.014C1028.54 730.544 1027.3 731.787 1025.77 731.787C1024.24 731.787 1023 730.548 1023 729.014V707.772C1023 706.243 1024.24 705 1025.77 705C1027.31 705 1028.54 706.243 1028.54 707.772Z" />
<path d="M1028.54 742.036V741.943C1028.54 740.413 1027.31 739.174 1025.77 739.174C1024.24 739.174 1023 740.413 1023 741.943V742.036C1023 743.565 1024.24 744.808 1025.77 744.808C1027.3 744.808 1028.54 743.565 1028.54 742.036Z" />
<path d="M1028.54 776.206V754.964C1028.54 753.434 1027.31 752.191 1025.77 752.191C1024.24 752.191 1023 753.434 1023 754.964V776.206C1023 777.74 1024.24 778.978 1025.77 778.978C1027.3 778.978 1028.54 777.735 1028.54 776.206Z" />
<path d="M1028.54 789.227V789.134C1028.54 787.604 1027.31 786.361 1025.77 786.361C1024.24 786.361 1023 787.604 1023 789.134V789.227C1023 790.757 1024.24 791.999 1025.77 791.999C1027.3 791.999 1028.54 790.757 1028.54 789.227Z" />
<path d="M1028.54 801.772V823.014C1028.54 824.544 1027.3 825.787 1025.77 825.787C1024.24 825.787 1023 824.548 1023 823.014V801.772C1023 800.243 1024.24 799 1025.77 799C1027.31 799 1028.54 800.243 1028.54 801.772Z" />
<path d="M1028.54 836.036V835.943C1028.54 834.413 1027.31 833.174 1025.77 833.174C1024.24 833.174 1023 834.413 1023 835.943V836.036C1023 837.565 1024.24 838.808 1025.77 838.808C1027.3 838.808 1028.54 837.565 1028.54 836.036Z" />
<path d="M1028.54 870.206V848.964C1028.54 847.434 1027.31 846.191 1025.77 846.191C1024.24 846.191 1023 847.434 1023 848.964V870.206C1023 871.74 1024.24 872.978 1025.77 872.978C1027.3 872.978 1028.54 871.735 1028.54 870.206Z" />
<path d="M1028.54 883.227V883.134C1028.54 881.604 1027.31 880.361 1025.77 880.361C1024.24 880.361 1023 881.604 1023 883.134V883.227C1023 884.757 1024.24 885.999 1025.77 885.999C1027.3 885.999 1028.54 884.757 1028.54 883.227Z" />
<path d="M1028.54 895.772V917.014C1028.54 918.544 1027.3 919.787 1025.77 919.787C1024.24 919.787 1023 918.548 1023 917.014V895.772C1023 894.243 1024.24 893 1025.77 893C1027.31 893 1028.54 894.243 1028.54 895.772Z" />
<path d="M1028.54 930.036V929.943C1028.54 928.413 1027.31 927.174 1025.77 927.174C1024.24 927.174 1023 928.413 1023 929.943V930.036C1023 931.565 1024.24 932.808 1025.77 932.808C1027.3 932.808 1028.54 931.565 1028.54 930.036Z" />
<path d="M1028.54 964.206V942.964C1028.54 941.434 1027.31 940.191 1025.77 940.191C1024.24 940.191 1023 941.434 1023 942.964V964.206C1023 965.74 1024.24 966.978 1025.77 966.978C1027.3 966.978 1028.54 965.735 1028.54 964.206Z" />
<path d="M1028.54 977.227V977.134C1028.54 975.604 1027.31 974.361 1025.77 974.361C1024.24 974.361 1023 975.604 1023 977.134V977.227C1023 978.757 1024.24 979.999 1025.77 979.999C1027.3 979.999 1028.54 978.757 1028.54 977.227Z" />
<path d="M1028.54 989.772V1011.01C1028.54 1012.54 1027.3 1013.79 1025.77 1013.79C1024.24 1013.79 1023 1012.55 1023 1011.01V989.772C1023 988.243 1024.24 987 1025.77 987C1027.31 987 1028.54 988.243 1028.54 989.772Z" />
<path d="M1028.54 1024.04V1023.94C1028.54 1022.41 1027.31 1021.17 1025.77 1021.17C1024.24 1021.17 1023 1022.41 1023 1023.94V1024.04C1023 1025.57 1024.24 1026.81 1025.77 1026.81C1027.3 1026.81 1028.54 1025.57 1028.54 1024.04Z" />
<path d="M1028.54 1058.21V1036.96C1028.54 1035.43 1027.31 1034.19 1025.77 1034.19C1024.24 1034.19 1023 1035.43 1023 1036.96V1058.21C1023 1059.74 1024.24 1060.98 1025.77 1060.98C1027.3 1060.98 1028.54 1059.74 1028.54 1058.21Z" />
<path d="M1028.54 1071.23V1071.13C1028.54 1069.6 1027.31 1068.36 1025.77 1068.36C1024.24 1068.36 1023 1069.6 1023 1071.13V1071.23C1023 1072.76 1024.24 1074 1025.77 1074C1027.3 1074 1028.54 1072.76 1028.54 1071.23Z" />
</svg>
