<svg width="31" height="90" viewBox="0 0 31 90" fill="none" xmlns="http://www.w3.org/2000/svg">
<path d="M30.0102 15.3137C30.0102 7.76037 23.887 1.63721 16.3337 1.63721C8.78039 1.63721 2.65723 7.76037 2.65723 15.3137L2.65723 51.159C2.65723 58.7123 8.78039 64.8354 16.3337 64.8354C23.887 64.8354 30.0102 58.7123 30.0102 51.159L30.0102 15.3137Z" stroke="#FEC806" stroke-width="1.82353"/>
<path d="M16.3333 20.2453C13.6477 20.2453 11.4706 22.4225 11.4706 25.1081C11.4706 27.7937 13.6477 29.9708 16.3333 29.9708C19.019 29.9708 21.1961 27.7937 21.1961 25.1081C21.1961 22.4225 19.019 20.2453 16.3333 20.2453ZM15.6886 88.7427C16.0447 89.0988 16.622 89.0988 16.9781 88.7427L22.7806 82.9403C23.1365 82.5842 23.1365 82.0069 22.7806 81.6508C22.4244 81.2948 21.8471 81.2948 21.4911 81.6508L16.3333 86.8086L11.1756 81.6508C10.8196 81.2948 10.2423 81.2948 9.8862 81.6508C9.53012 82.0069 9.53012 82.5842 9.8862 82.9403L15.6886 88.7427ZM15.4216 25.1081L15.4216 88.098L17.2451 88.098L17.2451 25.1081L15.4216 25.1081Z" fill="#FEC806"/>
</svg>
