<svg width="329" height="329" viewBox="0 0 329 329" fill="none" xmlns="http://www.w3.org/2000/svg">
<path d="M99.3776 56.4214L71.3502 93.6036C65.6694 101.153 61.9802 110.011 60.6226 119.361C59.2651 128.712 60.2828 138.253 63.5821 147.107L99.7893 244.453C111.131 274.939 145.878 289.508 175.564 276.201L232.341 250.768C263.048 236.991 274.902 199.522 257.676 170.593L192.704 61.4901C172.235 27.1201 123.451 24.4673 99.3776 56.4214Z" fill="#5448C8"/>
<path d="M215.954 82.0636C217.591 82.0636 219.161 81.4134 220.318 80.256C221.476 79.0985 222.126 77.5287 222.126 75.8919C222.126 74.255 221.476 72.6852 220.318 71.5278C219.161 70.3703 217.591 69.7201 215.954 69.7201H197.606L204.962 82.0636H215.954Z" fill="#F7AD36"/>
<path d="M78.3882 69.7202C77.5775 69.7197 76.7748 69.879 76.0257 70.189C75.2767 70.499 74.5961 70.9535 74.0229 71.5268C73.4497 72.1 72.9951 72.7805 72.6852 73.5296C72.3752 74.2786 72.2159 75.0814 72.2164 75.892V92.4692L89.3568 69.7202H78.3882Z" fill="#F7AD36"/>
<path d="M98.4106 240.794H89.8656C89.0419 240.773 88.2223 240.918 87.4552 241.219C86.6881 241.52 85.989 241.971 85.399 242.546C84.8091 243.122 84.3402 243.809 84.0201 244.568C83.7 245.328 83.5351 246.144 83.5351 246.968C83.5351 247.792 83.7 248.607 84.0201 249.367C84.3402 250.126 84.8091 250.813 85.399 251.389C85.989 251.964 86.6881 252.416 87.4552 252.717C88.2223 253.018 89.0419 253.162 89.8656 253.141H103.891C102.279 250.366 100.906 247.46 99.7855 244.453L98.4106 240.794Z" fill="#F7AD36"/>
<path d="M249.466 155.255C251.103 155.255 252.672 154.605 253.83 153.447C254.987 152.29 255.637 150.72 255.637 149.083V96.1744C255.597 94.5638 254.929 93.0328 253.776 91.908C252.622 90.7831 251.075 90.1536 249.464 90.1536C247.853 90.1536 246.305 90.7831 245.152 91.908C243.999 93.0328 243.33 94.5638 243.29 96.1744V146.438L248.495 155.173C248.816 155.226 249.14 155.254 249.466 155.255V155.255Z" fill="#F7AD36"/>
<path d="M242.408 82.0636H243.29C244.927 82.0636 246.497 81.4134 247.654 80.256C248.812 79.0985 249.462 77.5287 249.462 75.8919C249.462 74.255 248.812 72.6852 247.654 71.5278C246.497 70.3703 244.927 69.7201 243.29 69.7201H242.408C240.771 69.7201 239.202 70.3703 238.044 71.5278C236.887 72.6852 236.237 74.255 236.237 75.8919C236.237 77.5287 236.887 79.0985 238.044 80.256C239.202 81.4134 240.771 82.0636 242.408 82.0636V82.0636Z" fill="#F7AD36"/>
<path d="M72.2164 204.641C72.2568 206.251 72.925 207.782 74.0784 208.907C75.2318 210.032 76.7791 210.662 78.3901 210.662C80.0012 210.662 81.5485 210.032 82.7019 208.907C83.8553 207.782 84.5235 206.251 84.5639 204.641V203.561L72.2164 170.372V204.641Z" fill="#F7AD36"/>
<path d="M84.5561 231.095C84.5768 230.272 84.4324 229.452 84.1314 228.685C83.8304 227.918 83.379 227.219 82.8037 226.629C82.2283 226.039 81.5408 225.57 80.7815 225.25C80.0221 224.93 79.2064 224.765 78.3824 224.765C77.5584 224.765 76.7427 224.93 75.9834 225.25C75.224 225.57 74.5365 226.039 73.9611 226.629C73.3858 227.219 72.9344 227.918 72.6334 228.685C72.3324 229.452 72.188 230.272 72.2087 231.095V231.977C72.2491 233.588 72.9173 235.119 74.0707 236.244C75.2241 237.368 76.7713 237.998 78.3824 237.998C79.9935 237.998 81.5408 237.368 82.6942 236.244C83.8476 235.119 84.5157 233.588 84.5561 231.977V231.095Z" fill="#F7AD36"/>
<path d="M232.321 250.768L227.027 253.141H249.466C251.103 253.14 252.673 252.489 253.83 251.331C254.987 250.173 255.637 248.603 255.637 246.966V231.379C249.799 239.866 241.731 246.575 232.321 250.768V250.768Z" fill="#F7AD36"/>
<path d="M156.874 75.8919C156.873 76.7025 157.032 77.5053 157.342 78.2543C157.652 79.0033 158.107 79.6839 158.68 80.2571C159.253 80.8303 159.934 81.2849 160.683 81.5949C161.432 81.9049 162.235 82.0642 163.045 82.0636H204.962L197.61 69.7201H163.041C162.231 69.7201 161.429 69.8798 160.68 70.19C159.932 70.5002 159.251 70.9549 158.679 71.528C158.106 72.1012 157.652 72.7816 157.342 73.5303C157.032 74.2791 156.873 75.0816 156.874 75.8919V75.8919Z" fill="#99778C"/>
<path d="M248.495 155.173L243.29 146.438V149.083C243.291 150.552 243.815 151.972 244.769 153.088C245.723 154.205 247.044 154.944 248.495 155.173V155.173Z" fill="#99778C"/>
<path d="M170.099 240.794H169.229C167.618 240.834 166.087 241.502 164.962 242.656C163.837 243.809 163.208 245.356 163.208 246.968C163.208 248.579 163.837 250.126 164.962 251.279C166.087 252.433 167.618 253.101 169.229 253.141H170.11C170.934 253.162 171.754 253.018 172.521 252.717C173.288 252.416 173.987 251.964 174.577 251.389C175.167 250.813 175.636 250.126 175.956 249.367C176.276 248.607 176.441 247.792 176.441 246.968C176.441 246.144 176.276 245.328 175.956 244.568C175.636 243.809 175.167 243.122 174.577 242.546C173.987 241.971 173.288 241.52 172.521 241.219C171.754 240.918 170.934 240.773 170.11 240.794H170.099Z" fill="#99778C"/>
<path d="M78.3882 118.221C77.5776 118.22 76.7748 118.379 76.0258 118.689C75.2767 118.999 74.5962 119.454 74.023 120.027C73.4498 120.6 72.9952 121.281 72.6852 122.03C72.3752 122.779 72.2159 123.582 72.2164 124.392V125.274C72.2568 126.885 72.925 128.416 74.0784 129.54C75.2318 130.665 76.7791 131.295 78.3901 131.295C80.0012 131.295 81.5485 130.665 82.7019 129.54C83.8553 128.416 84.5235 126.885 84.5639 125.274V124.392C84.5639 123.582 84.4041 122.779 84.0937 122.03C83.7833 121.281 83.3283 120.6 82.7548 120.027C82.1813 119.454 81.5005 118.999 80.7512 118.689C80.002 118.379 79.199 118.22 78.3882 118.221V118.221Z" fill="#99778C"/>
<path d="M136.603 69.7201H135.709C134.072 69.7201 132.503 70.3703 131.345 71.5278C130.188 72.6852 129.537 74.255 129.537 75.8919C129.537 77.5287 130.188 79.0985 131.345 80.256C132.503 81.4134 134.072 82.0636 135.709 82.0636H136.603C138.239 82.0636 139.809 81.4134 140.967 80.256C142.124 79.0985 142.774 77.5287 142.774 75.8919C142.774 74.255 142.124 72.6852 140.967 71.5278C139.809 70.3703 138.239 69.7201 136.603 69.7201V69.7201Z" fill="#99778C"/>
<path d="M255.637 231.379V202.874C255.597 201.263 254.929 199.732 253.775 198.607C252.622 197.482 251.075 196.853 249.464 196.853C247.853 196.853 246.305 197.482 245.152 198.607C243.999 199.732 243.33 201.263 243.29 202.874V240.794H196.553C194.943 240.834 193.412 241.502 192.287 242.656C191.162 243.809 190.532 245.356 190.532 246.967C190.532 248.578 191.162 250.126 192.287 251.279C193.412 252.433 194.943 253.101 196.553 253.141H227.027L232.321 250.768C241.731 246.575 249.799 239.866 255.637 231.379V231.379Z" fill="#99778C"/>
<path d="M78.3882 104.11C80.0237 104.109 81.5919 103.459 82.7484 102.302C83.9049 101.146 84.555 99.5773 84.5561 97.9418V82.0638H109.247C110.884 82.0638 112.454 81.4135 113.611 80.2561C114.769 79.0987 115.419 77.5289 115.419 75.892C115.419 74.2551 114.769 72.6853 113.611 71.5279C112.454 70.3705 110.884 69.7202 109.247 69.7202H89.3568L72.2164 92.4692V97.9418C72.2164 98.7521 72.3761 99.5545 72.6863 100.303C72.9965 101.052 73.4511 101.732 74.0243 102.305C74.5975 102.877 75.2779 103.332 76.0266 103.641C76.7754 103.951 77.5779 104.11 78.3882 104.11V104.11Z" fill="#99778C"/>
<path d="M78.3882 145.557C77.5776 145.556 76.7748 145.715 76.0258 146.025C75.2767 146.335 74.5962 146.79 74.023 147.363C73.4498 147.936 72.9952 148.617 72.6852 149.366C72.3752 150.115 72.2159 150.918 72.2164 151.728V170.372L84.5561 203.561V151.728C84.5561 150.092 83.9064 148.523 82.7498 147.366C81.5932 146.208 80.0244 145.558 78.3882 145.557V145.557Z" fill="#99778C"/>
<path d="M249.466 182.614C251.103 182.613 252.673 181.962 253.83 180.804C254.987 179.646 255.637 178.076 255.637 176.439V175.557C255.597 173.946 254.929 172.415 253.776 171.291C252.622 170.166 251.075 169.536 249.464 169.536C247.853 169.536 246.305 170.166 245.152 171.291C243.999 172.415 243.33 173.946 243.29 175.557V176.439C243.29 178.076 243.941 179.647 245.099 180.805C246.257 181.964 247.828 182.614 249.466 182.614Z" fill="#99778C"/>
<path d="M148.935 246.966C148.935 245.329 148.284 243.759 147.127 242.602C145.969 241.444 144.4 240.794 142.763 240.794H98.4106L99.7739 244.453C100.894 247.46 102.268 250.366 103.879 253.141H142.763C143.574 253.141 144.376 252.982 145.125 252.671C145.875 252.361 146.555 251.906 147.128 251.332C147.701 250.759 148.156 250.078 148.466 249.329C148.776 248.579 148.935 247.776 148.935 246.966V246.966Z" fill="#99778C"/>
</svg>
