<svg width="373" height="463" viewBox="0 0 373 463" fill="none" xmlns="http://www.w3.org/2000/svg">
<path d="M72.0426 42.1637L21.3026 111.77C11.0182 125.903 4.33937 142.486 1.88169 159.99C-0.575994 177.493 1.26653 195.355 7.23946 211.929L72.788 394.165C93.3202 451.236 156.225 478.51 209.967 453.599L312.755 405.988C368.347 380.197 389.807 310.053 358.622 255.898L240.998 51.6525C203.941 -12.6895 115.624 -17.6557 72.0426 42.1637Z" fill="#5448C8"/>
<path d="M282.432 90.6427C285.395 90.6427 288.237 89.4254 290.333 87.2587C292.428 85.0919 293.605 82.1532 293.605 79.0889C293.605 76.0247 292.428 73.0859 290.333 70.9192C288.237 68.7524 285.395 67.5352 282.432 67.5352H249.215L262.533 90.6427H282.432Z" fill="#F7AD36"/>
<path d="M33.3841 67.5352C31.9166 67.5342 30.4633 67.8324 29.1072 68.4127C27.7512 68.993 26.5191 69.844 25.4814 70.9171C24.4437 71.9901 23.6207 73.2642 23.0596 74.6664C22.4984 76.0686 22.21 77.5714 22.2109 79.0889V110.122L53.2414 67.5352H33.3841Z" fill="#F7AD36"/>
<path d="M69.6333 387.792H54.1637C52.6724 387.753 51.1887 388.023 49.7999 388.587C48.4112 389.15 47.1455 389.995 46.0775 391.072C45.0095 392.149 44.1607 393.437 43.5812 394.858C43.0017 396.28 42.7031 397.807 42.7031 399.349C42.7031 400.892 43.0017 402.419 43.5812 403.84C44.1607 405.262 45.0095 406.549 46.0775 407.626C47.1455 408.703 48.4112 409.548 49.7999 410.111C51.1887 410.675 52.6724 410.945 54.1637 410.907H79.5548C76.6373 405.712 74.151 400.27 72.1224 394.641L69.6333 387.792Z" fill="#F7AD36"/>
<path d="M343.098 227.659C346.062 227.659 348.903 226.442 350.999 224.275C353.094 222.108 354.271 219.169 354.271 216.105V117.058C354.198 114.043 352.989 111.177 350.901 109.071C348.812 106.966 346.011 105.787 343.095 105.787C340.178 105.787 337.377 106.966 335.289 109.071C333.201 111.177 331.991 114.043 331.918 117.058V211.154L341.34 227.506C341.921 227.606 342.509 227.657 343.098 227.659V227.659Z" fill="#F7AD36"/>
<path d="M330.322 90.6427H331.918C334.881 90.6427 337.723 89.4254 339.818 87.2587C341.914 85.0919 343.091 82.1532 343.091 79.0889C343.091 76.0247 341.914 73.0859 339.818 70.9192C337.723 68.7524 334.881 67.5352 331.918 67.5352H330.322C327.358 67.5352 324.516 68.7524 322.421 70.9192C320.326 73.0859 319.148 76.0247 319.148 79.0889C319.148 82.1532 320.326 85.0919 322.421 87.2587C324.516 89.4254 327.358 90.6427 330.322 90.6427V90.6427Z" fill="#F7AD36"/>
<path d="M22.2109 320.112C22.2841 323.127 23.4937 325.993 25.5818 328.099C27.6698 330.204 30.471 331.383 33.3876 331.383C36.3043 331.383 39.1054 330.204 41.1935 328.099C43.2816 325.993 44.4912 323.127 44.5644 320.112V318.091L22.2109 255.959V320.112Z" fill="#F7AD36"/>
<path d="M44.5503 369.634C44.5877 368.092 44.3263 366.558 43.7814 365.122C43.2366 363.686 42.4193 362.377 41.3777 361.272C40.3362 360.168 39.0914 359.29 37.7168 358.691C36.3421 358.092 34.8654 357.783 33.3736 357.783C31.8818 357.783 30.4051 358.092 29.0304 358.691C27.6558 359.29 26.411 360.168 25.3695 361.272C24.3279 362.377 23.5106 363.686 22.9658 365.122C22.4209 366.558 22.1595 368.092 22.1969 369.634V371.285C22.27 374.3 23.4797 377.166 25.5677 379.272C27.6558 381.377 30.457 382.556 33.3736 382.556C36.2902 382.556 39.0914 381.377 41.1795 379.272C43.2675 377.166 44.4772 374.3 44.5503 371.285V369.634Z" fill="#F7AD36"/>
<path d="M312.061 406.462L302.477 410.905H343.098C346.062 410.903 348.904 409.684 350.999 407.516C353.094 405.348 354.271 402.408 354.271 399.343V370.165C343.702 386.052 329.095 398.613 312.061 406.462V406.462Z" fill="#F7AD36"/>
<path d="M175.471 79.0889C175.47 80.6065 175.758 82.1093 176.319 83.5115C176.881 84.9137 177.703 86.1878 178.741 87.2608C179.779 88.3339 181.011 89.1849 182.367 89.7652C183.723 90.3455 185.176 90.6437 186.644 90.6427H262.529L249.218 67.5352H186.637C185.17 67.5352 183.717 67.8341 182.362 68.4148C181.007 68.9955 179.776 69.8467 178.739 70.9196C177.702 71.9926 176.879 73.2663 176.319 74.668C175.758 76.0698 175.47 77.572 175.471 79.0889V79.0889Z" fill="#99778C"/>
<path d="M341.34 227.507L331.918 211.154V216.106C331.919 218.855 332.868 221.514 334.595 223.604C336.323 225.694 338.714 227.078 341.34 227.507V227.507Z" fill="#99778C"/>
<path d="M199.414 387.792H197.839C194.924 387.867 192.152 389.118 190.116 391.277C188.079 393.437 186.939 396.333 186.939 399.349C186.939 402.365 188.079 405.262 190.116 407.421C192.152 409.58 194.924 410.831 197.839 410.907H199.436C200.927 410.945 202.411 410.675 203.799 410.111C205.188 409.548 206.454 408.703 207.522 407.626C208.59 406.549 209.438 405.262 210.018 403.84C210.598 402.419 210.896 400.892 210.896 399.349C210.896 397.807 210.598 396.28 210.018 394.858C209.438 393.437 208.59 392.149 207.522 391.072C206.454 389.995 205.188 389.15 203.799 388.587C202.411 388.023 200.927 387.753 199.436 387.792H199.414Z" fill="#99778C"/>
<path d="M33.3841 158.328C31.9166 158.327 30.4632 158.625 29.1072 159.206C27.7512 159.786 26.5191 160.637 25.4814 161.71C24.4437 162.783 23.6207 164.057 23.0596 165.459C22.4984 166.862 22.21 168.364 22.2109 169.882V171.532C22.2841 174.547 23.4937 177.414 25.5818 179.519C27.6699 181.625 30.471 182.804 33.3877 182.804C36.3043 182.804 39.1055 181.625 41.1935 179.519C43.2816 177.414 44.4912 174.547 44.5644 171.532V169.882C44.5644 168.364 44.2751 166.861 43.7132 165.459C43.1512 164.057 42.3276 162.783 41.2893 161.71C40.2511 160.637 39.0185 159.786 37.6621 159.206C36.3057 158.625 34.852 158.327 33.3841 158.328V158.328Z" fill="#99778C"/>
<path d="M138.771 67.5352H137.154C134.19 67.5352 131.348 68.7524 129.253 70.9192C127.158 73.0859 125.98 76.0247 125.98 79.0889C125.98 82.1532 127.158 85.0919 129.253 87.2587C131.348 89.4254 134.19 90.6427 137.154 90.6427H138.771C141.734 90.6427 144.576 89.4254 146.672 87.2587C148.767 85.0919 149.944 82.1532 149.944 79.0889C149.944 76.0247 148.767 73.0859 146.672 70.9192C144.576 68.7524 141.734 67.5352 138.771 67.5352V67.5352Z" fill="#99778C"/>
<path d="M354.275 370.165V316.803C354.202 313.788 352.992 310.922 350.904 308.816C348.816 306.71 346.015 305.532 343.098 305.532C340.181 305.532 337.38 306.71 335.292 308.816C333.204 310.922 331.994 313.788 331.921 316.803V387.791H247.31C244.394 387.866 241.623 389.117 239.586 391.276C237.55 393.435 236.41 396.332 236.41 399.348C236.41 402.364 237.55 405.261 239.586 407.42C241.623 409.579 244.394 410.83 247.31 410.905H302.48L312.064 406.463C329.098 398.614 343.705 386.053 354.275 370.165V370.165Z" fill="#99778C"/>
<path d="M33.3841 131.913C36.345 131.912 39.1841 130.694 41.2777 128.529C43.3714 126.364 44.5484 123.429 44.5503 120.367V90.6427H89.2502C92.2135 90.6427 95.0554 89.4254 97.1508 87.2587C99.2462 85.0919 100.423 82.1532 100.423 79.0889C100.423 76.0247 99.2462 73.0859 97.1508 70.9192C95.0554 68.7524 92.2135 67.5352 89.2502 67.5352H53.2414L22.2109 110.122V120.367C22.2109 121.884 22.5 123.386 23.0616 124.787C23.6232 126.189 24.4463 127.462 25.4839 128.534C26.5215 129.606 27.7533 130.457 29.1089 131.037C30.4644 131.616 31.9172 131.914 33.3841 131.913V131.913Z" fill="#99778C"/>
<path d="M33.3841 209.504C31.9166 209.503 30.4633 209.802 29.1072 210.382C27.7512 210.962 26.5191 211.813 25.4814 212.886C24.4437 213.959 23.6207 215.233 23.0596 216.636C22.4984 218.038 22.21 219.541 22.2109 221.058V255.959L44.5503 318.091V221.058C44.5503 217.995 43.3741 215.058 41.2802 212.891C39.1864 210.724 36.3462 209.506 33.3841 209.504V209.504Z" fill="#99778C"/>
<path d="M343.098 278.877C346.062 278.875 348.904 277.656 350.999 275.489C353.094 273.321 354.271 270.381 354.271 267.316V265.666C354.198 262.651 352.989 259.785 350.901 257.679C348.812 255.573 346.011 254.395 343.095 254.395C340.178 254.395 337.377 255.573 335.289 257.679C333.201 259.785 331.991 262.651 331.918 265.666V267.316C331.918 270.382 333.096 273.323 335.193 275.491C337.289 277.659 340.133 278.877 343.098 278.877Z" fill="#99778C"/>
<path d="M161.1 399.344C161.1 396.28 159.923 393.341 157.827 391.175C155.732 389.008 152.89 387.791 149.927 387.791H69.6328L72.1009 394.64C74.1294 400.269 76.6158 405.71 79.5333 410.905H149.927C151.394 410.905 152.848 410.606 154.204 410.025C155.56 409.444 156.792 408.592 157.83 407.519C158.867 406.445 159.69 405.171 160.251 403.768C160.812 402.365 161.101 400.862 161.1 399.344V399.344Z" fill="#99778C"/>
</svg>
