<svg viewBox="0 0 501 480" fill="none" xmlns="http://www.w3.org/2000/svg">
<path d="M501 240C501 265.819 475.501 287.292 467.929 310.585C460.069 334.736 467.806 367.001 453.198 387.122C438.411 407.415 405.182 409.989 384.865 424.755C364.753 439.384 352.117 470.249 327.951 478.089C304.637 485.64 276.37 468.348 250.527 468.348C224.685 468.348 196.418 485.647 173.104 478.089C148.938 470.249 136.302 439.384 116.19 424.755C95.8726 409.989 62.6439 407.415 47.8573 387.122C33.1943 367.001 40.9312 334.736 33.0706 310.585C25.5124 287.292 0 265.819 0 240C0 214.181 25.4987 192.708 33.0706 169.415C40.9312 145.264 33.1943 112.999 47.8023 92.8781C62.5889 72.5854 95.8176 70.0111 116.135 55.2447C136.247 40.6155 148.883 9.7509 173.049 1.91117C196.363 -5.64023 224.63 11.6525 250.473 11.6525C276.315 11.6525 304.583 -5.6471 327.896 1.91117C352.062 9.7509 364.698 40.6155 384.81 55.2447C405.127 70.0111 438.356 72.5854 453.143 92.8781C467.806 112.999 460.069 145.264 467.929 169.415C475.501 192.708 501 214.181 501 240Z" fill="#5448C8"/>
</svg>
