<svg width="450" height="430" viewBox="0 0 450 430" fill="none" xmlns="http://www.w3.org/2000/svg">
<path d="M3.94714 125.406C-6.1743 156.757 6.44713 196.762 37.1505 208.691C56.3003 216.15 80.5968 212.952 94.7871 227.82C107.13 240.75 105.637 261.322 101.68 278.757C95.6525 305.31 85.7537 332.669 92.5958 359.025C99.028 383.823 119.726 402.983 143.076 413.479C166.427 423.975 192.383 426.966 217.909 428.904C244.473 430.928 272.843 431.54 295.779 417.978C317.034 405.402 330.348 381.976 335.055 357.719C339.761 333.463 336.74 308.337 331.34 284.222C327.494 267.051 322.737 247.825 332.013 232.866C344.448 212.785 373.005 213.174 395.394 205.644C420.697 197.127 441.062 175.143 447.605 149.242C454.149 123.341 446.669 94.3328 428.43 74.8439C408.349 53.3559 378.481 44.6363 350.131 36.8124C318.314 28.0016 284.65 19.1757 252.768 27.7334C235.845 32.2881 219.306 41.6707 201.968 39.1555C173.238 34.9905 154.903 -0.151332 125.85 0.000490481C112.429 0.0713409 100.086 8.23939 91.7355 18.7253C84.0077 28.4469 81.6798 41.2759 74.4683 50.8509C68.6889 58.528 58.7497 62.0959 50.9258 67.4805C30.187 81.767 11.8368 101.033 3.94714 125.406Z" fill="#5448C8"/>
<path d="M323.372 77.342C321.849 77.3442 320.369 76.8285 319.177 75.8794L287.72 51.188C280.777 56.7232 273.245 61.4753 265.26 65.3581C264.461 65.7463 263.592 65.9731 262.705 66.0257C261.818 66.0783 260.929 65.9557 260.09 65.6648C259.25 65.3739 258.476 64.9205 257.811 64.3304C257.146 63.7403 256.605 63.025 256.217 62.2255C255.828 61.426 255.602 60.5579 255.549 59.6708C255.496 58.7836 255.619 57.8947 255.91 57.055C256.201 56.2152 256.654 55.4409 257.244 54.7764C257.834 54.1119 258.55 53.5701 259.349 53.182C267.944 49.001 275.943 43.6928 283.135 37.3975C284.326 36.356 285.844 35.7645 287.426 35.7257C289.007 35.6868 290.553 36.2032 291.793 37.185L327.563 65.2923C328.664 66.1652 329.467 67.3594 329.859 68.7093C330.251 70.0591 330.213 71.4975 329.75 72.8247C329.287 74.1518 328.422 75.3019 327.275 76.115C326.129 76.9282 324.758 77.3641 323.352 77.3622L323.372 77.342Z" fill="#99778C"/>
<path d="M246.456 72.3124C244.835 72.3138 243.268 71.7334 242.038 70.6766C240.809 69.6199 240.001 68.157 239.759 66.5542C239.518 64.9514 239.86 63.3152 240.723 61.9432C241.586 60.5713 242.913 59.5547 244.462 59.0785L244.558 59.0481C246.271 58.5113 248.127 58.6767 249.717 59.5081C251.308 60.3395 252.503 61.7687 253.04 63.4814C253.577 65.194 253.411 67.0498 252.58 68.6404C251.749 70.2311 250.319 71.4263 248.607 71.9632L248.45 72.0138C247.804 72.2113 247.132 72.3119 246.456 72.3124Z" fill="#99778C"/>
<path d="M212.54 77.4145C206.311 77.4138 200.092 76.9367 193.936 75.9873C192.163 75.7135 190.57 74.7463 189.51 73.2985C188.449 71.8507 188.007 70.0409 188.281 68.2672C188.555 66.4935 189.522 64.9012 190.97 63.8406C192.418 62.78 194.227 62.338 196.001 62.6118C201.477 63.4562 207.009 63.8809 212.55 63.882C218.046 63.8825 223.534 63.4647 228.967 62.632C229.845 62.4991 230.741 62.5405 231.604 62.754C232.467 62.9674 233.279 63.3486 233.994 63.8759C234.709 64.4031 235.313 65.0661 235.772 65.827C236.231 66.5878 236.536 67.4316 236.669 68.3102C236.802 69.1888 236.761 70.0849 236.547 70.9475C236.334 71.8101 235.952 72.6222 235.425 73.3374C234.898 74.0526 234.235 74.657 233.474 75.116C232.713 75.575 231.869 75.8797 230.991 76.0126C224.885 76.9458 218.717 77.4144 212.54 77.4145ZM178.486 72.2474C177.799 72.2469 177.116 72.1411 176.462 71.9337L176.366 71.9033C175.506 71.6508 174.704 71.2299 174.008 70.6652C173.313 70.1004 172.736 69.403 172.312 68.6135C171.887 67.824 171.624 66.958 171.538 66.066C171.451 65.174 171.542 64.2736 171.806 63.4171C172.071 62.5607 172.502 61.7652 173.076 61.077C173.65 60.3888 174.356 59.8215 175.151 59.408C175.946 58.9946 176.815 58.7432 177.708 58.6685C178.602 58.5939 179.501 58.6974 180.353 58.9731L180.505 59.0186C182.046 59.5049 183.363 60.5264 184.217 61.8985C185.071 63.2706 185.406 64.9029 185.161 66.5004C184.917 68.0979 184.109 69.5553 182.884 70.6093C181.659 71.6633 180.097 72.2443 178.481 72.2474H178.486Z" fill="#99778C"/>
<path d="M63.4988 173.857C62.5011 173.858 61.5154 173.639 60.6124 173.215C59.7095 172.791 58.9116 172.172 58.2761 171.402L58.1749 171.276C57.5735 170.596 57.1152 169.801 56.8274 168.94C56.5396 168.078 56.428 167.168 56.4995 166.263C56.5709 165.357 56.8239 164.476 57.2433 163.67C57.6626 162.865 58.2399 162.152 58.9405 161.574C59.6412 160.997 60.451 160.566 61.3217 160.308C62.1923 160.05 63.106 159.97 64.0083 160.072C64.9107 160.175 65.7831 160.458 66.5737 160.904C67.3643 161.351 68.0568 161.953 68.6101 162.673L68.7113 162.794C69.5293 163.783 70.0491 164.985 70.2098 166.259C70.3706 167.532 70.1657 168.825 69.6192 169.987C69.0727 171.148 68.207 172.13 67.1233 172.818C66.0395 173.506 64.7824 173.872 63.4988 173.872V173.857Z" fill="#99778C"/>
<path d="M121.158 223.585C119.363 223.585 117.64 222.871 116.37 221.601C115.101 220.331 114.387 218.609 114.387 216.813V200.73L100.657 212.076C99.2728 213.219 97.4911 213.764 95.7042 213.594C93.9173 213.423 92.2714 212.549 91.1281 211.165L71.7354 187.699C71.1341 187.018 70.6758 186.224 70.388 185.363C70.1001 184.501 69.9886 183.591 70.06 182.686C70.1315 181.78 70.3844 180.899 70.8038 180.093C71.2232 179.288 71.8004 178.575 72.5011 177.997C73.2018 177.419 74.0116 176.989 74.8822 176.731C75.7529 176.473 76.6666 176.392 77.5689 176.495C78.4712 176.597 79.3436 176.88 80.1342 177.327C80.9248 177.774 81.6174 178.375 82.1707 179.096L97.2769 197.314L116.872 181.12C117.862 180.302 119.064 179.782 120.338 179.621C121.612 179.461 122.905 179.666 124.067 180.213C125.228 180.76 126.211 181.627 126.898 182.711C127.586 183.796 127.951 185.053 127.95 186.337V216.788C127.953 217.681 127.78 218.566 127.44 219.392C127.1 220.217 126.6 220.968 125.969 221.6C125.337 222.231 124.587 222.732 123.762 223.073C122.936 223.413 122.051 223.587 121.158 223.585Z" fill="#99778C"/>
<path d="M121.158 243.143C119.363 243.143 117.641 242.43 116.372 241.161C115.102 239.893 114.388 238.172 114.387 236.377V236.225C114.435 234.462 115.169 232.787 116.433 231.557C117.697 230.327 119.392 229.639 121.155 229.639C122.919 229.639 124.613 230.327 125.878 231.557C127.142 232.787 127.876 234.462 127.924 236.225V236.377C127.923 238.171 127.21 239.891 125.941 241.16C124.672 242.428 122.952 243.142 121.158 243.143Z" fill="#99778C"/>
<path d="M121.155 322.435C120.266 322.436 119.385 322.261 118.564 321.921C117.742 321.582 116.996 321.083 116.367 320.455C115.738 319.826 115.239 319.08 114.899 318.259C114.559 317.438 114.383 316.558 114.383 315.669V315.522C114.359 314.617 114.515 313.717 114.844 312.874C115.174 312.031 115.668 311.263 116.299 310.615C116.93 309.966 117.685 309.451 118.518 309.099C119.352 308.747 120.247 308.565 121.152 308.565C122.057 308.565 122.953 308.747 123.786 309.099C124.62 309.451 125.374 309.966 126.005 310.615C126.636 311.263 127.131 312.031 127.46 312.874C127.789 313.717 127.946 314.617 127.921 315.522V315.669C127.921 317.463 127.208 319.184 125.939 320.453C124.67 321.722 122.949 322.435 121.155 322.435ZM121.155 302.875C119.36 302.875 117.638 302.162 116.368 300.894C115.099 299.625 114.385 297.904 114.383 296.109V255.79C114.359 254.885 114.515 253.985 114.844 253.142C115.174 252.299 115.668 251.531 116.299 250.883C116.93 250.234 117.685 249.719 118.518 249.367C119.352 249.015 120.247 248.833 121.152 248.833C122.057 248.833 122.953 249.015 123.786 249.367C124.62 249.719 125.374 250.234 126.005 250.883C126.636 251.531 127.131 252.299 127.46 253.142C127.789 253.985 127.946 254.885 127.921 255.79V296.109C127.919 297.903 127.206 299.623 125.938 300.892C124.669 302.16 122.949 302.874 121.155 302.875Z" fill="#99778C"/>
<path d="M151.608 372.303H121.158C119.363 372.303 117.641 371.59 116.372 370.322C115.102 369.053 114.388 367.332 114.387 365.537V335.081C114.435 333.318 115.169 331.643 116.433 330.413C117.697 329.183 119.392 328.495 121.155 328.495C122.919 328.495 124.613 329.183 125.878 330.413C127.142 331.643 127.876 333.318 127.924 335.081V358.75H151.608C153.371 358.799 155.046 359.533 156.276 360.797C157.506 362.061 158.194 363.755 158.194 365.519C158.194 367.283 157.506 368.977 156.276 370.241C155.046 371.505 153.371 372.24 151.608 372.288V372.303Z" fill="#99778C"/>
<path d="M172.063 372.304H171.906C170.143 372.255 168.469 371.521 167.239 370.257C166.009 368.993 165.32 367.299 165.32 365.535C165.32 363.771 166.009 362.077 167.239 360.813C168.469 359.549 170.143 358.814 171.906 358.766H172.063C172.968 358.741 173.868 358.898 174.711 359.227C175.554 359.556 176.322 360.051 176.971 360.682C177.619 361.313 178.134 362.067 178.486 362.901C178.838 363.735 179.02 364.63 179.02 365.535C179.02 366.44 178.838 367.335 178.486 368.169C178.134 369.002 177.619 369.757 176.971 370.388C176.322 371.019 175.554 371.514 174.711 371.843C173.868 372.172 172.968 372.328 172.063 372.304Z" fill="#99778C"/>
<path d="M255.01 372.304H254.853C253.09 372.255 251.415 371.521 250.185 370.257C248.955 368.993 248.267 367.299 248.267 365.535C248.267 363.771 248.955 362.077 250.185 360.813C251.415 359.549 253.09 358.814 254.853 358.766H255.01C256.773 358.814 258.448 359.549 259.678 360.813C260.908 362.077 261.596 363.771 261.596 365.535C261.596 367.299 260.908 368.993 259.678 370.257C258.448 371.521 256.773 372.255 255.01 372.304ZM234.549 372.304H192.378C191.474 372.328 190.574 372.172 189.731 371.843C188.888 371.514 188.119 371.019 187.471 370.388C186.823 369.757 186.307 369.002 185.955 368.169C185.603 367.335 185.422 366.44 185.422 365.535C185.422 364.63 185.603 363.735 185.955 362.901C186.307 362.067 186.823 361.313 187.471 360.682C188.119 360.051 188.888 359.556 189.731 359.227C190.574 358.898 191.474 358.741 192.378 358.766H234.549C236.312 358.814 237.987 359.549 239.217 360.813C240.447 362.077 241.135 363.771 241.135 365.535C241.135 367.299 240.447 368.993 239.217 370.257C237.987 371.521 236.312 372.255 234.549 372.304Z" fill="#99778C"/>
<path d="M305.778 372.303H275.313C273.55 372.255 271.875 371.521 270.645 370.256C269.415 368.992 268.727 367.298 268.727 365.534C268.727 363.771 269.415 362.076 270.645 360.812C271.875 359.548 273.55 358.814 275.313 358.766H298.997V335.081C299.045 333.318 299.779 331.643 301.043 330.413C302.308 329.183 304.002 328.495 305.766 328.495C307.529 328.495 309.224 329.183 310.488 330.413C311.752 331.643 312.486 333.318 312.534 335.081V365.537C312.533 367.329 311.821 369.048 310.555 370.316C309.288 371.585 307.571 372.299 305.778 372.303Z" fill="#99778C"/>
<path d="M305.776 322.688C303.981 322.686 302.26 321.973 300.991 320.703C299.722 319.433 299.01 317.712 299.01 315.917V315.77C299.058 314.007 299.792 312.332 301.056 311.102C302.321 309.872 304.015 309.184 305.778 309.184C307.542 309.184 309.236 309.872 310.501 311.102C311.765 312.332 312.499 314.007 312.547 315.77V315.917C312.547 317.712 311.834 319.435 310.564 320.705C309.294 321.974 307.572 322.688 305.776 322.688Z" fill="#99778C"/>
<path d="M305.779 303.377C303.985 303.376 302.265 302.663 300.996 301.394C299.728 300.125 299.015 298.405 299.013 296.611V256.808C299.061 255.045 299.796 253.37 301.06 252.14C302.324 250.91 304.018 250.222 305.782 250.222C307.546 250.222 309.24 250.91 310.504 252.14C311.768 253.37 312.502 255.045 312.551 256.808V296.611C312.549 298.406 311.835 300.127 310.566 301.396C309.296 302.664 307.574 303.377 305.779 303.377ZM305.779 244.414C304.89 244.416 304.009 244.242 303.186 243.902C302.364 243.563 301.616 243.065 300.987 242.436C300.357 241.808 299.857 241.062 299.516 240.24C299.175 239.419 298.999 238.538 298.998 237.648V237.496C299.046 235.733 299.781 234.058 301.045 232.828C302.309 231.598 304.003 230.91 305.767 230.91C307.531 230.91 309.225 231.598 310.489 232.828C311.753 234.058 312.487 235.733 312.535 237.496V237.648C312.534 239.441 311.822 241.159 310.556 242.428C309.289 243.696 307.572 244.41 305.779 244.414Z" fill="#99778C"/>
<path d="M305.776 225.103C303.982 225.101 302.262 224.388 300.993 223.12C299.724 221.851 299.011 220.131 299.01 218.337V187.881C299.011 186.598 299.377 185.341 300.065 184.258C300.753 183.175 301.735 182.309 302.896 181.763C304.057 181.216 305.349 181.01 306.622 181.17C307.896 181.329 309.097 181.847 310.088 182.663L327.841 197.34L342.912 179.096C343.465 178.375 344.157 177.774 344.948 177.327C345.739 176.88 346.611 176.597 347.513 176.495C348.416 176.392 349.329 176.473 350.2 176.731C351.071 176.989 351.88 177.419 352.581 177.997C353.282 178.575 353.859 179.288 354.278 180.093C354.698 180.899 354.951 181.78 355.022 182.686C355.094 183.591 354.982 184.501 354.694 185.363C354.406 186.224 353.948 187.018 353.347 187.699L333.949 211.176C333.384 211.861 332.689 212.429 331.904 212.846C331.119 213.263 330.26 213.521 329.376 213.605C328.491 213.69 327.599 213.599 326.749 213.339C325.899 213.078 325.11 212.653 324.425 212.087L312.532 202.259V218.347C312.528 220.137 311.815 221.853 310.549 223.12C309.283 224.386 307.567 225.099 305.776 225.103Z" fill="#99778C"/>
<path d="M361.574 173.857C360.292 173.853 359.038 173.484 357.957 172.795C356.876 172.105 356.014 171.123 355.47 169.962C354.926 168.802 354.722 167.51 354.884 166.238C355.045 164.967 355.565 163.767 356.382 162.779L356.488 162.658C357.041 161.937 357.734 161.336 358.525 160.889C359.315 160.442 360.188 160.159 361.09 160.057C361.992 159.954 362.906 160.035 363.777 160.293C364.647 160.551 365.457 160.982 366.158 161.559C366.858 162.137 367.436 162.85 367.855 163.655C368.274 164.461 368.527 165.342 368.599 166.248C368.67 167.153 368.559 168.063 368.271 168.925C367.983 169.786 367.525 170.58 366.923 171.261L366.817 171.387C366.181 172.162 365.381 172.786 364.474 173.213C363.567 173.641 362.577 173.86 361.574 173.857Z" fill="#99778C"/>
<path d="M375.131 157.445C373.847 157.445 372.59 157.079 371.506 156.391C370.422 155.703 369.557 154.721 369.01 153.56C368.464 152.398 368.259 151.105 368.42 149.832C368.58 148.558 369.1 147.357 369.918 146.367L384.913 128.214L355.353 103.923C354.656 103.371 354.073 102.687 353.64 101.91C353.206 101.133 352.93 100.278 352.827 99.3945C352.724 98.5108 352.796 97.6154 353.039 96.7595C353.281 95.9036 353.691 95.1039 354.243 94.4061C354.794 93.7083 355.478 93.126 356.255 92.6925C357.032 92.259 357.887 91.9828 358.771 91.8797C359.654 91.7765 360.55 91.8484 361.406 92.0913C362.262 92.3342 363.061 92.7433 363.759 93.2952L398.734 121.909C399.44 122.468 400.028 123.162 400.462 123.951C400.896 124.74 401.169 125.608 401.263 126.503C401.357 127.399 401.272 128.305 401.011 129.167C400.751 130.029 400.32 130.83 399.746 131.524L380.353 155.006C379.717 155.773 378.918 156.389 378.015 156.811C377.112 157.233 376.127 157.449 375.131 157.445Z" fill="#99778C"/>
<path d="M341.198 91.6966C339.673 91.6969 338.192 91.1795 336.998 90.2289L336.77 90.0518C336.073 89.4995 335.49 88.8152 335.057 88.038C334.624 87.2607 334.348 86.4057 334.245 85.5217C334.142 84.6378 334.214 83.7422 334.457 82.8862C334.7 82.0301 335.11 81.2304 335.662 80.5325C336.777 79.1232 338.407 78.2147 340.192 78.0069C341.076 77.904 341.972 77.9762 342.828 78.2194C343.684 78.4626 344.483 78.872 345.181 79.4242L345.409 79.6014C346.518 80.4729 347.327 81.6689 347.723 83.0224C348.12 84.376 348.084 85.8195 347.62 87.1515C347.156 88.4835 346.288 89.6374 345.137 90.4523C343.986 91.2671 342.609 91.7021 341.198 91.6966Z" fill="#99778C"/>
<path d="M101.828 77.3426C103.353 77.3448 104.834 76.8291 106.028 75.8801L137.485 51.1887C144.428 56.7238 151.96 61.4759 159.945 65.3588C161.56 66.1426 163.419 66.253 165.115 65.6655C166.811 65.078 168.205 63.8409 168.988 62.2262C169.772 60.6115 169.883 58.7516 169.295 57.0556C168.708 55.3596 167.47 53.9665 165.856 53.1826C157.248 49.0026 149.238 43.6925 142.035 37.3931C140.844 36.3516 139.326 35.7601 137.744 35.7213C136.162 35.6825 134.617 36.1988 133.376 37.1806L97.612 65.2879C96.516 66.1627 95.7188 67.3564 95.3307 68.7039C94.9426 70.0514 94.9828 71.4863 95.4457 72.81C95.9086 74.1337 96.7714 75.2809 97.9146 76.0929C99.0579 76.9049 100.425 77.3416 101.828 77.3426Z" fill="#99778C"/>
<path d="M50.0587 157.445C51.3423 157.445 52.5994 157.079 53.6831 156.391C54.7669 155.703 55.6325 154.721 56.1791 153.56C56.7256 152.398 56.9304 151.105 56.7697 149.832C56.6089 148.558 56.0892 147.357 55.2712 146.367L40.2712 128.214L69.8309 103.923C70.5287 103.371 71.111 102.687 71.5444 101.91C71.9779 101.133 72.2541 100.278 72.3573 99.3945C72.4604 98.5108 72.3885 97.6154 72.1456 96.7595C71.9027 95.9036 71.4937 95.1039 70.9417 94.4061C70.3898 93.7083 69.7058 93.126 68.9288 92.6925C68.1519 92.259 67.2971 91.9828 66.4134 91.8797C65.5297 91.7765 64.6344 91.8484 63.7785 92.0913C62.9225 92.3342 62.1228 92.7433 61.425 93.2952L26.4605 121.909C25.7553 122.468 25.1688 123.163 24.7353 123.952C24.3017 124.741 24.0299 125.609 23.9356 126.504C23.8414 127.399 23.9266 128.304 24.1864 129.166C24.4461 130.028 24.8752 130.83 25.4484 131.524L44.8461 155.006C45.4811 155.772 46.2778 156.388 47.179 156.81C48.0802 157.232 49.0636 157.449 50.0587 157.445Z" fill="#99778C"/>
<path d="M84.0143 91.695C85.5388 91.6962 87.0183 91.1786 88.2096 90.2274L88.4374 90.0503C89.8467 88.9356 90.7554 87.3067 90.9637 85.522C91.1721 83.7372 90.6629 81.9428 89.5482 80.5335C88.4335 79.1242 86.8046 78.2155 85.0199 78.0071C83.2352 77.7988 81.4408 78.308 80.0315 79.4227L79.8038 79.5998C78.703 80.4736 77.9013 81.6682 77.51 83.018C77.1187 84.3678 77.157 85.8059 77.6197 87.133C78.0825 88.46 78.9467 89.6102 80.0925 90.424C81.2383 91.2378 82.6089 91.675 84.0143 91.6748V91.695Z" fill="#99778C"/>
</svg>
