<svg width="329" height="329" viewBox="0 0 329 329" fill="none" xmlns="http://www.w3.org/2000/svg">
<path d="M28.782 113.337C22.21 133.694 30.4053 159.67 50.3415 167.415C62.7757 172.259 78.5518 170.182 87.7657 179.836C95.7803 188.232 94.8109 201.59 92.2413 212.91C88.3276 230.151 81.9002 247.916 86.3429 265.029C90.5194 281.13 103.959 293.571 119.121 300.386C134.282 307.202 151.136 309.144 167.711 310.402C184.959 311.717 203.38 312.114 218.272 303.308C232.074 295.142 240.719 279.931 243.775 264.181C246.831 248.431 244.869 232.116 241.363 216.459C238.866 205.309 235.777 192.826 241.8 183.112C249.874 170.074 268.417 170.327 282.954 165.437C299.384 159.907 312.607 145.632 316.856 128.814C321.105 111.997 316.248 93.1614 304.405 80.507C291.366 66.5547 271.972 60.8929 253.564 55.8127C232.905 50.0918 211.047 44.361 190.345 49.9176C179.356 52.875 168.618 58.9673 157.36 57.3341C138.705 54.6298 126.8 31.8118 107.935 31.9104C99.2207 31.9564 91.2062 37.26 85.7843 44.0686C80.7665 50.381 79.255 58.711 74.5724 64.9281C70.8198 69.9129 64.3661 72.2296 59.286 75.7259C45.8199 85.0023 33.9049 97.5121 28.782 113.337Z" fill="#5448C8"/>
<path d="M236.188 82.1301C235.198 82.1315 234.238 81.7966 233.464 81.1804L213.038 65.148C208.53 68.742 203.639 71.8276 198.455 74.3488C197.935 74.6008 197.372 74.7481 196.796 74.7823C196.22 74.8165 195.643 74.7368 195.097 74.548C194.552 74.3591 194.049 74.0647 193.618 73.6815C193.186 73.2983 192.835 72.8339 192.583 72.3148C192.331 71.7957 192.183 71.232 192.149 70.6559C192.115 70.0799 192.194 69.5028 192.383 68.9575C192.572 68.4122 192.867 67.9095 193.25 67.478C193.633 67.0465 194.097 66.6947 194.617 66.4427C200.197 63.728 205.391 60.2813 210.061 56.1937C210.834 55.5174 211.82 55.1333 212.847 55.1081C213.874 55.0829 214.877 55.4182 215.683 56.0557L238.909 74.3061C239.624 74.8728 240.145 75.6483 240.4 76.5248C240.654 77.4012 240.629 78.3352 240.329 79.1969C240.028 80.0587 239.467 80.8054 238.722 81.3334C237.978 81.8614 237.087 82.1444 236.175 82.1432L236.188 82.1301Z" fill="#99778C"/>
<path d="M186.244 78.8639C185.191 78.8648 184.174 78.4879 183.376 77.8018C182.577 77.1156 182.052 76.1657 181.895 75.125C181.739 74.0843 181.961 73.0219 182.521 72.1311C183.082 71.2402 183.943 70.5802 184.949 70.271L185.012 70.2512C186.124 69.9026 187.329 70.0101 188.361 70.5499C189.394 71.0897 190.17 72.0177 190.519 73.1298C190.867 74.2418 190.76 75.4468 190.22 76.4796C189.68 77.5124 188.752 78.2885 187.64 78.6371L187.538 78.67C187.119 78.7982 186.683 78.8636 186.244 78.8639Z" fill="#99778C"/>
<path d="M164.221 82.1761C160.177 82.1757 156.139 81.8659 152.142 81.2494C150.99 81.0717 149.956 80.4436 149.267 79.5036C148.579 78.5635 148.292 77.3883 148.47 76.2367C148.647 75.085 149.275 74.0511 150.215 73.3624C151.156 72.6738 152.331 72.3868 153.482 72.5646C157.038 73.1128 160.63 73.3886 164.228 73.3893C167.796 73.3897 171.36 73.1183 174.887 72.5777C175.458 72.4914 176.04 72.5183 176.6 72.6569C177.16 72.7954 177.687 73.043 178.152 73.3853C178.616 73.7277 179.008 74.1582 179.307 74.6522C179.605 75.1462 179.802 75.6941 179.889 76.2646C179.975 76.8351 179.948 77.4169 179.809 77.977C179.671 78.5371 179.423 79.0644 179.081 79.5288C178.739 79.9932 178.308 80.3857 177.814 80.6837C177.32 80.9817 176.772 81.1796 176.202 81.2659C172.237 81.8718 168.232 82.1761 164.221 82.1761ZM142.11 78.8211C141.664 78.8207 141.22 78.752 140.795 78.6174L140.733 78.5976C140.174 78.4337 139.654 78.1604 139.202 77.7937C138.75 77.427 138.376 76.9742 138.1 76.4615C137.825 75.9489 137.654 75.3866 137.598 74.8074C137.542 74.2282 137.601 73.6436 137.772 73.0875C137.944 72.5314 138.224 72.0149 138.597 71.568C138.97 71.1211 139.428 70.7528 139.944 70.4843C140.46 70.2158 141.025 70.0526 141.605 70.0042C142.185 69.9557 142.768 70.0229 143.322 70.2019L143.421 70.2315C144.421 70.5472 145.276 71.2105 145.831 72.1014C146.385 72.9923 146.603 74.0522 146.444 75.0895C146.285 76.1268 145.761 77.0731 144.965 77.7574C144.17 78.4418 143.156 78.8191 142.106 78.8211H142.11Z" fill="#99778C"/>
<path d="M67.4483 144.797C66.8005 144.798 66.1605 144.656 65.5742 144.381C64.9879 144.105 64.4698 143.703 64.0572 143.204L63.9914 143.122C63.601 142.68 63.3034 142.164 63.1165 141.605C62.9296 141.045 62.8572 140.454 62.9036 139.866C62.95 139.279 63.1142 138.706 63.3865 138.183C63.6588 137.66 64.0336 137.197 64.4886 136.822C64.9435 136.447 65.4694 136.167 66.0347 136C66.6 135.832 67.1933 135.78 67.7792 135.847C68.3651 135.913 68.9315 136.097 69.4449 136.387C69.9582 136.677 70.4079 137.068 70.7672 137.535L70.8329 137.614C71.364 138.257 71.7015 139.037 71.8059 139.864C71.9103 140.691 71.7773 141.53 71.4224 142.284C71.0675 143.039 70.5054 143.676 69.8017 144.123C69.0981 144.57 68.2818 144.807 67.4483 144.807V144.797Z" fill="#99778C"/>
<path d="M104.886 177.086C103.72 177.086 102.601 176.623 101.777 175.798C100.952 174.973 100.489 173.855 100.489 172.689V162.246L91.5742 169.613C90.675 170.355 89.5182 170.709 88.3579 170.598C87.1977 170.488 86.1289 169.92 85.3866 169.022L72.7947 153.785C72.4042 153.343 72.1066 152.827 71.9197 152.268C71.7328 151.709 71.6604 151.117 71.7068 150.53C71.7532 149.942 71.9174 149.369 72.1897 148.846C72.462 148.323 72.8368 147.86 73.2918 147.485C73.7468 147.11 74.2726 146.831 74.8379 146.663C75.4032 146.495 75.9965 146.443 76.5824 146.51C77.1683 146.576 77.7348 146.76 78.2481 147.05C78.7615 147.34 79.2111 147.731 79.5704 148.199L89.3791 160.028L102.102 149.513C102.745 148.982 103.526 148.644 104.353 148.54C105.18 148.436 106.02 148.569 106.774 148.924C107.528 149.279 108.166 149.842 108.613 150.546C109.059 151.25 109.296 152.067 109.296 152.901V172.673C109.298 173.252 109.185 173.827 108.964 174.363C108.744 174.899 108.419 175.387 108.009 175.797C107.599 176.207 107.112 176.532 106.576 176.753C106.04 176.974 105.466 177.087 104.886 177.086Z" fill="#99778C"/>
<path d="M104.886 189.786C103.72 189.786 102.602 189.323 101.778 188.499C100.954 187.676 100.49 186.558 100.489 185.393V185.294C100.52 184.149 100.997 183.062 101.818 182.263C102.639 181.464 103.739 181.018 104.884 181.018C106.029 181.018 107.129 181.464 107.95 182.263C108.771 183.062 109.248 184.149 109.279 185.294V185.393C109.278 186.558 108.815 187.675 107.991 188.498C107.168 189.322 106.051 189.785 104.886 189.786Z" fill="#99778C"/>
<path d="M104.886 241.271C104.308 241.272 103.737 241.158 103.203 240.938C102.67 240.717 102.185 240.394 101.777 239.986C101.369 239.578 101.045 239.093 100.824 238.56C100.603 238.027 100.489 237.455 100.489 236.878V236.782C100.473 236.195 100.575 235.611 100.788 235.063C101.002 234.516 101.323 234.017 101.733 233.596C102.143 233.175 102.633 232.84 103.174 232.612C103.715 232.383 104.297 232.266 104.884 232.266C105.472 232.266 106.053 232.383 106.594 232.612C107.136 232.84 107.625 233.175 108.035 233.596C108.445 234.017 108.766 234.516 108.98 235.063C109.193 235.611 109.295 236.195 109.279 236.782V236.878C109.279 238.043 108.816 239.16 107.992 239.984C107.168 240.808 106.051 241.271 104.886 241.271ZM104.886 228.571C103.72 228.571 102.602 228.108 101.778 227.284C100.953 226.46 100.49 225.343 100.489 224.177V197.998C100.473 197.411 100.575 196.826 100.788 196.279C101.002 195.731 101.323 195.233 101.733 194.812C102.143 194.39 102.633 194.056 103.174 193.827C103.715 193.599 104.297 193.481 104.884 193.481C105.472 193.481 106.053 193.599 106.594 193.827C107.136 194.056 107.625 194.39 108.035 194.812C108.445 195.233 108.766 195.731 108.98 196.279C109.193 196.826 109.295 197.411 109.279 197.998V224.177C109.278 225.342 108.815 226.459 107.991 227.283C107.168 228.107 106.051 228.57 104.886 228.571Z" fill="#99778C"/>
<path d="M124.658 273.651H104.886C103.72 273.651 102.602 273.189 101.778 272.365C100.954 271.541 100.49 270.424 100.489 269.258V249.483C100.52 248.338 100.997 247.251 101.818 246.452C102.639 245.653 103.739 245.206 104.884 245.206C106.029 245.206 107.129 245.653 107.95 246.452C108.771 247.251 109.248 248.338 109.279 249.483V264.852H124.658C125.802 264.883 126.89 265.36 127.689 266.18C128.487 267.001 128.934 268.101 128.934 269.247C128.934 270.392 128.487 271.492 127.689 272.313C126.89 273.133 125.802 273.61 124.658 273.642V273.651Z" fill="#99778C"/>
<path d="M137.943 273.651H137.841C136.696 273.62 135.609 273.143 134.81 272.322C134.011 271.502 133.565 270.402 133.565 269.256C133.565 268.111 134.011 267.011 134.81 266.19C135.609 265.369 136.696 264.893 137.841 264.861H137.943C138.53 264.845 139.115 264.947 139.662 265.161C140.209 265.374 140.708 265.695 141.129 266.105C141.55 266.515 141.885 267.005 142.114 267.546C142.342 268.087 142.46 268.669 142.46 269.256C142.46 269.844 142.342 270.425 142.114 270.967C141.885 271.508 141.55 271.998 141.129 272.407C140.708 272.817 140.209 273.138 139.662 273.352C139.115 273.566 138.53 273.667 137.943 273.651Z" fill="#99778C"/>
<path d="M191.797 273.651H191.695C190.55 273.62 189.463 273.143 188.664 272.322C187.866 271.502 187.419 270.402 187.419 269.256C187.419 268.111 187.866 267.011 188.664 266.19C189.463 265.369 190.55 264.893 191.695 264.861H191.797C192.942 264.893 194.029 265.369 194.828 266.19C195.627 267.011 196.074 268.111 196.074 269.256C196.074 270.402 195.627 271.502 194.828 272.322C194.029 273.143 192.942 273.62 191.797 273.651ZM178.512 273.651H151.13C150.542 273.667 149.958 273.566 149.411 273.352C148.863 273.138 148.364 272.817 147.943 272.407C147.522 271.998 147.188 271.508 146.959 270.967C146.731 270.425 146.613 269.844 146.613 269.256C146.613 268.669 146.731 268.087 146.959 267.546C147.188 267.005 147.522 266.515 147.943 266.105C148.364 265.695 148.863 265.374 149.411 265.161C149.958 264.947 150.542 264.845 151.13 264.861H178.512C179.657 264.893 180.744 265.369 181.543 266.19C182.341 267.011 182.788 268.111 182.788 269.256C182.788 270.402 182.341 271.502 181.543 272.322C180.744 273.143 179.657 273.62 178.512 273.651Z" fill="#99778C"/>
<path d="M224.762 273.651H204.981C203.836 273.62 202.748 273.143 201.95 272.323C201.151 271.502 200.704 270.402 200.704 269.256C200.704 268.111 201.151 267.011 201.95 266.19C202.748 265.369 203.836 264.893 204.981 264.861H220.359V249.483C220.39 248.338 220.867 247.251 221.688 246.452C222.509 245.653 223.609 245.206 224.754 245.206C225.899 245.206 226.999 245.653 227.82 246.452C228.641 247.251 229.118 248.338 229.149 249.483V269.258C229.148 270.422 228.686 271.538 227.864 272.361C227.041 273.185 225.926 273.649 224.762 273.651Z" fill="#99778C"/>
<path d="M224.762 241.435C223.597 241.435 222.479 240.971 221.655 240.147C220.832 239.322 220.369 238.204 220.369 237.039V236.943C220.4 235.799 220.877 234.711 221.698 233.913C222.519 233.114 223.619 232.667 224.764 232.667C225.909 232.667 227.009 233.114 227.83 233.913C228.651 234.711 229.128 235.799 229.159 236.943V237.039C229.159 238.205 228.696 239.323 227.871 240.148C227.047 240.972 225.928 241.435 224.762 241.435Z" fill="#99778C"/>
<path d="M224.762 228.896C223.597 228.895 222.48 228.432 221.657 227.608C220.833 226.785 220.37 225.668 220.369 224.503V198.658C220.4 197.513 220.877 196.426 221.698 195.627C222.519 194.829 223.619 194.382 224.764 194.382C225.909 194.382 227.009 194.829 227.83 195.627C228.651 196.426 229.128 197.513 229.159 198.658V224.503C229.158 225.668 228.694 226.786 227.87 227.609C227.046 228.433 225.928 228.896 224.762 228.896ZM224.762 190.611C224.185 190.612 223.612 190.499 223.078 190.278C222.545 190.058 222.059 189.735 221.65 189.327C221.241 188.919 220.917 188.434 220.695 187.901C220.474 187.367 220.359 186.795 220.359 186.217V186.119C220.39 184.974 220.867 183.887 221.688 183.088C222.509 182.289 223.609 181.842 224.754 181.842C225.899 181.842 226.999 182.289 227.82 183.088C228.641 183.887 229.118 184.974 229.149 186.119V186.217C229.148 187.381 228.686 188.497 227.864 189.321C227.041 190.144 225.926 190.608 224.762 190.611Z" fill="#99778C"/>
<path d="M224.762 178.072C223.597 178.071 222.48 177.608 221.657 176.784C220.833 175.96 220.37 174.843 220.369 173.678V153.903C220.37 153.07 220.608 152.254 221.054 151.551C221.501 150.847 222.138 150.285 222.892 149.93C223.646 149.575 224.485 149.442 225.312 149.545C226.139 149.649 226.919 149.985 227.562 150.515L239.089 160.045L248.875 148.199C249.234 147.731 249.684 147.34 250.197 147.05C250.711 146.76 251.277 146.576 251.863 146.51C252.449 146.443 253.042 146.495 253.607 146.663C254.173 146.831 254.699 147.11 255.154 147.485C255.608 147.86 255.983 148.323 256.256 148.846C256.528 149.369 256.692 149.942 256.739 150.53C256.785 151.117 256.713 151.709 256.526 152.268C256.339 152.827 256.041 153.343 255.651 153.785L243.055 169.028C242.688 169.474 242.237 169.842 241.728 170.113C241.218 170.384 240.66 170.551 240.086 170.606C239.512 170.661 238.932 170.602 238.38 170.433C237.829 170.264 237.316 169.988 236.871 169.62L229.149 163.239V173.685C229.146 174.847 228.683 175.962 227.861 176.784C227.039 177.606 225.925 178.069 224.762 178.072Z" fill="#99778C"/>
<path d="M260.994 144.797C260.161 144.795 259.347 144.556 258.645 144.108C257.943 143.66 257.383 143.022 257.03 142.269C256.677 141.515 256.545 140.676 256.65 139.851C256.755 139.025 257.092 138.246 257.622 137.604L257.691 137.526C258.051 137.058 258.5 136.667 259.014 136.377C259.527 136.087 260.093 135.903 260.679 135.837C261.265 135.77 261.858 135.822 262.424 135.99C262.989 136.158 263.515 136.437 263.97 136.812C264.425 137.187 264.8 137.65 265.072 138.173C265.344 138.696 265.509 139.269 265.555 139.857C265.601 140.444 265.529 141.036 265.342 141.595C265.155 142.154 264.858 142.67 264.467 143.112L264.398 143.194C263.985 143.697 263.466 144.102 262.877 144.38C262.288 144.657 261.645 144.8 260.994 144.797Z" fill="#99778C"/>
<path d="M269.797 134.141C268.963 134.141 268.147 133.903 267.443 133.457C266.74 133.01 266.178 132.372 265.823 131.618C265.468 130.864 265.335 130.024 265.439 129.197C265.544 128.37 265.881 127.59 266.412 126.948L276.149 115.161L256.955 99.3881C256.502 99.0297 256.124 98.5856 255.843 98.0811C255.561 97.5766 255.382 97.0216 255.315 96.4478C255.248 95.874 255.295 95.2926 255.452 94.7369C255.61 94.1811 255.876 93.6619 256.234 93.2088C256.592 92.7557 257.036 92.3776 257.541 92.0961C258.045 91.8147 258.6 91.6353 259.174 91.5684C259.748 91.5014 260.329 91.5481 260.885 91.7058C261.441 91.8635 261.96 92.1291 262.413 92.4875L285.123 111.067C285.581 111.429 285.963 111.88 286.245 112.393C286.527 112.905 286.704 113.468 286.765 114.05C286.826 114.632 286.771 115.22 286.602 115.779C286.432 116.339 286.153 116.86 285.78 117.31L273.188 132.557C272.775 133.055 272.256 133.455 271.67 133.729C271.084 134.003 270.444 134.144 269.797 134.141Z" fill="#99778C"/>
<path d="M247.764 91.4491C246.774 91.4493 245.812 91.1134 245.037 90.4962L244.889 90.3812C244.436 90.0226 244.058 89.5783 243.777 89.0736C243.495 88.5689 243.316 88.0137 243.249 87.4397C243.182 86.8658 243.229 86.2843 243.387 85.7285C243.545 85.1726 243.811 84.6533 244.169 84.2002C244.894 83.2851 245.952 82.6952 247.111 82.5603C247.685 82.4935 248.266 82.5403 248.822 82.6982C249.378 82.8561 249.897 83.122 250.35 83.4806L250.498 83.5956C251.218 84.1615 251.744 84.938 252.001 85.8169C252.258 86.6958 252.235 87.6331 251.934 88.498C251.633 89.3629 251.069 90.1121 250.322 90.6412C249.574 91.1703 248.68 91.4527 247.764 91.4491Z" fill="#99778C"/>
<path d="M92.3365 82.1301C93.3269 82.1315 94.2885 81.7966 95.0639 81.1804L115.49 65.148C119.997 68.742 124.888 71.8276 130.073 74.3488C131.121 74.8578 132.329 74.9294 133.43 74.5479C134.531 74.1665 135.436 73.3632 135.945 72.3148C136.454 71.2664 136.526 70.0587 136.144 68.9575C135.763 67.8562 134.959 66.9517 133.911 66.4427C128.322 63.7285 123.12 60.2807 118.444 56.1904C117.67 55.5141 116.685 55.1301 115.658 55.1048C114.63 55.0796 113.627 55.4149 112.821 56.0524L89.5992 74.3028C88.8876 74.8708 88.3699 75.6459 88.1179 76.5208C87.866 77.3958 87.8921 78.3275 88.1926 79.187C88.4932 80.0465 89.0534 80.7913 89.7958 81.3186C90.5381 81.8458 91.4259 82.1294 92.3365 82.1301Z" fill="#99778C"/>
<path d="M58.7207 134.141C59.5542 134.141 60.3705 133.903 61.0741 133.457C61.7778 133.01 62.3399 132.372 62.6948 131.618C63.0497 130.864 63.1827 130.024 63.0783 129.197C62.9739 128.37 62.6364 127.59 62.1053 126.948L52.3656 115.161L71.5591 99.3881C72.0122 99.0297 72.3903 98.5856 72.6717 98.0811C72.9532 97.5766 73.1326 97.0216 73.1995 96.4478C73.2665 95.874 73.2198 95.2926 73.0621 94.7369C72.9044 94.1811 72.6388 93.6619 72.2804 93.2088C71.922 92.7557 71.4779 92.3776 70.9734 92.0961C70.4689 91.8147 69.9139 91.6353 69.3401 91.5684C68.7663 91.5014 68.1849 91.5481 67.6292 91.7058C67.0734 91.8635 66.5542 92.1291 66.1011 92.4875L43.3981 111.067C42.9402 111.43 42.5594 111.881 42.2779 112.393C41.9964 112.906 41.8199 113.469 41.7587 114.05C41.6975 114.632 41.7528 115.219 41.9215 115.779C42.0901 116.339 42.3687 116.859 42.7409 117.31L55.3361 132.557C55.7484 133.054 56.2657 133.454 56.8509 133.728C57.4361 134.002 58.0746 134.143 58.7207 134.141Z" fill="#99778C"/>
<path d="M80.7698 91.4492C81.7597 91.45 82.7203 91.1139 83.4939 90.4963L83.6417 90.3813C84.5568 89.6575 85.1469 88.5999 85.2822 87.441C85.4174 86.2822 85.0868 85.117 84.363 84.202C83.6392 83.2869 82.5816 82.6968 81.4227 82.5615C80.2639 82.4263 79.0988 82.7569 78.1837 83.4807L78.0358 83.5957C77.3211 84.163 76.8006 84.9387 76.5465 85.8151C76.2924 86.6916 76.3173 87.6254 76.6177 88.4871C76.9182 89.3487 77.4793 90.0955 78.2233 90.624C78.9673 91.1524 79.8572 91.4362 80.7698 91.4361V91.4492Z" fill="#99778C"/>
</svg>
