<svg width="329" height="329" viewBox="0 0 329 329" fill="none" xmlns="http://www.w3.org/2000/svg">
<path d="M61.6736 152.463L161.027 52.4774C174.867 38.5461 198.61 45.0326 203.449 64.0629L251.214 251.938C256.768 273.782 233.107 291.421 213.756 279.861L66.6426 191.972C63.348 190.004 60.5448 187.311 58.4458 184.098C56.3468 180.886 55.007 177.237 54.5281 173.429C54.0492 169.621 54.4438 165.754 55.6818 162.122C56.9199 158.489 58.969 155.186 61.6736 152.463V152.463Z" fill="#5448C8"/>
<path d="M270.482 238.865L255.619 213.348C254.699 211.769 253.189 210.619 251.422 210.153C249.654 209.687 247.774 209.942 246.195 210.862C244.615 211.782 243.466 213.291 243 215.059C242.533 216.826 242.788 218.706 243.708 220.286L252.54 235.461H247.021L250.524 249.245H264.529C265.741 249.244 266.931 248.924 267.98 248.317C269.029 247.709 269.899 246.836 270.502 245.785C271.106 244.734 271.422 243.543 271.418 242.331C271.415 241.119 271.092 239.93 270.482 238.882V238.865Z" fill="#F7AD36"/>
<path d="M234.997 235.444C234.078 235.421 233.163 235.582 232.306 235.918C231.45 236.254 230.67 236.758 230.011 237.4C229.352 238.043 228.829 238.81 228.472 239.658C228.114 240.505 227.93 241.416 227.93 242.336C227.93 243.256 228.114 244.166 228.472 245.014C228.829 245.862 229.352 246.629 230.011 247.271C230.67 247.914 231.45 248.418 232.306 248.754C233.163 249.09 234.078 249.251 234.997 249.228H250.524L247.021 235.444H234.997Z" fill="#99778C"/>
<path d="M211.397 235.444H210.612C208.814 235.489 207.105 236.235 205.849 237.523C204.594 238.81 203.891 240.537 203.891 242.336C203.891 244.134 204.594 245.862 205.849 247.149C207.105 248.437 208.814 249.183 210.612 249.228H211.397C212.316 249.251 213.231 249.09 214.088 248.754C214.944 248.418 215.724 247.914 216.383 247.271C217.042 246.629 217.565 245.862 217.922 245.014C218.28 244.166 218.464 243.256 218.464 242.336C218.464 241.416 218.28 240.505 217.922 239.658C217.565 238.81 217.042 238.043 216.383 237.4C215.724 236.758 214.944 236.254 214.088 235.918C213.231 235.582 212.316 235.421 211.397 235.444V235.444Z" fill="#99778C"/>
<path d="M116.228 235.444H115.439C113.641 235.489 111.932 236.235 110.676 237.522C109.42 238.81 108.718 240.537 108.718 242.336C108.718 244.134 109.42 245.861 110.676 247.149C111.932 248.437 113.641 249.182 115.439 249.228H116.228C118.026 249.182 119.735 248.437 120.991 247.149C122.246 245.861 122.949 244.134 122.949 242.336C122.949 240.537 122.246 238.81 120.991 237.522C119.735 236.235 118.026 235.489 116.228 235.444V235.444Z" fill="#F7AD36"/>
<path d="M132.93 242.334C132.93 244.162 133.656 245.916 134.949 247.208C136.242 248.501 137.996 249.228 139.824 249.228H162.479L139.442 235.461C137.684 235.557 136.029 236.322 134.817 237.6C133.606 238.879 132.931 240.573 132.93 242.334V242.334Z" fill="#F7AD36"/>
<path d="M193.906 242.333C193.906 240.506 193.18 238.754 191.888 237.462C190.596 236.17 188.843 235.444 187.016 235.444H139.824C139.694 235.444 139.568 235.444 139.442 235.444L162.479 249.21H187.016C188.841 249.21 190.591 248.486 191.883 247.197C193.175 245.908 193.902 244.159 193.906 242.333V242.333Z" fill="#99778C"/>
<path d="M91.8428 235.444H74.2997L83.1276 220.268C83.5831 219.486 83.8802 218.623 84.0019 217.726C84.1236 216.829 84.0674 215.918 83.8367 215.043C83.606 214.168 83.2053 213.347 82.6573 212.627C82.1093 211.907 81.4249 211.302 80.6432 210.846C79.8614 210.391 78.9975 210.094 78.1009 209.972C77.2043 209.85 76.2925 209.906 75.4176 210.137C74.5427 210.368 73.7218 210.769 73.0018 211.317C72.2818 211.865 71.6767 212.549 71.2212 213.331L56.3577 238.865C55.748 239.912 55.4251 241.102 55.4216 242.314C55.418 243.526 55.7341 244.717 56.3377 245.768C56.9414 246.819 57.8114 247.692 58.8601 248.299C59.9088 248.907 61.099 249.227 62.3109 249.228H91.8428C93.6407 249.183 95.3499 248.437 96.6055 247.149C97.8612 245.862 98.564 244.134 98.564 242.336C98.564 240.537 97.8612 238.81 96.6055 237.522C95.3499 236.235 93.6407 235.489 91.8428 235.444V235.444Z" fill="#F7AD36"/>
<path d="M92.801 189.986C92.0192 189.531 91.1554 189.234 90.2588 189.112C89.3622 188.99 88.4504 189.046 87.5755 189.277C86.7006 189.508 85.8797 189.909 85.1596 190.457C84.4396 191.005 83.8346 191.689 83.3791 192.471L82.9889 193.143C82.5333 193.925 82.2363 194.789 82.1146 195.685C81.9929 196.582 82.0491 197.494 82.2798 198.368C82.5105 199.243 82.9112 200.064 83.4592 200.784C84.0071 201.504 84.6915 202.109 85.4733 202.565C86.2551 203.02 87.119 203.317 88.0156 203.439C88.9122 203.561 89.8239 203.505 90.6989 203.274C92.4658 202.808 93.9753 201.659 94.8953 200.08L95.2855 199.404C95.741 198.623 96.038 197.759 96.1596 196.863C96.2812 195.966 96.2251 195.055 95.9944 194.18C95.7637 193.306 95.3629 192.485 94.815 191.766C94.267 191.046 93.5827 190.441 92.801 189.986V189.986Z" fill="#99778C"/>
<path d="M128.1 129.379C127.318 128.923 126.454 128.625 125.557 128.503C124.661 128.381 123.749 128.437 122.874 128.668C121.999 128.899 121.178 129.3 120.458 129.848C119.738 130.396 119.133 131.081 118.678 131.863L95.1424 172.27C94.6869 173.052 94.3899 173.916 94.2683 174.813C94.1468 175.71 94.2031 176.622 94.434 177.497C94.6649 178.372 95.0659 179.193 95.6141 179.913C96.1623 180.633 96.847 181.238 97.6291 181.694C98.4111 182.149 99.2753 182.446 100.172 182.568C101.069 182.69 101.981 182.633 102.856 182.402C103.731 182.171 104.552 181.77 105.272 181.222C105.993 180.674 106.598 179.989 107.053 179.207L130.584 138.805C131.04 138.023 131.338 137.159 131.46 136.262C131.582 135.365 131.526 134.453 131.295 133.577C131.065 132.702 130.664 131.88 130.115 131.16C129.567 130.44 128.882 129.834 128.1 129.379V129.379Z" fill="#99778C"/>
<path d="M140.258 108.502C138.679 107.581 136.8 107.325 135.033 107.791C133.266 108.256 131.756 109.404 130.836 110.982L130.441 111.654C129.986 112.436 129.689 113.3 129.567 114.197C129.445 115.094 129.502 116.006 129.733 116.881C129.963 117.756 130.365 118.577 130.913 119.297C131.461 120.017 132.146 120.622 132.928 121.078C133.71 121.533 134.574 121.831 135.471 121.952C136.368 122.074 137.28 122.017 138.155 121.786C139.03 121.556 139.851 121.155 140.571 120.606C141.291 120.058 141.896 119.373 142.352 118.591L142.746 117.919C143.663 116.34 143.917 114.461 143.45 112.696C142.983 110.93 141.835 109.422 140.258 108.502V108.502Z" fill="#99778C"/>
<path d="M184.237 90.7851L169.373 65.2639C168.767 64.2228 167.898 63.359 166.853 62.7586C165.809 62.1582 164.625 61.8423 163.42 61.8423C162.215 61.8423 161.031 62.1582 159.987 62.7586C158.942 63.359 158.073 64.2228 157.467 65.2639L142.603 90.7851C141.683 92.3639 141.428 94.2436 141.894 96.0106C142.36 97.7775 143.509 99.287 145.088 100.207C146.667 101.127 148.546 101.382 150.313 100.916C152.08 100.45 153.59 99.3014 154.51 97.7225L163.42 82.4254L172.326 97.7225C173.246 99.302 174.756 100.451 176.523 100.918C178.29 101.384 180.171 101.129 181.75 100.209C183.33 99.2892 184.479 97.7795 184.945 96.0121C185.411 94.2447 185.157 92.3645 184.237 90.7851V90.7851Z" fill="#99778C"/>
<path d="M196.408 111.658L196.013 110.986C195.093 109.407 193.584 108.258 191.817 107.792C190.05 107.326 188.17 107.581 186.591 108.501C185.012 109.421 183.863 110.931 183.398 112.698C182.932 114.465 183.187 116.344 184.107 117.923L184.501 118.595C184.957 119.377 185.562 120.062 186.282 120.61C187.002 121.158 187.823 121.558 188.698 121.789C189.572 122.02 190.484 122.076 191.381 121.954C192.277 121.833 193.141 121.535 193.923 121.08C194.705 120.624 195.389 120.019 195.937 119.299C196.485 118.579 196.886 117.758 197.117 116.883C197.347 116.009 197.404 115.097 197.282 114.2C197.16 113.304 196.863 112.44 196.408 111.658V111.658Z" fill="#99778C"/>
<path d="M231.693 172.27L230.392 170.028L232.344 177.698C232.613 176.797 232.694 175.85 232.582 174.917C232.47 173.983 232.168 173.082 231.693 172.27V172.27Z" fill="#99778C"/>
<path d="M241.362 202.569C242.942 201.65 244.092 200.141 244.559 198.374C245.027 196.607 244.774 194.727 243.855 193.147L243.461 192.471C242.663 191.101 241.416 190.048 239.932 189.489C238.448 188.931 236.817 188.901 235.314 189.405L238.899 203.428C239.768 203.302 240.604 203.011 241.362 202.569V202.569Z" fill="#F7AD36"/>
<path d="M198.74 129.379C197.958 129.834 197.272 130.438 196.724 131.158C196.175 131.878 195.774 132.699 195.542 133.574C195.311 134.449 195.255 135.361 195.377 136.258C195.498 137.155 195.796 138.019 196.251 138.801L219.787 179.203C220.459 180.373 221.461 181.32 222.667 181.926C223.873 182.531 225.231 182.769 226.571 182.608C227.912 182.448 229.175 181.897 230.204 181.024C231.234 180.151 231.984 178.994 232.361 177.698L230.41 170.028L208.184 131.872C207.73 131.086 207.124 130.398 206.403 129.847C205.682 129.296 204.858 128.893 203.981 128.661C203.103 128.429 202.188 128.374 201.289 128.497C200.389 128.62 199.523 128.92 198.74 129.379V129.379Z" fill="#99778C"/>
<path d="M231.55 199.404L231.945 200.08C232.55 201.123 233.42 201.989 234.465 202.59C235.511 203.191 236.696 203.507 237.902 203.506C238.23 203.503 238.558 203.477 238.882 203.428L235.314 189.405C234.871 189.555 234.444 189.748 234.039 189.982C232.46 190.902 231.311 192.411 230.844 194.178C230.378 195.945 230.632 197.824 231.55 199.404V199.404Z" fill="#99778C"/>
</svg>
