<svg width="413" height="456" viewBox="0 0 413 456" fill="none" xmlns="http://www.w3.org/2000/svg">
<path d="M14.497 205.547L204.248 14.5865C230.681 -12.0204 276.028 0.368006 285.27 36.7134L376.494 395.53C387.102 437.25 341.912 470.937 304.954 448.86L23.9871 281.004C17.6947 277.244 12.3411 272.102 8.33223 265.966C4.32337 259.829 1.76459 252.861 0.849953 245.588C-0.064682 238.316 0.688856 230.931 3.05342 223.993C5.41798 217.055 9.33146 210.747 14.497 205.547Z" fill="#5448C8"/>
<path d="M411.211 369.58L382.824 320.846C381.067 317.829 378.183 315.634 374.808 314.744C371.433 313.853 367.842 314.34 364.825 316.097C361.808 317.854 359.613 320.737 358.723 324.113C357.832 327.488 358.319 331.079 360.076 334.096L376.944 363.079H366.402L373.094 389.405H399.841C402.156 389.403 404.429 388.791 406.432 387.631C408.435 386.471 410.096 384.804 411.249 382.797C412.402 380.79 413.006 378.514 412.999 376.2C412.992 373.885 412.376 371.613 411.211 369.613V369.58Z" fill="#F7AD36"/>
<path d="M343.438 363.046C341.682 363.002 339.935 363.31 338.299 363.952C336.664 364.593 335.173 365.556 333.915 366.782C332.658 368.009 331.658 369.475 330.975 371.094C330.293 372.713 329.941 374.452 329.941 376.209C329.941 377.966 330.293 379.705 330.975 381.324C331.658 382.943 332.658 384.409 333.915 385.635C335.173 386.862 336.664 387.824 338.299 388.466C339.935 389.108 341.682 389.416 343.438 389.372H373.093L366.402 363.046H343.438Z" fill="#99778C"/>
<path d="M298.367 363.046H296.868C293.434 363.132 290.17 364.557 287.772 367.016C285.374 369.475 284.031 372.774 284.031 376.209C284.031 379.644 285.374 382.943 287.772 385.402C290.17 387.861 293.434 389.285 296.868 389.372H298.367C300.123 389.416 301.87 389.108 303.506 388.466C305.141 387.824 306.632 386.862 307.89 385.635C309.148 384.409 310.147 382.943 310.83 381.324C311.512 379.705 311.864 377.966 311.864 376.209C311.864 374.452 311.512 372.713 310.83 371.094C310.147 369.475 309.148 368.009 307.89 366.782C306.632 365.556 305.141 364.593 303.506 363.952C301.87 363.31 300.123 363.002 298.367 363.046Z" fill="#99778C"/>
<path d="M116.607 363.046H115.1C111.667 363.132 108.402 364.557 106.004 367.016C103.606 369.475 102.264 372.774 102.264 376.209C102.264 379.643 103.606 382.942 106.004 385.401C108.402 387.861 111.667 389.285 115.1 389.371H116.607C120.041 389.285 123.305 387.861 125.704 385.401C128.102 382.942 129.444 379.643 129.444 376.209C129.444 372.774 128.102 369.475 125.704 367.016C123.305 364.557 120.041 363.132 116.607 363.046Z" fill="#F7AD36"/>
<path d="M148.502 376.205C148.502 379.697 149.889 383.046 152.358 385.515C154.828 387.984 158.177 389.371 161.669 389.371H204.937L160.94 363.079C157.582 363.261 154.421 364.723 152.107 367.165C149.793 369.606 148.503 372.841 148.502 376.205Z" fill="#F7AD36"/>
<path d="M264.959 376.204C264.959 372.715 263.573 369.368 261.105 366.9C258.638 364.432 255.291 363.046 251.801 363.046H161.67C161.422 363.046 161.182 363.046 160.941 363.046L204.938 389.338H251.801C255.286 389.338 258.629 387.955 261.096 385.493C263.563 383.031 264.953 379.69 264.959 376.204Z" fill="#99778C"/>
<path d="M70.0326 363.046H36.5276L53.3877 334.063C54.2577 332.57 54.8251 330.92 55.0575 329.207C55.2898 327.495 55.1826 325.754 54.742 324.083C54.3014 322.412 53.536 320.844 52.4895 319.469C51.4429 318.094 50.1358 316.938 48.6427 316.068C47.1496 315.198 45.4997 314.631 43.7874 314.398C42.075 314.166 40.3336 314.273 38.6626 314.714C36.9917 315.154 35.4239 315.92 34.0487 316.966C32.6736 318.013 31.518 319.32 30.648 320.813L2.26068 369.58C1.09612 371.58 0.479415 373.852 0.472711 376.167C0.466008 378.481 1.06954 380.757 2.2225 382.764C3.37545 384.771 5.03707 386.438 7.0399 387.598C9.04272 388.758 11.316 389.37 13.6305 389.372H70.0326C73.4664 389.286 76.7306 387.861 79.1288 385.402C81.5269 382.943 82.8692 379.644 82.8692 376.209C82.8692 372.774 81.5269 369.475 79.1288 367.016C76.7306 364.557 73.4664 363.132 70.0326 363.046Z" fill="#F7AD36"/>
<path d="M71.8632 276.23C70.3701 275.36 68.7203 274.792 67.0079 274.56C65.2955 274.328 63.554 274.435 61.8831 274.875C60.2121 275.316 58.6443 276.081 57.2691 277.128C55.894 278.175 54.7385 279.482 53.8685 280.975L53.1232 282.258C52.2533 283.752 51.6859 285.401 51.4535 287.114C51.2211 288.826 51.3283 290.568 51.7689 292.239C52.2096 293.909 52.975 295.477 54.0215 296.852C55.068 298.228 56.3751 299.383 57.8683 300.253C59.3614 301.123 61.0112 301.69 62.7236 301.923C64.436 302.155 66.1774 302.048 67.8483 301.607C71.223 300.718 74.1059 298.524 75.8629 295.508L76.6082 294.216C77.4781 292.724 78.0454 291.075 78.2777 289.363C78.51 287.651 78.4027 285.91 77.9621 284.24C77.5214 282.57 76.756 281.003 75.7095 279.628C74.6631 278.254 73.3561 277.099 71.8632 276.23Z" fill="#99778C"/>
<path d="M139.28 160.476C137.787 159.605 136.137 159.037 134.424 158.804C132.712 158.571 130.97 158.678 129.299 159.118C127.627 159.559 126.059 160.325 124.684 161.372C123.309 162.419 122.154 163.727 121.285 165.221L76.3356 242.392C75.4656 243.886 74.8983 245.536 74.6661 247.249C74.434 248.962 74.5415 250.704 74.9825 252.375C75.4235 254.046 76.1893 255.614 77.2364 256.99C78.2834 258.365 79.5911 259.521 81.0847 260.391C82.5784 261.261 84.2287 261.828 85.9416 262.06C87.6545 262.292 89.3964 262.185 91.0677 261.744C92.7391 261.303 94.3072 260.537 95.6825 259.49C97.0579 258.443 98.2135 257.135 99.0835 255.642L144.025 178.479C144.896 176.986 145.464 175.335 145.698 173.622C145.931 171.909 145.824 170.166 145.383 168.494C144.942 166.822 144.177 165.254 143.129 163.878C142.082 162.502 140.774 161.346 139.28 160.476Z" fill="#99778C"/>
<path d="M162.498 120.604C159.483 118.846 155.894 118.357 152.52 119.246C149.145 120.134 146.261 122.326 144.503 125.34L143.75 126.624C142.88 128.118 142.312 129.768 142.08 131.481C141.848 133.194 141.956 134.936 142.397 136.607C142.838 138.278 143.603 139.846 144.65 141.222C145.697 142.597 147.005 143.753 148.499 144.623C149.992 145.493 151.643 146.06 153.356 146.292C155.069 146.524 156.81 146.417 158.482 145.976C160.153 145.535 161.721 144.769 163.097 143.722C164.472 142.675 165.628 141.367 166.498 139.874L167.251 138.59C169.003 135.574 169.486 131.986 168.595 128.614C167.704 125.241 165.511 122.361 162.498 120.604Z" fill="#99778C"/>
<path d="M246.493 86.7671L218.106 38.025C216.947 36.0367 215.288 34.387 213.293 33.2403C211.298 32.0937 209.037 31.4902 206.736 31.4902C204.435 31.4902 202.174 32.0937 200.179 33.2403C198.184 34.387 196.524 36.0367 195.366 38.025L166.979 86.7671C165.222 89.7826 164.735 93.3725 165.624 96.7472C166.514 100.122 168.708 103.005 171.724 104.762C174.739 106.519 178.329 107.006 181.704 106.116C185.078 105.226 187.961 103.032 189.718 100.017L206.736 70.8013L223.745 100.017C225.502 103.033 228.386 105.228 231.761 106.119C235.136 107.01 238.727 106.523 241.744 104.766C244.761 103.009 246.956 100.126 247.846 96.7501C248.737 93.3747 248.25 89.7837 246.493 86.7671Z" fill="#99778C"/>
<path d="M269.738 126.631L268.984 125.348C267.227 122.332 264.344 120.138 260.969 119.248C257.595 118.359 254.005 118.846 250.989 120.603C247.974 122.36 245.78 125.243 244.89 128.617C244 131.992 244.487 135.582 246.244 138.597L246.998 139.881C247.868 141.374 249.023 142.681 250.399 143.728C251.774 144.774 253.342 145.54 255.013 145.98C256.683 146.421 258.425 146.528 260.137 146.296C261.85 146.063 263.499 145.496 264.993 144.626C266.486 143.756 267.793 142.6 268.839 141.225C269.886 139.85 270.651 138.282 271.092 136.611C271.533 134.94 271.64 133.199 271.407 131.487C271.175 129.774 270.608 128.124 269.738 126.631Z" fill="#99778C"/>
<path d="M337.131 242.393L334.646 238.111L338.373 252.76C338.887 251.039 339.042 249.231 338.829 247.448C338.615 245.664 338.037 243.943 337.131 242.393Z" fill="#99778C"/>
<path d="M355.597 300.26C358.614 298.504 360.81 295.623 361.703 292.249C362.596 288.874 362.112 285.284 360.359 282.266L359.605 280.974C358.08 278.357 355.7 276.346 352.866 275.28C350.032 274.214 346.916 274.157 344.045 275.119L350.893 301.9C352.552 301.661 354.149 301.104 355.597 300.26Z" fill="#F7AD36"/>
<path d="M274.192 160.476C272.697 161.345 271.389 162.499 270.341 163.874C269.293 165.249 268.526 166.817 268.085 168.488C267.643 170.159 267.535 171.901 267.768 173.614C268 175.327 268.568 176.978 269.439 178.471L314.388 255.634C315.672 257.869 317.585 259.678 319.889 260.834C322.193 261.99 324.786 262.444 327.346 262.137C329.905 261.831 332.319 260.779 334.285 259.111C336.251 257.444 337.683 255.235 338.403 252.76L334.677 238.111L292.228 165.238C291.36 163.737 290.204 162.423 288.827 161.37C287.449 160.318 285.877 159.548 284.201 159.106C282.524 158.663 280.777 158.556 279.059 158.792C277.342 159.027 275.688 159.599 274.192 160.476Z" fill="#99778C"/>
<path d="M336.855 294.215L337.608 295.507C338.765 297.499 340.425 299.151 342.422 300.3C344.419 301.448 346.683 302.051 348.986 302.049C349.613 302.044 350.238 301.994 350.858 301.9L344.043 275.119C343.197 275.405 342.381 275.774 341.608 276.22C338.593 277.977 336.398 280.859 335.507 284.234C334.616 287.608 335.1 291.198 336.855 294.215Z" fill="#99778C"/>
</svg>
