<svg viewBox="0 0 6 510" fill="none" xmlns="http://www.w3.org/2000/svg">
<path d="M5.99572 237.773L5.99572 259.014C5.99572 260.544 4.65572 261.787 3.00015 261.787C1.34458 261.787 1.80526e-07 260.548 4.04187e-07 259.014L3.50093e-06 237.773C3.72397e-06 236.243 1.34001 235 3.00015 235C4.66029 235 5.99573 236.243 5.99572 237.773Z" fill="#8D85DA"/>
<path d="M5.99572 272.036L5.99572 271.943C5.99572 270.413 4.66029 269.174 3.00015 269.174C1.34001 269.174 6.40792e-07 270.413 4.17747e-07 271.943L4.04194e-07 272.036C1.8115e-07 273.566 1.34458 274.808 3.00015 274.808C4.65572 274.808 5.99572 273.566 5.99572 272.036Z" fill="#8D85DA"/>
<path d="M5.99572 306.206L5.99572 284.964C5.99573 283.434 4.66029 282.191 3.00015 282.191C1.34001 282.191 3.72397e-06 283.434 3.50093e-06 284.964L4.04187e-07 306.206C1.80526e-07 307.74 1.34458 308.978 3.00015 308.978C4.65572 308.978 5.99572 307.736 5.99572 306.206Z" fill="#8D85DA"/>
<path d="M5.99572 319.227L5.99572 319.134C5.99572 317.604 4.66029 316.362 3.00015 316.362C1.34001 316.362 6.40791e-07 317.604 4.17747e-07 319.134L4.04194e-07 319.227C1.8115e-07 320.757 1.34458 322 3.00015 322C4.65572 322 5.99572 320.757 5.99572 319.227Z" fill="#8D85DA"/>
<path d="M5.99572 331.773L5.99572 353.014C5.99572 354.544 4.65572 355.787 3.00015 355.787C1.34458 355.787 1.80526e-07 354.548 4.04187e-07 353.014L3.50093e-06 331.773C3.72397e-06 330.243 1.34001 329 3.00015 329C4.66029 329 5.99572 330.243 5.99572 331.773Z" fill="#8D85DA"/>
<path d="M5.99572 366.036L5.99572 365.943C5.99572 364.413 4.66029 363.175 3.00015 363.175C1.34001 363.175 6.40792e-07 364.413 4.17747e-07 365.943L4.04194e-07 366.036C1.8115e-07 367.566 1.34458 368.808 3.00015 368.808C4.65572 368.808 5.99572 367.566 5.99572 366.036Z" fill="#8D85DA"/>
<path d="M5.99572 400.206L5.99572 378.964C5.99573 377.434 4.66029 376.192 3.00015 376.192C1.34001 376.192 3.72397e-06 377.434 3.50093e-06 378.964L4.04187e-07 400.206C1.80526e-07 401.74 1.34458 402.978 3.00015 402.978C4.65572 402.978 5.99572 401.736 5.99572 400.206Z" fill="#8D85DA"/>
<path d="M5.99572 413.227L5.99572 413.134C5.99572 411.604 4.66029 410.362 3.00015 410.362C1.34001 410.362 6.40791e-07 411.604 4.17747e-07 413.134L4.04194e-07 413.227C1.8115e-07 414.757 1.34458 416 3.00015 416C4.65572 416 5.99572 414.757 5.99572 413.227Z" fill="#8D85DA"/>
<path d="M5.99572 425.773L5.99572 447.014C5.99572 448.544 4.65572 449.787 3.00015 449.787C1.34458 449.787 1.80526e-07 448.549 4.04187e-07 447.014L3.50093e-06 425.773C3.72397e-06 424.243 1.34001 423 3.00015 423C4.66029 423 5.99573 424.243 5.99572 425.773Z" fill="#8D85DA"/>
<path d="M5.99572 460.036L5.99572 459.943C5.99572 458.413 4.66029 457.175 3.00015 457.175C1.34001 457.175 6.40792e-07 458.413 4.17747e-07 459.943L4.04194e-07 460.036C1.8115e-07 461.566 1.34458 462.808 3.00015 462.808C4.65572 462.808 5.99572 461.566 5.99572 460.036Z" fill="#8D85DA"/>
<path d="M5.99572 494.206L5.99572 472.964C5.99572 471.434 4.66029 470.192 3.00015 470.192C1.34001 470.192 3.72397e-06 471.434 3.50093e-06 472.964L4.04186e-07 494.206C1.80526e-07 495.74 1.34458 496.978 3.00015 496.978C4.65572 496.978 5.99572 495.736 5.99572 494.206Z" fill="#8D85DA"/>
<path d="M5.99572 507.227L5.99572 507.134C5.99572 505.604 4.66029 504.362 3.00015 504.362C1.34001 504.362 6.40792e-07 505.604 4.17747e-07 507.134L4.04194e-07 507.227C1.8115e-07 508.757 1.34458 510 3.00015 510C4.65572 510 5.99572 508.757 5.99572 507.227Z" fill="#8D85DA"/>
<path d="M5.99572 2.77253L5.99572 24.0142C5.99572 25.5441 4.65572 26.7866 3.00015 26.7866C1.34458 26.7866 1.80526e-07 25.5483 4.04187e-07 24.0142L3.50093e-06 2.77253C3.72397e-06 1.24259 1.34001 2.30284e-05 3.00015 2.32245e-05C4.66029 2.34206e-05 5.99573 1.24259 5.99572 2.77253Z" fill="#8D85DA"/>
<path d="M5.99572 37.0356L5.99572 36.9426C5.99572 35.4127 4.66029 34.1744 3.00015 34.1744C1.34001 34.1744 6.40791e-07 35.4127 4.17747e-07 36.9426L4.04194e-07 37.0356C1.8115e-07 38.5655 1.34458 39.8081 3.00015 39.8081C4.65572 39.8081 5.99572 38.5655 5.99572 37.0356Z" fill="#8D85DA"/>
<path d="M5.99572 71.2056L5.99572 49.9639C5.99572 48.434 4.66029 47.1914 3.00015 47.1914C1.34001 47.1914 3.72397e-06 48.434 3.50093e-06 49.9639L4.04186e-07 71.2056C1.80526e-07 72.7397 1.34458 73.978 3.00015 73.978C4.65572 73.978 5.99572 72.7355 5.99572 71.2056Z" fill="#8D85DA"/>
<path d="M5.99572 84.227L5.99572 84.134C5.99572 82.6041 4.66029 81.3615 3.00015 81.3615C1.34001 81.3615 6.40792e-07 82.6041 4.17747e-07 84.134L4.04194e-07 84.227C1.8115e-07 85.7569 1.34458 86.9995 3.00015 86.9995C4.65572 86.9995 5.99572 85.7569 5.99572 84.227Z" fill="#8D85DA"/>
<path d="M5.99572 96.7725L5.99572 118.014C5.99572 119.544 4.65572 120.787 3.00015 120.787C1.34458 120.787 1.80526e-07 119.548 4.04187e-07 118.014L3.50093e-06 96.7725C3.72397e-06 95.2426 1.34001 94 3.00015 94C4.66029 94 5.99573 95.2426 5.99572 96.7725Z" fill="#8D85DA"/>
<path d="M5.99572 131.036L5.99572 130.943C5.99572 129.413 4.66029 128.174 3.00015 128.174C1.34001 128.174 6.40792e-07 129.413 4.17747e-07 130.943L4.04194e-07 131.036C1.8115e-07 132.566 1.34458 133.808 3.00015 133.808C4.65572 133.808 5.99572 132.566 5.99572 131.036Z" fill="#8D85DA"/>
<path d="M5.99572 165.206L5.99572 143.964C5.99573 142.434 4.66029 141.191 3.00015 141.191C1.34001 141.191 3.72397e-06 142.434 3.50093e-06 143.964L4.04187e-07 165.206C1.80526e-07 166.74 1.34458 167.978 3.00015 167.978C4.65572 167.978 5.99572 166.736 5.99572 165.206Z" fill="#8D85DA"/>
<path d="M5.99572 178.227L5.99572 178.134C5.99572 176.604 4.66029 175.362 3.00015 175.362C1.34001 175.362 6.40791e-07 176.604 4.17747e-07 178.134L4.04194e-07 178.227C1.8115e-07 179.757 1.34458 181 3.00015 181C4.65572 181 5.99572 179.757 5.99572 178.227Z" fill="#8D85DA"/>
<path d="M5.99572 190.773L5.99572 212.014C5.99572 213.544 4.65572 214.787 3.00015 214.787C1.34458 214.787 1.80526e-07 213.548 4.04187e-07 212.014L3.50093e-06 190.773C3.72397e-06 189.243 1.34001 188 3.00015 188C4.66029 188 5.99572 189.243 5.99572 190.773Z" fill="#8D85DA"/>
<path d="M5.99572 225.036L5.99572 224.943C5.99572 223.413 4.66029 222.174 3.00015 222.174C1.34001 222.174 6.40792e-07 223.413 4.17747e-07 224.943L4.04194e-07 225.036C1.8115e-07 226.566 1.34458 227.808 3.00015 227.808C4.65572 227.808 5.99572 226.566 5.99572 225.036Z" fill="#8D85DA"/>
</svg>
