<svg fill="#8D85DA" viewBox="0 0 6 1074" xmlns="http://www.w3.org/2000/svg">
<path d="M5.54074 237.773L5.54074 259.014C5.54074 260.544 4.30242 261.787 2.77248 261.787C1.24255 261.787 1.62382e-07 260.548 3.63564e-07 259.014L3.14907e-06 237.773C3.34969e-06 236.243 1.23832 235 2.77249 235C4.30665 235 5.54074 236.243 5.54074 237.773Z" />
<path d="M5.54074 272.036L5.54074 271.943C5.54074 270.413 4.30665 269.174 2.77248 269.174C1.23832 269.174 5.76389e-07 270.413 3.75762e-07 271.943L3.6357e-07 272.036C1.62943e-07 273.566 1.24255 274.808 2.77248 274.808C4.30242 274.808 5.54074 273.566 5.54074 272.036Z" />
<path d="M5.54074 306.206L5.54074 284.964C5.54074 283.434 4.30665 282.191 2.77249 282.191C1.23832 282.191 3.34969e-06 283.434 3.14907e-06 284.964L3.63564e-07 306.206C1.62382e-07 307.74 1.24255 308.978 2.77248 308.978C4.30242 308.978 5.54074 307.736 5.54074 306.206Z" />
<path d="M5.54074 319.227L5.54074 319.134C5.54074 317.604 4.30665 316.362 2.77248 316.362C1.23832 316.362 5.76389e-07 317.604 3.75762e-07 319.134L3.6357e-07 319.227C1.62943e-07 320.757 1.24255 322 2.77248 322C4.30242 322 5.54074 320.757 5.54074 319.227Z" />
<path d="M5.54074 331.773L5.54074 353.014C5.54074 354.544 4.30242 355.787 2.77248 355.787C1.24255 355.787 1.62382e-07 354.548 3.63564e-07 353.014L3.14907e-06 331.773C3.34969e-06 330.243 1.23832 329 2.77249 329C4.30665 329 5.54074 330.243 5.54074 331.773Z" />
<path d="M5.54074 366.036L5.54074 365.943C5.54074 364.413 4.30665 363.174 2.77248 363.174C1.23832 363.174 5.76389e-07 364.413 3.75762e-07 365.943L3.6357e-07 366.036C1.62943e-07 367.566 1.24255 368.808 2.77248 368.808C4.30242 368.808 5.54074 367.566 5.54074 366.036Z" />
<path d="M5.54074 400.206L5.54074 378.964C5.54074 377.434 4.30665 376.191 2.77249 376.191C1.23832 376.191 3.34969e-06 377.434 3.14907e-06 378.964L3.63564e-07 400.206C1.62382e-07 401.74 1.24255 402.978 2.77248 402.978C4.30242 402.978 5.54074 401.736 5.54074 400.206Z" />
<path d="M5.54074 413.227L5.54074 413.134C5.54074 411.604 4.30665 410.362 2.77248 410.362C1.23832 410.362 5.76389e-07 411.604 3.75762e-07 413.134L3.6357e-07 413.227C1.62943e-07 414.757 1.24255 416 2.77248 416C4.30242 416 5.54074 414.757 5.54074 413.227Z" />
<path d="M5.54074 425.773L5.54074 447.014C5.54074 448.544 4.30242 449.787 2.77248 449.787C1.24255 449.787 1.62382e-07 448.548 3.63564e-07 447.014L3.14907e-06 425.773C3.34969e-06 424.243 1.23832 423 2.77249 423C4.30665 423 5.54074 424.243 5.54074 425.773Z" />
<path d="M5.54074 460.036L5.54074 459.943C5.54074 458.413 4.30665 457.174 2.77248 457.174C1.23832 457.174 5.76389e-07 458.413 3.75762e-07 459.943L3.6357e-07 460.036C1.62943e-07 461.566 1.24255 462.808 2.77248 462.808C4.30242 462.808 5.54074 461.566 5.54074 460.036Z" />
<path d="M5.54074 494.206L5.54074 472.964C5.54074 471.434 4.30665 470.191 2.77249 470.191C1.23832 470.191 3.34969e-06 471.434 3.14907e-06 472.964L3.63564e-07 494.206C1.62382e-07 495.74 1.24255 496.978 2.77248 496.978C4.30242 496.978 5.54074 495.736 5.54074 494.206Z" />
<path d="M5.54074 507.227L5.54074 507.134C5.54074 505.604 4.30665 504.362 2.77248 504.362C1.23832 504.362 5.76389e-07 505.604 3.75762e-07 507.134L3.6357e-07 507.227C1.62943e-07 508.757 1.24255 510 2.77248 510C4.30242 510 5.54074 508.757 5.54074 507.227Z" />
<path d="M5.54074 519.773L5.54074 541.014C5.54074 542.544 4.30242 543.787 2.77248 543.787C1.24255 543.787 1.62382e-07 542.548 3.63564e-07 541.014L3.14907e-06 519.773C3.34969e-06 518.243 1.23832 517 2.77249 517C4.30665 517 5.54074 518.243 5.54074 519.773Z" />
<path d="M5.54074 554.036L5.54074 553.943C5.54074 552.413 4.30665 551.174 2.77248 551.174C1.23832 551.174 5.76389e-07 552.413 3.75762e-07 553.943L3.6357e-07 554.036C1.62943e-07 555.566 1.24255 556.808 2.77248 556.808C4.30242 556.808 5.54074 555.566 5.54074 554.036Z" />
<path d="M5.54074 2.77254L5.54074 24.0142C5.54074 25.5441 4.30242 26.7866 2.77248 26.7866C1.24255 26.7866 1.62382e-07 25.5483 3.63564e-07 24.0142L3.14907e-06 2.77254C3.34969e-06 1.24261 1.23832 3.62547e-05 2.77249 3.64558e-05C4.30665 3.6657e-05 5.54074 1.24261 5.54074 2.77254Z" />
<path d="M5.54074 37.0356L5.54074 36.9426C5.54074 35.4127 4.30665 34.1744 2.77248 34.1744C1.23832 34.1744 5.76389e-07 35.4127 3.75762e-07 36.9426L3.6357e-07 37.0356C1.62943e-07 38.5655 1.24255 39.8081 2.77248 39.8081C4.30242 39.8081 5.54074 38.5655 5.54074 37.0356Z" />
<path d="M5.54074 71.2056L5.54074 49.9639C5.54074 48.434 4.30665 47.1914 2.77249 47.1914C1.23832 47.1914 3.34969e-06 48.434 3.14907e-06 49.9639L3.63564e-07 71.2056C1.62382e-07 72.7397 1.24255 73.978 2.77248 73.978C4.30242 73.978 5.54074 72.7355 5.54074 71.2056Z" />
<path d="M5.54074 84.227L5.54074 84.134C5.54074 82.6041 4.30665 81.3615 2.77248 81.3615C1.23832 81.3615 5.76389e-07 82.6041 3.75762e-07 84.134L3.6357e-07 84.227C1.62943e-07 85.7569 1.24255 86.9995 2.77248 86.9995C4.30242 86.9995 5.54074 85.7569 5.54074 84.227Z" />
<path d="M5.54074 96.7725L5.54074 118.014C5.54074 119.544 4.30242 120.787 2.77248 120.787C1.24255 120.787 1.62382e-07 119.548 3.63564e-07 118.014L3.14907e-06 96.7725C3.34969e-06 95.2426 1.23832 94 2.77249 94C4.30665 94 5.54074 95.2426 5.54074 96.7725Z" />
<path d="M5.54074 131.036L5.54074 130.943C5.54074 129.413 4.30665 128.174 2.77248 128.174C1.23832 128.174 5.76389e-07 129.413 3.75762e-07 130.943L3.6357e-07 131.036C1.62943e-07 132.566 1.24255 133.808 2.77248 133.808C4.30242 133.808 5.54074 132.566 5.54074 131.036Z" />
<path d="M5.54074 165.206L5.54074 143.964C5.54074 142.434 4.30665 141.191 2.77249 141.191C1.23832 141.191 3.34969e-06 142.434 3.14907e-06 143.964L3.63564e-07 165.206C1.62382e-07 166.74 1.24255 167.978 2.77248 167.978C4.30242 167.978 5.54074 166.736 5.54074 165.206Z" />
<path d="M5.54074 178.227L5.54074 178.134C5.54074 176.604 4.30665 175.362 2.77248 175.362C1.23832 175.362 5.76389e-07 176.604 3.75762e-07 178.134L3.6357e-07 178.227C1.62943e-07 179.757 1.24255 181 2.77248 181C4.30242 181 5.54074 179.757 5.54074 178.227Z" />
<path d="M5.54074 190.773L5.54074 212.014C5.54074 213.544 4.30242 214.787 2.77248 214.787C1.24255 214.787 1.62382e-07 213.548 3.63564e-07 212.014L3.14907e-06 190.773C3.34969e-06 189.243 1.23832 188 2.77249 188C4.30665 188 5.54074 189.243 5.54074 190.773Z" />
<path d="M5.54074 225.036L5.54074 224.943C5.54074 223.413 4.30665 222.174 2.77248 222.174C1.23832 222.174 5.76389e-07 223.413 3.75762e-07 224.943L3.6357e-07 225.036C1.62943e-07 226.566 1.24255 227.808 2.77248 227.808C4.30242 227.808 5.54074 226.566 5.54074 225.036Z" />
<path d="M5.54074 588.206L5.54074 566.964C5.54074 565.434 4.30665 564.191 2.77249 564.191C1.23832 564.191 3.34969e-06 565.434 3.14907e-06 566.964L3.63564e-07 588.206C1.62382e-07 589.74 1.24255 590.978 2.77248 590.978C4.30242 590.978 5.54074 589.736 5.54074 588.206Z" />
<path d="M5.54074 601.227L5.54074 601.134C5.54074 599.604 4.30665 598.362 2.77248 598.362C1.23832 598.362 5.76389e-07 599.604 3.75762e-07 601.134L3.6357e-07 601.227C1.62943e-07 602.757 1.24255 604 2.77248 604C4.30242 604 5.54074 602.757 5.54074 601.227Z" />
<path d="M5.54074 613.773L5.54074 635.014C5.54074 636.544 4.30242 637.787 2.77248 637.787C1.24255 637.787 1.62382e-07 636.548 3.63564e-07 635.014L3.14907e-06 613.773C3.34969e-06 612.243 1.23832 611 2.77249 611C4.30665 611 5.54074 612.243 5.54074 613.773Z" />
<path d="M5.54074 648.036L5.54074 647.943C5.54074 646.413 4.30665 645.174 2.77248 645.174C1.23832 645.174 5.76389e-07 646.413 3.75762e-07 647.943L3.6357e-07 648.036C1.62943e-07 649.566 1.24255 650.808 2.77248 650.808C4.30242 650.808 5.54074 649.566 5.54074 648.036Z" />
<path d="M5.54074 682.206L5.54074 660.964C5.54074 659.434 4.30665 658.191 2.77249 658.191C1.23832 658.191 3.34969e-06 659.434 3.14907e-06 660.964L3.63564e-07 682.206C1.62382e-07 683.74 1.24255 684.978 2.77248 684.978C4.30242 684.978 5.54074 683.736 5.54074 682.206Z" />
<path d="M5.54074 695.227L5.54074 695.134C5.54074 693.604 4.30665 692.362 2.77248 692.362C1.23832 692.362 5.76389e-07 693.604 3.75762e-07 695.134L3.6357e-07 695.227C1.62943e-07 696.757 1.24255 698 2.77248 698C4.30242 698 5.54074 696.757 5.54074 695.227Z" />
<path d="M5.54074 707.773L5.54074 729.014C5.54074 730.544 4.30242 731.787 2.77248 731.787C1.24255 731.787 1.62382e-07 730.548 3.63564e-07 729.014L3.14907e-06 707.773C3.34969e-06 706.243 1.23832 705 2.77249 705C4.30665 705 5.54074 706.243 5.54074 707.773Z" />
<path d="M5.54074 742.036L5.54074 741.943C5.54074 740.413 4.30665 739.174 2.77248 739.174C1.23832 739.174 5.76389e-07 740.413 3.75762e-07 741.943L3.6357e-07 742.036C1.62943e-07 743.566 1.24255 744.808 2.77248 744.808C4.30242 744.808 5.54074 743.566 5.54074 742.036Z" />
<path d="M5.54074 776.206L5.54074 754.964C5.54074 753.434 4.30665 752.191 2.77249 752.191C1.23832 752.191 3.34969e-06 753.434 3.14907e-06 754.964L3.63564e-07 776.206C1.62382e-07 777.74 1.24255 778.978 2.77248 778.978C4.30242 778.978 5.54074 777.736 5.54074 776.206Z" />
<path d="M5.54074 789.227L5.54074 789.134C5.54074 787.604 4.30665 786.362 2.77248 786.362C1.23832 786.362 5.76389e-07 787.604 3.75762e-07 789.134L3.6357e-07 789.227C1.62943e-07 790.757 1.24255 792 2.77248 792C4.30242 792 5.54074 790.757 5.54074 789.227Z" />
<path d="M5.54074 801.773L5.54074 823.014C5.54074 824.544 4.30242 825.787 2.77248 825.787C1.24255 825.787 1.62382e-07 824.548 3.63564e-07 823.014L3.14907e-06 801.773C3.34969e-06 800.243 1.23832 799 2.77249 799C4.30665 799 5.54074 800.243 5.54074 801.773Z" />
<path d="M5.54074 836.036L5.54074 835.943C5.54074 834.413 4.30665 833.174 2.77248 833.174C1.23832 833.174 5.76389e-07 834.413 3.75762e-07 835.943L3.6357e-07 836.036C1.62943e-07 837.566 1.24255 838.808 2.77248 838.808C4.30242 838.808 5.54074 837.566 5.54074 836.036Z" />
<path d="M5.54074 870.206L5.54074 848.964C5.54074 847.434 4.30665 846.191 2.77249 846.191C1.23832 846.191 3.34969e-06 847.434 3.14907e-06 848.964L3.63564e-07 870.206C1.62382e-07 871.74 1.24255 872.978 2.77248 872.978C4.30242 872.978 5.54074 871.736 5.54074 870.206Z" />
<path d="M5.54074 883.227L5.54074 883.134C5.54074 881.604 4.30665 880.362 2.77248 880.362C1.23832 880.362 5.76389e-07 881.604 3.75762e-07 883.134L3.6357e-07 883.227C1.62943e-07 884.757 1.24255 886 2.77248 886C4.30242 886 5.54074 884.757 5.54074 883.227Z" />
<path d="M5.54074 895.773L5.54074 917.014C5.54074 918.544 4.30242 919.787 2.77248 919.787C1.24255 919.787 1.62382e-07 918.548 3.63564e-07 917.014L3.14907e-06 895.773C3.34969e-06 894.243 1.23832 893 2.77249 893C4.30665 893 5.54074 894.243 5.54074 895.773Z" />
<path d="M5.54074 930.036L5.54074 929.943C5.54074 928.413 4.30665 927.174 2.77248 927.174C1.23832 927.174 5.76389e-07 928.413 3.75762e-07 929.943L3.6357e-07 930.036C1.62943e-07 931.566 1.24255 932.808 2.77248 932.808C4.30242 932.808 5.54074 931.566 5.54074 930.036Z" />
<path d="M5.54074 964.206L5.54074 942.964C5.54074 941.434 4.30665 940.191 2.77249 940.191C1.23832 940.191 3.34969e-06 941.434 3.14907e-06 942.964L3.63564e-07 964.206C1.62382e-07 965.74 1.24255 966.978 2.77248 966.978C4.30242 966.978 5.54074 965.736 5.54074 964.206Z" />
<path d="M5.54074 977.227L5.54074 977.134C5.54074 975.604 4.30665 974.362 2.77248 974.362C1.23832 974.362 5.76389e-07 975.604 3.75762e-07 977.134L3.6357e-07 977.227C1.62943e-07 978.757 1.24255 980 2.77248 980C4.30242 980 5.54074 978.757 5.54074 977.227Z" />
<path d="M5.54074 989.773L5.54074 1011.01C5.54074 1012.54 4.30242 1013.79 2.77248 1013.79C1.24255 1013.79 1.62382e-07 1012.55 3.63564e-07 1011.01L3.14907e-06 989.773C3.34969e-06 988.243 1.23832 987 2.77249 987C4.30665 987 5.54074 988.243 5.54074 989.773Z" />
<path d="M5.54074 1024.04L5.54074 1023.94C5.54074 1022.41 4.30665 1021.17 2.77248 1021.17C1.23832 1021.17 5.76389e-07 1022.41 3.75762e-07 1023.94L3.6357e-07 1024.04C1.62943e-07 1025.57 1.24255 1026.81 2.77248 1026.81C4.30242 1026.81 5.54074 1025.57 5.54074 1024.04Z" />
<path d="M5.54074 1058.21L5.54074 1036.96C5.54074 1035.43 4.30665 1034.19 2.77249 1034.19C1.23832 1034.19 3.34969e-06 1035.43 3.14907e-06 1036.96L3.63564e-07 1058.21C1.62382e-07 1059.74 1.24255 1060.98 2.77248 1060.98C4.30242 1060.98 5.54074 1059.74 5.54074 1058.21Z" />
<path d="M5.54074 1071.23L5.54074 1071.13C5.54074 1069.6 4.30665 1068.36 2.77248 1068.36C1.23832 1068.36 5.76389e-07 1069.6 3.75762e-07 1071.13L3.6357e-07 1071.23C1.62943e-07 1072.76 1.24255 1074 2.77248 1074C4.30242 1074 5.54074 1072.76 5.54074 1071.23Z" />
</svg>
