<svg width="1029" height="1080" viewBox="0 0 1029 1080" fill="none" xmlns="http://www.w3.org/2000/svg">
<path d="M5.54074 243.773L5.54074 265.014C5.54074 266.544 4.30242 267.787 2.77248 267.787C1.24255 267.787 1.62382e-07 266.548 3.63564e-07 265.014L3.14907e-06 243.773C3.34969e-06 242.243 1.23832 241 2.77249 241C4.30665 241 5.54074 242.243 5.54074 243.773Z" fill="#8D85DA"/>
<path d="M5.54074 278.036L5.54074 277.943C5.54074 276.413 4.30665 275.174 2.77248 275.174C1.23832 275.174 5.76389e-07 276.413 3.75762e-07 277.943L3.6357e-07 278.036C1.62943e-07 279.566 1.24255 280.808 2.77248 280.808C4.30242 280.808 5.54074 279.566 5.54074 278.036Z" fill="#8D85DA"/>
<path d="M5.54074 312.206L5.54074 290.964C5.54074 289.434 4.30665 288.191 2.77249 288.191C1.23832 288.191 3.34969e-06 289.434 3.14907e-06 290.964L3.63564e-07 312.206C1.62382e-07 313.74 1.24255 314.978 2.77248 314.978C4.30242 314.978 5.54074 313.736 5.54074 312.206Z" fill="#8D85DA"/>
<path d="M5.54074 325.227L5.54074 325.134C5.54074 323.604 4.30665 322.362 2.77248 322.362C1.23832 322.362 5.76389e-07 323.604 3.75762e-07 325.134L3.6357e-07 325.227C1.62943e-07 326.757 1.24255 328 2.77248 328C4.30242 328 5.54074 326.757 5.54074 325.227Z" fill="#8D85DA"/>
<path d="M5.54074 337.773L5.54074 359.014C5.54074 360.544 4.30242 361.787 2.77248 361.787C1.24255 361.787 1.62382e-07 360.548 3.63564e-07 359.014L3.14907e-06 337.773C3.34969e-06 336.243 1.23832 335 2.77249 335C4.30665 335 5.54074 336.243 5.54074 337.773Z" fill="#8D85DA"/>
<path d="M5.54074 372.036L5.54074 371.943C5.54074 370.413 4.30665 369.174 2.77248 369.174C1.23832 369.174 5.76389e-07 370.413 3.75762e-07 371.943L3.6357e-07 372.036C1.62943e-07 373.566 1.24255 374.808 2.77248 374.808C4.30242 374.808 5.54074 373.566 5.54074 372.036Z" fill="#8D85DA"/>
<path d="M5.54074 406.206L5.54074 384.964C5.54074 383.434 4.30665 382.191 2.77249 382.191C1.23832 382.191 3.34969e-06 383.434 3.14907e-06 384.964L3.63564e-07 406.206C1.62382e-07 407.74 1.24255 408.978 2.77248 408.978C4.30242 408.978 5.54074 407.736 5.54074 406.206Z" fill="#8D85DA"/>
<path d="M5.54074 419.227L5.54074 419.134C5.54074 417.604 4.30665 416.362 2.77248 416.362C1.23832 416.362 5.76389e-07 417.604 3.75762e-07 419.134L3.6357e-07 419.227C1.62943e-07 420.757 1.24255 422 2.77248 422C4.30242 422 5.54074 420.757 5.54074 419.227Z" fill="#8D85DA"/>
<path d="M5.54074 431.773L5.54074 453.014C5.54074 454.544 4.30242 455.787 2.77248 455.787C1.24255 455.787 1.62382e-07 454.548 3.63564e-07 453.014L3.14907e-06 431.773C3.34969e-06 430.243 1.23832 429 2.77249 429C4.30665 429 5.54074 430.243 5.54074 431.773Z" fill="#8D85DA"/>
<path d="M5.54074 466.036L5.54074 465.943C5.54074 464.413 4.30665 463.174 2.77248 463.174C1.23832 463.174 5.76389e-07 464.413 3.75762e-07 465.943L3.6357e-07 466.036C1.62943e-07 467.566 1.24255 468.808 2.77248 468.808C4.30242 468.808 5.54074 467.566 5.54074 466.036Z" fill="#8D85DA"/>
<path d="M5.54074 500.206L5.54074 478.964C5.54074 477.434 4.30665 476.191 2.77249 476.191C1.23832 476.191 3.34969e-06 477.434 3.14907e-06 478.964L3.63564e-07 500.206C1.62382e-07 501.74 1.24255 502.978 2.77248 502.978C4.30242 502.978 5.54074 501.736 5.54074 500.206Z" fill="#8D85DA"/>
<path d="M5.54074 513.227L5.54074 513.134C5.54074 511.604 4.30665 510.362 2.77248 510.362C1.23832 510.362 5.76389e-07 511.604 3.75762e-07 513.134L3.6357e-07 513.227C1.62943e-07 514.757 1.24255 516 2.77248 516C4.30242 516 5.54074 514.757 5.54074 513.227Z" fill="#8D85DA"/>
<path d="M5.54074 525.773L5.54074 547.014C5.54074 548.544 4.30242 549.787 2.77248 549.787C1.24255 549.787 1.62382e-07 548.548 3.63564e-07 547.014L3.14907e-06 525.773C3.34969e-06 524.243 1.23832 523 2.77249 523C4.30665 523 5.54074 524.243 5.54074 525.773Z" fill="#8D85DA"/>
<path d="M5.54074 560.036L5.54074 559.943C5.54074 558.413 4.30665 557.174 2.77248 557.174C1.23832 557.174 5.76389e-07 558.413 3.75762e-07 559.943L3.6357e-07 560.036C1.62943e-07 561.566 1.24255 562.808 2.77248 562.808C4.30242 562.808 5.54074 561.566 5.54074 560.036Z" fill="#8D85DA"/>
<path d="M5.54074 8.77255L5.54074 30.0142C5.54074 31.5441 4.30242 32.7866 2.77248 32.7866C1.24255 32.7866 1.62382e-07 31.5483 3.63564e-07 30.0142L3.14907e-06 8.77254C3.34969e-06 7.24261 1.23832 6.00004 2.77249 6.00004C4.30665 6.00004 5.54074 7.24261 5.54074 8.77255Z" fill="#8D85DA"/>
<path d="M5.54074 43.0356L5.54074 42.9426C5.54074 41.4127 4.30665 40.1744 2.77248 40.1744C1.23832 40.1744 5.76389e-07 41.4127 3.75762e-07 42.9426L3.6357e-07 43.0356C1.62943e-07 44.5655 1.24255 45.8081 2.77248 45.8081C4.30242 45.8081 5.54074 44.5655 5.54074 43.0356Z" fill="#8D85DA"/>
<path d="M5.54074 77.2056L5.54074 55.9639C5.54074 54.434 4.30665 53.1914 2.77249 53.1914C1.23832 53.1914 3.34969e-06 54.434 3.14907e-06 55.9639L3.63564e-07 77.2056C1.62382e-07 78.7397 1.24255 79.978 2.77248 79.978C4.30242 79.978 5.54074 78.7355 5.54074 77.2056Z" fill="#8D85DA"/>
<path d="M5.54074 90.227L5.54074 90.134C5.54074 88.6041 4.30665 87.3615 2.77248 87.3615C1.23832 87.3615 5.76389e-07 88.6041 3.75762e-07 90.134L3.6357e-07 90.227C1.62943e-07 91.7569 1.24255 92.9995 2.77248 92.9995C4.30242 92.9995 5.54074 91.7569 5.54074 90.227Z" fill="#8D85DA"/>
<path d="M5.54074 102.773L5.54074 124.014C5.54074 125.544 4.30242 126.787 2.77248 126.787C1.24255 126.787 1.62382e-07 125.548 3.63564e-07 124.014L3.14907e-06 102.773C3.34969e-06 101.243 1.23832 100 2.77249 100C4.30665 100 5.54074 101.243 5.54074 102.773Z" fill="#8D85DA"/>
<path d="M5.54074 137.036L5.54074 136.943C5.54074 135.413 4.30665 134.174 2.77248 134.174C1.23832 134.174 5.76389e-07 135.413 3.75762e-07 136.943L3.6357e-07 137.036C1.62943e-07 138.566 1.24255 139.808 2.77248 139.808C4.30242 139.808 5.54074 138.566 5.54074 137.036Z" fill="#8D85DA"/>
<path d="M5.54074 171.206L5.54074 149.964C5.54074 148.434 4.30665 147.191 2.77249 147.191C1.23832 147.191 3.34969e-06 148.434 3.14907e-06 149.964L3.63564e-07 171.206C1.62382e-07 172.74 1.24255 173.978 2.77248 173.978C4.30242 173.978 5.54074 172.736 5.54074 171.206Z" fill="#8D85DA"/>
<path d="M5.54074 184.227L5.54074 184.134C5.54074 182.604 4.30665 181.362 2.77248 181.362C1.23832 181.362 5.76389e-07 182.604 3.75762e-07 184.134L3.6357e-07 184.227C1.62943e-07 185.757 1.24255 187 2.77248 187C4.30242 187 5.54074 185.757 5.54074 184.227Z" fill="#8D85DA"/>
<path d="M5.54074 196.773L5.54074 218.014C5.54074 219.544 4.30242 220.787 2.77248 220.787C1.24255 220.787 1.62382e-07 219.548 3.63564e-07 218.014L3.14907e-06 196.773C3.34969e-06 195.243 1.23832 194 2.77249 194C4.30665 194 5.54074 195.243 5.54074 196.773Z" fill="#8D85DA"/>
<path d="M5.54074 231.036L5.54074 230.943C5.54074 229.413 4.30665 228.174 2.77248 228.174C1.23832 228.174 5.76389e-07 229.413 3.75762e-07 230.943L3.6357e-07 231.036C1.62943e-07 232.566 1.24255 233.808 2.77248 233.808C4.30242 233.808 5.54074 232.566 5.54074 231.036Z" fill="#8D85DA"/>
<path d="M5.54074 594.206L5.54074 572.964C5.54074 571.434 4.30665 570.191 2.77249 570.191C1.23832 570.191 3.34969e-06 571.434 3.14907e-06 572.964L3.63564e-07 594.206C1.62382e-07 595.74 1.24255 596.978 2.77248 596.978C4.30242 596.978 5.54074 595.736 5.54074 594.206Z" fill="#8D85DA"/>
<path d="M5.54074 607.227L5.54074 607.134C5.54074 605.604 4.30665 604.362 2.77248 604.362C1.23832 604.362 5.76389e-07 605.604 3.75762e-07 607.134L3.6357e-07 607.227C1.62943e-07 608.757 1.24255 610 2.77248 610C4.30242 610 5.54074 608.757 5.54074 607.227Z" fill="#8D85DA"/>
<path d="M5.54074 619.773L5.54074 641.014C5.54074 642.544 4.30242 643.787 2.77248 643.787C1.24255 643.787 1.62382e-07 642.548 3.63564e-07 641.014L3.14907e-06 619.773C3.34969e-06 618.243 1.23832 617 2.77249 617C4.30665 617 5.54074 618.243 5.54074 619.773Z" fill="#8D85DA"/>
<path d="M5.54074 654.036L5.54074 653.943C5.54074 652.413 4.30665 651.174 2.77248 651.174C1.23832 651.174 5.76389e-07 652.413 3.75762e-07 653.943L3.6357e-07 654.036C1.62943e-07 655.566 1.24255 656.808 2.77248 656.808C4.30242 656.808 5.54074 655.566 5.54074 654.036Z" fill="#8D85DA"/>
<path d="M5.54074 688.206L5.54074 666.964C5.54074 665.434 4.30665 664.191 2.77249 664.191C1.23832 664.191 3.34969e-06 665.434 3.14907e-06 666.964L3.63564e-07 688.206C1.62382e-07 689.74 1.24255 690.978 2.77248 690.978C4.30242 690.978 5.54074 689.736 5.54074 688.206Z" fill="#8D85DA"/>
<path d="M5.54074 701.227L5.54074 701.134C5.54074 699.604 4.30665 698.362 2.77248 698.362C1.23832 698.362 5.76389e-07 699.604 3.75762e-07 701.134L3.6357e-07 701.227C1.62943e-07 702.757 1.24255 704 2.77248 704C4.30242 704 5.54074 702.757 5.54074 701.227Z" fill="#8D85DA"/>
<path d="M5.54074 713.773L5.54074 735.014C5.54074 736.544 4.30242 737.787 2.77248 737.787C1.24255 737.787 1.62382e-07 736.548 3.63564e-07 735.014L3.14907e-06 713.773C3.34969e-06 712.243 1.23832 711 2.77249 711C4.30665 711 5.54074 712.243 5.54074 713.773Z" fill="#8D85DA"/>
<path d="M5.54074 748.036L5.54074 747.943C5.54074 746.413 4.30665 745.174 2.77248 745.174C1.23832 745.174 5.76389e-07 746.413 3.75762e-07 747.943L3.6357e-07 748.036C1.62943e-07 749.566 1.24255 750.808 2.77248 750.808C4.30242 750.808 5.54074 749.566 5.54074 748.036Z" fill="#8D85DA"/>
<path d="M5.54074 782.206L5.54074 760.964C5.54074 759.434 4.30665 758.191 2.77249 758.191C1.23832 758.191 3.34969e-06 759.434 3.14907e-06 760.964L3.63564e-07 782.206C1.62382e-07 783.74 1.24255 784.978 2.77248 784.978C4.30242 784.978 5.54074 783.736 5.54074 782.206Z" fill="#8D85DA"/>
<path d="M5.54074 795.227L5.54074 795.134C5.54074 793.604 4.30665 792.362 2.77248 792.362C1.23832 792.362 5.76389e-07 793.604 3.75762e-07 795.134L3.6357e-07 795.227C1.62943e-07 796.757 1.24255 798 2.77248 798C4.30242 798 5.54074 796.757 5.54074 795.227Z" fill="#8D85DA"/>
<path d="M5.54074 807.773L5.54074 829.014C5.54074 830.544 4.30242 831.787 2.77248 831.787C1.24255 831.787 1.62382e-07 830.548 3.63564e-07 829.014L3.14907e-06 807.773C3.34969e-06 806.243 1.23832 805 2.77249 805C4.30665 805 5.54074 806.243 5.54074 807.773Z" fill="#8D85DA"/>
<path d="M5.54074 842.036L5.54074 841.943C5.54074 840.413 4.30665 839.174 2.77248 839.174C1.23832 839.174 5.76389e-07 840.413 3.75762e-07 841.943L3.6357e-07 842.036C1.62943e-07 843.566 1.24255 844.808 2.77248 844.808C4.30242 844.808 5.54074 843.566 5.54074 842.036Z" fill="#8D85DA"/>
<path d="M5.54074 876.206L5.54074 854.964C5.54074 853.434 4.30665 852.191 2.77249 852.191C1.23832 852.191 3.34969e-06 853.434 3.14907e-06 854.964L3.63564e-07 876.206C1.62382e-07 877.74 1.24255 878.978 2.77248 878.978C4.30242 878.978 5.54074 877.736 5.54074 876.206Z" fill="#8D85DA"/>
<path d="M5.54074 889.227L5.54074 889.134C5.54074 887.604 4.30665 886.362 2.77248 886.362C1.23832 886.362 5.76389e-07 887.604 3.75762e-07 889.134L3.6357e-07 889.227C1.62943e-07 890.757 1.24255 892 2.77248 892C4.30242 892 5.54074 890.757 5.54074 889.227Z" fill="#8D85DA"/>
<path d="M5.54074 901.773L5.54074 923.014C5.54074 924.544 4.30242 925.787 2.77248 925.787C1.24255 925.787 1.62382e-07 924.548 3.63564e-07 923.014L3.14907e-06 901.773C3.34969e-06 900.243 1.23832 899 2.77249 899C4.30665 899 5.54074 900.243 5.54074 901.773Z" fill="#8D85DA"/>
<path d="M5.54074 936.036L5.54074 935.943C5.54074 934.413 4.30665 933.174 2.77248 933.174C1.23832 933.174 5.76389e-07 934.413 3.75762e-07 935.943L3.6357e-07 936.036C1.62943e-07 937.566 1.24255 938.808 2.77248 938.808C4.30242 938.808 5.54074 937.566 5.54074 936.036Z" fill="#8D85DA"/>
<path d="M5.54074 970.206L5.54074 948.964C5.54074 947.434 4.30665 946.191 2.77249 946.191C1.23832 946.191 3.34969e-06 947.434 3.14907e-06 948.964L3.63564e-07 970.206C1.62382e-07 971.74 1.24255 972.978 2.77248 972.978C4.30242 972.978 5.54074 971.736 5.54074 970.206Z" fill="#8D85DA"/>
<path d="M5.54074 983.227L5.54074 983.134C5.54074 981.604 4.30665 980.362 2.77248 980.362C1.23832 980.362 5.76389e-07 981.604 3.75762e-07 983.134L3.6357e-07 983.227C1.62943e-07 984.757 1.24255 986 2.77248 986C4.30242 986 5.54074 984.757 5.54074 983.227Z" fill="#8D85DA"/>
<path d="M5.54074 995.773L5.54074 1017.01C5.54074 1018.54 4.30242 1019.79 2.77248 1019.79C1.24255 1019.79 1.62382e-07 1018.55 3.63564e-07 1017.01L3.14907e-06 995.773C3.34969e-06 994.243 1.23832 993 2.77249 993C4.30665 993 5.54074 994.243 5.54074 995.773Z" fill="#8D85DA"/>
<path d="M5.54074 1030.04L5.54074 1029.94C5.54074 1028.41 4.30665 1027.17 2.77248 1027.17C1.23832 1027.17 5.76389e-07 1028.41 3.75762e-07 1029.94L3.6357e-07 1030.04C1.62943e-07 1031.57 1.24255 1032.81 2.77248 1032.81C4.30242 1032.81 5.54074 1031.57 5.54074 1030.04Z" fill="#8D85DA"/>
<path d="M5.54074 1064.21L5.54074 1042.96C5.54074 1041.43 4.30665 1040.19 2.77249 1040.19C1.23832 1040.19 3.34969e-06 1041.43 3.14907e-06 1042.96L3.63564e-07 1064.21C1.62382e-07 1065.74 1.24255 1066.98 2.77248 1066.98C4.30242 1066.98 5.54074 1065.74 5.54074 1064.21Z" fill="#8D85DA"/>
<path d="M5.54074 1077.23L5.54074 1077.13C5.54074 1075.6 4.30665 1074.36 2.77248 1074.36C1.23832 1074.36 5.76389e-07 1075.6 3.75762e-07 1077.13L3.6357e-07 1077.23C1.62943e-07 1078.76 1.24255 1080 2.77248 1080C4.30242 1080 5.54074 1078.76 5.54074 1077.23Z" fill="#8D85DA"/>
<path d="M346.541 243.773L346.541 265.014C346.541 266.544 345.302 267.787 343.772 267.787C342.243 267.787 341 266.548 341 265.014L341 243.773C341 242.243 342.238 241 343.772 241C345.307 241 346.541 242.243 346.541 243.773Z" fill="#8D85DA"/>
<path d="M346.541 278.036L346.541 277.943C346.541 276.413 345.307 275.174 343.772 275.174C342.238 275.174 341 276.413 341 277.943L341 278.036C341 279.566 342.243 280.808 343.772 280.808C345.302 280.808 346.541 279.566 346.541 278.036Z" fill="#8D85DA"/>
<path d="M346.541 312.206L346.541 290.964C346.541 289.434 345.307 288.191 343.772 288.191C342.238 288.191 341 289.434 341 290.964L341 312.206C341 313.74 342.243 314.978 343.772 314.978C345.302 314.978 346.541 313.736 346.541 312.206Z" fill="#8D85DA"/>
<path d="M346.541 325.227L346.541 325.134C346.541 323.604 345.307 322.362 343.772 322.362C342.238 322.362 341 323.604 341 325.134L341 325.227C341 326.757 342.243 328 343.772 328C345.302 328 346.541 326.757 346.541 325.227Z" fill="#8D85DA"/>
<path d="M346.541 337.773L346.541 359.014C346.541 360.544 345.302 361.787 343.772 361.787C342.243 361.787 341 360.548 341 359.014L341 337.773C341 336.243 342.238 335 343.772 335C345.307 335 346.541 336.243 346.541 337.773Z" fill="#8D85DA"/>
<path d="M346.541 372.036L346.541 371.943C346.541 370.413 345.307 369.174 343.772 369.174C342.238 369.174 341 370.413 341 371.943L341 372.036C341 373.566 342.243 374.808 343.772 374.808C345.302 374.808 346.541 373.566 346.541 372.036Z" fill="#8D85DA"/>
<path d="M346.541 406.206L346.541 384.964C346.541 383.434 345.307 382.191 343.772 382.191C342.238 382.191 341 383.434 341 384.964L341 406.206C341 407.74 342.243 408.978 343.772 408.978C345.302 408.978 346.541 407.736 346.541 406.206Z" fill="#8D85DA"/>
<path d="M346.541 419.227L346.541 419.134C346.541 417.604 345.307 416.362 343.772 416.362C342.238 416.362 341 417.604 341 419.134L341 419.227C341 420.757 342.243 422 343.772 422C345.302 422 346.541 420.757 346.541 419.227Z" fill="#8D85DA"/>
<path d="M346.541 431.773L346.541 453.014C346.541 454.544 345.302 455.787 343.772 455.787C342.243 455.787 341 454.548 341 453.014L341 431.773C341 430.243 342.238 429 343.772 429C345.307 429 346.541 430.243 346.541 431.773Z" fill="#8D85DA"/>
<path d="M346.541 466.036L346.541 465.943C346.541 464.413 345.307 463.174 343.772 463.174C342.238 463.174 341 464.413 341 465.943L341 466.036C341 467.566 342.243 468.808 343.772 468.808C345.302 468.808 346.541 467.566 346.541 466.036Z" fill="#8D85DA"/>
<path d="M346.541 500.206L346.541 478.964C346.541 477.434 345.307 476.191 343.772 476.191C342.238 476.191 341 477.434 341 478.964L341 500.206C341 501.74 342.243 502.978 343.772 502.978C345.302 502.978 346.541 501.736 346.541 500.206Z" fill="#8D85DA"/>
<path d="M346.541 513.227L346.541 513.134C346.541 511.604 345.307 510.362 343.772 510.362C342.238 510.362 341 511.604 341 513.134L341 513.227C341 514.757 342.243 516 343.772 516C345.302 516 346.541 514.757 346.541 513.227Z" fill="#8D85DA"/>
<path d="M346.541 525.773L346.541 547.014C346.541 548.544 345.302 549.787 343.772 549.787C342.243 549.787 341 548.548 341 547.014L341 525.773C341 524.243 342.238 523 343.772 523C345.307 523 346.541 524.243 346.541 525.773Z" fill="#8D85DA"/>
<path d="M346.541 560.036L346.541 559.943C346.541 558.413 345.307 557.174 343.772 557.174C342.238 557.174 341 558.413 341 559.943L341 560.036C341 561.566 342.243 562.808 343.772 562.808C345.302 562.808 346.541 561.566 346.541 560.036Z" fill="#8D85DA"/>
<path d="M346.541 8.77255L346.541 30.0142C346.541 31.5441 345.302 32.7866 343.772 32.7866C342.243 32.7866 341 31.5483 341 30.0142L341 8.77254C341 7.24261 342.238 6.00004 343.772 6.00004C345.307 6.00004 346.541 7.24261 346.541 8.77255Z" fill="#8D85DA"/>
<path d="M346.541 43.0356L346.541 42.9426C346.541 41.4127 345.307 40.1744 343.772 40.1744C342.238 40.1744 341 41.4127 341 42.9426L341 43.0356C341 44.5655 342.243 45.8081 343.772 45.8081C345.302 45.8081 346.541 44.5655 346.541 43.0356Z" fill="#8D85DA"/>
<path d="M346.541 77.2056L346.541 55.9639C346.541 54.434 345.307 53.1914 343.772 53.1914C342.238 53.1914 341 54.434 341 55.9639L341 77.2056C341 78.7397 342.243 79.978 343.772 79.978C345.302 79.978 346.541 78.7355 346.541 77.2056Z" fill="#8D85DA"/>
<path d="M346.541 90.227L346.541 90.134C346.541 88.6041 345.307 87.3615 343.772 87.3615C342.238 87.3615 341 88.6041 341 90.134L341 90.227C341 91.7569 342.243 92.9995 343.772 92.9995C345.302 92.9995 346.541 91.7569 346.541 90.227Z" fill="#8D85DA"/>
<path d="M346.541 102.773L346.541 124.014C346.541 125.544 345.302 126.787 343.772 126.787C342.243 126.787 341 125.548 341 124.014L341 102.773C341 101.243 342.238 100 343.772 100C345.307 100 346.541 101.243 346.541 102.773Z" fill="#8D85DA"/>
<path d="M346.541 137.036L346.541 136.943C346.541 135.413 345.307 134.174 343.772 134.174C342.238 134.174 341 135.413 341 136.943L341 137.036C341 138.566 342.243 139.808 343.772 139.808C345.302 139.808 346.541 138.566 346.541 137.036Z" fill="#8D85DA"/>
<path d="M346.541 171.206L346.541 149.964C346.541 148.434 345.307 147.191 343.772 147.191C342.238 147.191 341 148.434 341 149.964L341 171.206C341 172.74 342.243 173.978 343.772 173.978C345.302 173.978 346.541 172.736 346.541 171.206Z" fill="#8D85DA"/>
<path d="M346.541 184.227L346.541 184.134C346.541 182.604 345.307 181.362 343.772 181.362C342.238 181.362 341 182.604 341 184.134L341 184.227C341 185.757 342.243 187 343.772 187C345.302 187 346.541 185.757 346.541 184.227Z" fill="#8D85DA"/>
<path d="M346.541 196.773L346.541 218.014C346.541 219.544 345.302 220.787 343.772 220.787C342.243 220.787 341 219.548 341 218.014L341 196.773C341 195.243 342.238 194 343.772 194C345.307 194 346.541 195.243 346.541 196.773Z" fill="#8D85DA"/>
<path d="M346.541 231.036L346.541 230.943C346.541 229.413 345.307 228.174 343.772 228.174C342.238 228.174 341 229.413 341 230.943L341 231.036C341 232.566 342.243 233.808 343.772 233.808C345.302 233.808 346.541 232.566 346.541 231.036Z" fill="#8D85DA"/>
<path d="M346.541 594.206L346.541 572.964C346.541 571.434 345.307 570.191 343.772 570.191C342.238 570.191 341 571.434 341 572.964L341 594.206C341 595.74 342.243 596.978 343.772 596.978C345.302 596.978 346.541 595.736 346.541 594.206Z" fill="#8D85DA"/>
<path d="M346.541 607.227L346.541 607.134C346.541 605.604 345.307 604.362 343.772 604.362C342.238 604.362 341 605.604 341 607.134L341 607.227C341 608.757 342.243 610 343.772 610C345.302 610 346.541 608.757 346.541 607.227Z" fill="#8D85DA"/>
<path d="M346.541 619.773L346.541 641.014C346.541 642.544 345.302 643.787 343.772 643.787C342.243 643.787 341 642.548 341 641.014L341 619.773C341 618.243 342.238 617 343.772 617C345.307 617 346.541 618.243 346.541 619.773Z" fill="#8D85DA"/>
<path d="M346.541 654.036L346.541 653.943C346.541 652.413 345.307 651.174 343.772 651.174C342.238 651.174 341 652.413 341 653.943L341 654.036C341 655.566 342.243 656.808 343.772 656.808C345.302 656.808 346.541 655.566 346.541 654.036Z" fill="#8D85DA"/>
<path d="M346.541 688.206L346.541 666.964C346.541 665.434 345.307 664.191 343.772 664.191C342.238 664.191 341 665.434 341 666.964L341 688.206C341 689.74 342.243 690.978 343.772 690.978C345.302 690.978 346.541 689.736 346.541 688.206Z" fill="#8D85DA"/>
<path d="M346.541 701.227L346.541 701.134C346.541 699.604 345.307 698.362 343.772 698.362C342.238 698.362 341 699.604 341 701.134L341 701.227C341 702.757 342.243 704 343.772 704C345.302 704 346.541 702.757 346.541 701.227Z" fill="#8D85DA"/>
<path d="M346.541 713.773L346.541 735.014C346.541 736.544 345.302 737.787 343.772 737.787C342.243 737.787 341 736.548 341 735.014L341 713.773C341 712.243 342.238 711 343.772 711C345.307 711 346.541 712.243 346.541 713.773Z" fill="#8D85DA"/>
<path d="M346.541 748.036L346.541 747.943C346.541 746.413 345.307 745.174 343.772 745.174C342.238 745.174 341 746.413 341 747.943L341 748.036C341 749.566 342.243 750.808 343.772 750.808C345.302 750.808 346.541 749.566 346.541 748.036Z" fill="#8D85DA"/>
<path d="M346.541 782.206L346.541 760.964C346.541 759.434 345.307 758.191 343.772 758.191C342.238 758.191 341 759.434 341 760.964L341 782.206C341 783.74 342.243 784.978 343.772 784.978C345.302 784.978 346.541 783.736 346.541 782.206Z" fill="#8D85DA"/>
<path d="M346.541 795.227L346.541 795.134C346.541 793.604 345.307 792.362 343.772 792.362C342.238 792.362 341 793.604 341 795.134L341 795.227C341 796.757 342.243 798 343.772 798C345.302 798 346.541 796.757 346.541 795.227Z" fill="#8D85DA"/>
<path d="M346.541 807.773L346.541 829.014C346.541 830.544 345.302 831.787 343.772 831.787C342.243 831.787 341 830.548 341 829.014L341 807.773C341 806.243 342.238 805 343.772 805C345.307 805 346.541 806.243 346.541 807.773Z" fill="#8D85DA"/>
<path d="M346.541 842.036L346.541 841.943C346.541 840.413 345.307 839.174 343.772 839.174C342.238 839.174 341 840.413 341 841.943L341 842.036C341 843.566 342.243 844.808 343.772 844.808C345.302 844.808 346.541 843.566 346.541 842.036Z" fill="#8D85DA"/>
<path d="M346.541 876.206L346.541 854.964C346.541 853.434 345.307 852.191 343.772 852.191C342.238 852.191 341 853.434 341 854.964L341 876.206C341 877.74 342.243 878.978 343.772 878.978C345.302 878.978 346.541 877.736 346.541 876.206Z" fill="#8D85DA"/>
<path d="M346.541 889.227L346.541 889.134C346.541 887.604 345.307 886.362 343.772 886.362C342.238 886.362 341 887.604 341 889.134L341 889.227C341 890.757 342.243 892 343.772 892C345.302 892 346.541 890.757 346.541 889.227Z" fill="#8D85DA"/>
<path d="M346.541 901.773L346.541 923.014C346.541 924.544 345.302 925.787 343.772 925.787C342.243 925.787 341 924.548 341 923.014L341 901.773C341 900.243 342.238 899 343.772 899C345.307 899 346.541 900.243 346.541 901.773Z" fill="#8D85DA"/>
<path d="M346.541 936.036L346.541 935.943C346.541 934.413 345.307 933.174 343.772 933.174C342.238 933.174 341 934.413 341 935.943L341 936.036C341 937.566 342.243 938.808 343.772 938.808C345.302 938.808 346.541 937.566 346.541 936.036Z" fill="#8D85DA"/>
<path d="M346.541 970.206L346.541 948.964C346.541 947.434 345.307 946.191 343.772 946.191C342.238 946.191 341 947.434 341 948.964L341 970.206C341 971.74 342.243 972.978 343.772 972.978C345.302 972.978 346.541 971.736 346.541 970.206Z" fill="#8D85DA"/>
<path d="M346.541 983.227L346.541 983.134C346.541 981.604 345.307 980.362 343.772 980.362C342.238 980.362 341 981.604 341 983.134L341 983.227C341 984.757 342.243 986 343.772 986C345.302 986 346.541 984.757 346.541 983.227Z" fill="#8D85DA"/>
<path d="M346.541 995.773L346.541 1017.01C346.541 1018.54 345.302 1019.79 343.772 1019.79C342.243 1019.79 341 1018.55 341 1017.01L341 995.773C341 994.243 342.238 993 343.772 993C345.307 993 346.541 994.243 346.541 995.773Z" fill="#8D85DA"/>
<path d="M346.541 1030.04L346.541 1029.94C346.541 1028.41 345.307 1027.17 343.772 1027.17C342.238 1027.17 341 1028.41 341 1029.94L341 1030.04C341 1031.57 342.243 1032.81 343.772 1032.81C345.302 1032.81 346.541 1031.57 346.541 1030.04Z" fill="#8D85DA"/>
<path d="M346.541 1064.21L346.541 1042.96C346.541 1041.43 345.307 1040.19 343.772 1040.19C342.238 1040.19 341 1041.43 341 1042.96L341 1064.21C341 1065.74 342.243 1066.98 343.772 1066.98C345.302 1066.98 346.541 1065.74 346.541 1064.21Z" fill="#8D85DA"/>
<path d="M346.541 1077.23L346.541 1077.13C346.541 1075.6 345.307 1074.36 343.772 1074.36C342.238 1074.36 341 1075.6 341 1077.13L341 1077.23C341 1078.76 342.243 1080 343.772 1080C345.302 1080 346.541 1078.76 346.541 1077.23Z" fill="#8D85DA"/>
<path d="M687.541 240.773L687.541 262.014C687.541 263.544 686.302 264.787 684.772 264.787C683.243 264.787 682 263.548 682 262.014L682 240.773C682 239.243 683.238 238 684.772 238C686.307 238 687.541 239.243 687.541 240.773Z" fill="#8D85DA"/>
<path d="M687.541 275.036L687.541 274.943C687.541 273.413 686.307 272.174 684.772 272.174C683.238 272.174 682 273.413 682 274.943L682 275.036C682 276.566 683.243 277.808 684.772 277.808C686.302 277.808 687.541 276.566 687.541 275.036Z" fill="#8D85DA"/>
<path d="M687.541 309.206L687.541 287.964C687.541 286.434 686.307 285.191 684.772 285.191C683.238 285.191 682 286.434 682 287.964L682 309.206C682 310.74 683.243 311.978 684.772 311.978C686.302 311.978 687.541 310.736 687.541 309.206Z" fill="#8D85DA"/>
<path d="M687.541 322.227L687.541 322.134C687.541 320.604 686.307 319.362 684.772 319.362C683.238 319.362 682 320.604 682 322.134L682 322.227C682 323.757 683.243 325 684.772 325C686.302 325 687.541 323.757 687.541 322.227Z" fill="#8D85DA"/>
<path d="M687.541 334.773L687.541 356.014C687.541 357.544 686.302 358.787 684.772 358.787C683.243 358.787 682 357.548 682 356.014L682 334.773C682 333.243 683.238 332 684.772 332C686.307 332 687.541 333.243 687.541 334.773Z" fill="#8D85DA"/>
<path d="M687.541 369.036L687.541 368.943C687.541 367.413 686.307 366.174 684.772 366.174C683.238 366.174 682 367.413 682 368.943L682 369.036C682 370.566 683.243 371.808 684.772 371.808C686.302 371.808 687.541 370.566 687.541 369.036Z" fill="#8D85DA"/>
<path d="M687.541 403.206L687.541 381.964C687.541 380.434 686.307 379.191 684.772 379.191C683.238 379.191 682 380.434 682 381.964L682 403.206C682 404.74 683.243 405.978 684.772 405.978C686.302 405.978 687.541 404.736 687.541 403.206Z" fill="#8D85DA"/>
<path d="M687.541 416.227L687.541 416.134C687.541 414.604 686.307 413.362 684.772 413.362C683.238 413.362 682 414.604 682 416.134L682 416.227C682 417.757 683.243 419 684.772 419C686.302 419 687.541 417.757 687.541 416.227Z" fill="#8D85DA"/>
<path d="M687.541 428.773L687.541 450.014C687.541 451.544 686.302 452.787 684.772 452.787C683.243 452.787 682 451.548 682 450.014L682 428.773C682 427.243 683.238 426 684.772 426C686.307 426 687.541 427.243 687.541 428.773Z" fill="#8D85DA"/>
<path d="M687.541 463.036L687.541 462.943C687.541 461.413 686.307 460.174 684.772 460.174C683.238 460.174 682 461.413 682 462.943L682 463.036C682 464.566 683.243 465.808 684.772 465.808C686.302 465.808 687.541 464.566 687.541 463.036Z" fill="#8D85DA"/>
<path d="M687.541 497.206L687.541 475.964C687.541 474.434 686.307 473.191 684.772 473.191C683.238 473.191 682 474.434 682 475.964L682 497.206C682 498.74 683.243 499.978 684.772 499.978C686.302 499.978 687.541 498.736 687.541 497.206Z" fill="#8D85DA"/>
<path d="M687.541 510.227L687.541 510.134C687.541 508.604 686.307 507.362 684.772 507.362C683.238 507.362 682 508.604 682 510.134L682 510.227C682 511.757 683.243 513 684.772 513C686.302 513 687.541 511.757 687.541 510.227Z" fill="#8D85DA"/>
<path d="M687.541 522.773L687.541 544.014C687.541 545.544 686.302 546.787 684.772 546.787C683.243 546.787 682 545.548 682 544.014L682 522.773C682 521.243 683.238 520 684.772 520C686.307 520 687.541 521.243 687.541 522.773Z" fill="#8D85DA"/>
<path d="M687.541 557.036L687.541 556.943C687.541 555.413 686.307 554.174 684.772 554.174C683.238 554.174 682 555.413 682 556.943L682 557.036C682 558.566 683.243 559.808 684.772 559.808C686.302 559.808 687.541 558.566 687.541 557.036Z" fill="#8D85DA"/>
<path d="M687.541 5.77255L687.541 27.0142C687.541 28.5441 686.302 29.7866 684.772 29.7866C683.243 29.7866 682 28.5483 682 27.0142L682 5.77254C682 4.24261 683.238 3.00004 684.772 3.00004C686.307 3.00004 687.541 4.24261 687.541 5.77255Z" fill="#8D85DA"/>
<path d="M687.541 40.0356L687.541 39.9426C687.541 38.4127 686.307 37.1744 684.772 37.1744C683.238 37.1744 682 38.4127 682 39.9426L682 40.0356C682 41.5655 683.243 42.8081 684.772 42.8081C686.302 42.8081 687.541 41.5655 687.541 40.0356Z" fill="#8D85DA"/>
<path d="M687.541 74.2056L687.541 52.9639C687.541 51.434 686.307 50.1914 684.772 50.1914C683.238 50.1914 682 51.434 682 52.9639L682 74.2056C682 75.7397 683.243 76.978 684.772 76.978C686.302 76.978 687.541 75.7355 687.541 74.2056Z" fill="#8D85DA"/>
<path d="M687.541 87.227L687.541 87.134C687.541 85.6041 686.307 84.3615 684.772 84.3615C683.238 84.3615 682 85.6041 682 87.134L682 87.227C682 88.7569 683.243 89.9995 684.772 89.9995C686.302 89.9995 687.541 88.7569 687.541 87.227Z" fill="#8D85DA"/>
<path d="M687.541 99.7725L687.541 121.014C687.541 122.544 686.302 123.787 684.772 123.787C683.243 123.787 682 122.548 682 121.014L682 99.7725C682 98.2426 683.238 97 684.772 97C686.307 97 687.541 98.2426 687.541 99.7725Z" fill="#8D85DA"/>
<path d="M687.541 134.036L687.541 133.943C687.541 132.413 686.307 131.174 684.772 131.174C683.238 131.174 682 132.413 682 133.943L682 134.036C682 135.566 683.243 136.808 684.772 136.808C686.302 136.808 687.541 135.566 687.541 134.036Z" fill="#8D85DA"/>
<path d="M687.541 168.206L687.541 146.964C687.541 145.434 686.307 144.191 684.772 144.191C683.238 144.191 682 145.434 682 146.964L682 168.206C682 169.74 683.243 170.978 684.772 170.978C686.302 170.978 687.541 169.736 687.541 168.206Z" fill="#8D85DA"/>
<path d="M687.541 181.227L687.541 181.134C687.541 179.604 686.307 178.362 684.772 178.362C683.238 178.362 682 179.604 682 181.134L682 181.227C682 182.757 683.243 184 684.772 184C686.302 184 687.541 182.757 687.541 181.227Z" fill="#8D85DA"/>
<path d="M687.541 193.773L687.541 215.014C687.541 216.544 686.302 217.787 684.772 217.787C683.243 217.787 682 216.548 682 215.014L682 193.773C682 192.243 683.238 191 684.772 191C686.307 191 687.541 192.243 687.541 193.773Z" fill="#8D85DA"/>
<path d="M687.541 228.036L687.541 227.943C687.541 226.413 686.307 225.174 684.772 225.174C683.238 225.174 682 226.413 682 227.943L682 228.036C682 229.566 683.243 230.808 684.772 230.808C686.302 230.808 687.541 229.566 687.541 228.036Z" fill="#8D85DA"/>
<path d="M687.541 591.206L687.541 569.964C687.541 568.434 686.307 567.191 684.772 567.191C683.238 567.191 682 568.434 682 569.964L682 591.206C682 592.74 683.243 593.978 684.772 593.978C686.302 593.978 687.541 592.736 687.541 591.206Z" fill="#8D85DA"/>
<path d="M687.541 604.227L687.541 604.134C687.541 602.604 686.307 601.362 684.772 601.362C683.238 601.362 682 602.604 682 604.134L682 604.227C682 605.757 683.243 607 684.772 607C686.302 607 687.541 605.757 687.541 604.227Z" fill="#8D85DA"/>
<path d="M687.541 616.773L687.541 638.014C687.541 639.544 686.302 640.787 684.772 640.787C683.243 640.787 682 639.548 682 638.014L682 616.773C682 615.243 683.238 614 684.772 614C686.307 614 687.541 615.243 687.541 616.773Z" fill="#8D85DA"/>
<path d="M687.541 651.036L687.541 650.943C687.541 649.413 686.307 648.174 684.772 648.174C683.238 648.174 682 649.413 682 650.943L682 651.036C682 652.566 683.243 653.808 684.772 653.808C686.302 653.808 687.541 652.566 687.541 651.036Z" fill="#8D85DA"/>
<path d="M687.541 685.206L687.541 663.964C687.541 662.434 686.307 661.191 684.772 661.191C683.238 661.191 682 662.434 682 663.964L682 685.206C682 686.74 683.243 687.978 684.772 687.978C686.302 687.978 687.541 686.736 687.541 685.206Z" fill="#8D85DA"/>
<path d="M687.541 698.227L687.541 698.134C687.541 696.604 686.307 695.362 684.772 695.362C683.238 695.362 682 696.604 682 698.134L682 698.227C682 699.757 683.243 701 684.772 701C686.302 701 687.541 699.757 687.541 698.227Z" fill="#8D85DA"/>
<path d="M687.541 710.773L687.541 732.014C687.541 733.544 686.302 734.787 684.772 734.787C683.243 734.787 682 733.548 682 732.014L682 710.773C682 709.243 683.238 708 684.772 708C686.307 708 687.541 709.243 687.541 710.773Z" fill="#8D85DA"/>
<path d="M687.541 745.036L687.541 744.943C687.541 743.413 686.307 742.174 684.772 742.174C683.238 742.174 682 743.413 682 744.943L682 745.036C682 746.566 683.243 747.808 684.772 747.808C686.302 747.808 687.541 746.566 687.541 745.036Z" fill="#8D85DA"/>
<path d="M687.541 779.206L687.541 757.964C687.541 756.434 686.307 755.191 684.772 755.191C683.238 755.191 682 756.434 682 757.964L682 779.206C682 780.74 683.243 781.978 684.772 781.978C686.302 781.978 687.541 780.736 687.541 779.206Z" fill="#8D85DA"/>
<path d="M687.541 792.227L687.541 792.134C687.541 790.604 686.307 789.362 684.772 789.362C683.238 789.362 682 790.604 682 792.134L682 792.227C682 793.757 683.243 795 684.772 795C686.302 795 687.541 793.757 687.541 792.227Z" fill="#8D85DA"/>
<path d="M687.541 804.773L687.541 826.014C687.541 827.544 686.302 828.787 684.772 828.787C683.243 828.787 682 827.548 682 826.014L682 804.773C682 803.243 683.238 802 684.772 802C686.307 802 687.541 803.243 687.541 804.773Z" fill="#8D85DA"/>
<path d="M687.541 839.036L687.541 838.943C687.541 837.413 686.307 836.174 684.772 836.174C683.238 836.174 682 837.413 682 838.943L682 839.036C682 840.566 683.243 841.808 684.772 841.808C686.302 841.808 687.541 840.566 687.541 839.036Z" fill="#8D85DA"/>
<path d="M687.541 873.206L687.541 851.964C687.541 850.434 686.307 849.191 684.772 849.191C683.238 849.191 682 850.434 682 851.964L682 873.206C682 874.74 683.243 875.978 684.772 875.978C686.302 875.978 687.541 874.736 687.541 873.206Z" fill="#8D85DA"/>
<path d="M687.541 886.227L687.541 886.134C687.541 884.604 686.307 883.362 684.772 883.362C683.238 883.362 682 884.604 682 886.134L682 886.227C682 887.757 683.243 889 684.772 889C686.302 889 687.541 887.757 687.541 886.227Z" fill="#8D85DA"/>
<path d="M687.541 898.773L687.541 920.014C687.541 921.544 686.302 922.787 684.772 922.787C683.243 922.787 682 921.548 682 920.014L682 898.773C682 897.243 683.238 896 684.772 896C686.307 896 687.541 897.243 687.541 898.773Z" fill="#8D85DA"/>
<path d="M687.541 933.036L687.541 932.943C687.541 931.413 686.307 930.174 684.772 930.174C683.238 930.174 682 931.413 682 932.943L682 933.036C682 934.566 683.243 935.808 684.772 935.808C686.302 935.808 687.541 934.566 687.541 933.036Z" fill="#8D85DA"/>
<path d="M687.541 967.206L687.541 945.964C687.541 944.434 686.307 943.191 684.772 943.191C683.238 943.191 682 944.434 682 945.964L682 967.206C682 968.74 683.243 969.978 684.772 969.978C686.302 969.978 687.541 968.736 687.541 967.206Z" fill="#8D85DA"/>
<path d="M687.541 980.227L687.541 980.134C687.541 978.604 686.307 977.362 684.772 977.362C683.238 977.362 682 978.604 682 980.134L682 980.227C682 981.757 683.243 983 684.772 983C686.302 983 687.541 981.757 687.541 980.227Z" fill="#8D85DA"/>
<path d="M687.541 992.773L687.541 1014.01C687.541 1015.54 686.302 1016.79 684.772 1016.79C683.243 1016.79 682 1015.55 682 1014.01L682 992.773C682 991.243 683.238 990 684.772 990C686.307 990 687.541 991.243 687.541 992.773Z" fill="#8D85DA"/>
<path d="M687.541 1027.04L687.541 1026.94C687.541 1025.41 686.307 1024.17 684.772 1024.17C683.238 1024.17 682 1025.41 682 1026.94L682 1027.04C682 1028.57 683.243 1029.81 684.772 1029.81C686.302 1029.81 687.541 1028.57 687.541 1027.04Z" fill="#8D85DA"/>
<path d="M687.541 1061.21L687.541 1039.96C687.541 1038.43 686.307 1037.19 684.772 1037.19C683.238 1037.19 682 1038.43 682 1039.96L682 1061.21C682 1062.74 683.243 1063.98 684.772 1063.98C686.302 1063.98 687.541 1062.74 687.541 1061.21Z" fill="#8D85DA"/>
<path d="M687.541 1074.23L687.541 1074.13C687.541 1072.6 686.307 1071.36 684.772 1071.36C683.238 1071.36 682 1072.6 682 1074.13L682 1074.23C682 1075.76 683.243 1077 684.772 1077C686.302 1077 687.541 1075.76 687.541 1074.23Z" fill="#8D85DA"/>
<path d="M1028.54 237.773L1028.54 259.014C1028.54 260.544 1027.3 261.787 1025.77 261.787C1024.24 261.787 1023 260.548 1023 259.014L1023 237.773C1023 236.243 1024.24 235 1025.77 235C1027.31 235 1028.54 236.243 1028.54 237.773Z" fill="#8D85DA"/>
<path d="M1028.54 272.036L1028.54 271.943C1028.54 270.413 1027.31 269.174 1025.77 269.174C1024.24 269.174 1023 270.413 1023 271.943L1023 272.036C1023 273.566 1024.24 274.808 1025.77 274.808C1027.3 274.808 1028.54 273.566 1028.54 272.036Z" fill="#8D85DA"/>
<path d="M1028.54 306.206L1028.54 284.964C1028.54 283.434 1027.31 282.191 1025.77 282.191C1024.24 282.191 1023 283.434 1023 284.964L1023 306.206C1023 307.74 1024.24 308.978 1025.77 308.978C1027.3 308.978 1028.54 307.736 1028.54 306.206Z" fill="#8D85DA"/>
<path d="M1028.54 319.227L1028.54 319.134C1028.54 317.604 1027.31 316.362 1025.77 316.362C1024.24 316.362 1023 317.604 1023 319.134L1023 319.227C1023 320.757 1024.24 322 1025.77 322C1027.3 322 1028.54 320.757 1028.54 319.227Z" fill="#8D85DA"/>
<path d="M1028.54 331.773L1028.54 353.014C1028.54 354.544 1027.3 355.787 1025.77 355.787C1024.24 355.787 1023 354.548 1023 353.014L1023 331.773C1023 330.243 1024.24 329 1025.77 329C1027.31 329 1028.54 330.243 1028.54 331.773Z" fill="#8D85DA"/>
<path d="M1028.54 366.036L1028.54 365.943C1028.54 364.413 1027.31 363.174 1025.77 363.174C1024.24 363.174 1023 364.413 1023 365.943L1023 366.036C1023 367.566 1024.24 368.808 1025.77 368.808C1027.3 368.808 1028.54 367.566 1028.54 366.036Z" fill="#8D85DA"/>
<path d="M1028.54 400.206L1028.54 378.964C1028.54 377.434 1027.31 376.191 1025.77 376.191C1024.24 376.191 1023 377.434 1023 378.964L1023 400.206C1023 401.74 1024.24 402.978 1025.77 402.978C1027.3 402.978 1028.54 401.736 1028.54 400.206Z" fill="#8D85DA"/>
<path d="M1028.54 413.227L1028.54 413.134C1028.54 411.604 1027.31 410.362 1025.77 410.362C1024.24 410.362 1023 411.604 1023 413.134L1023 413.227C1023 414.757 1024.24 416 1025.77 416C1027.3 416 1028.54 414.757 1028.54 413.227Z" fill="#8D85DA"/>
<path d="M1028.54 425.773L1028.54 447.014C1028.54 448.544 1027.3 449.787 1025.77 449.787C1024.24 449.787 1023 448.548 1023 447.014L1023 425.773C1023 424.243 1024.24 423 1025.77 423C1027.31 423 1028.54 424.243 1028.54 425.773Z" fill="#8D85DA"/>
<path d="M1028.54 460.036L1028.54 459.943C1028.54 458.413 1027.31 457.174 1025.77 457.174C1024.24 457.174 1023 458.413 1023 459.943L1023 460.036C1023 461.566 1024.24 462.808 1025.77 462.808C1027.3 462.808 1028.54 461.566 1028.54 460.036Z" fill="#8D85DA"/>
<path d="M1028.54 494.206L1028.54 472.964C1028.54 471.434 1027.31 470.191 1025.77 470.191C1024.24 470.191 1023 471.434 1023 472.964L1023 494.206C1023 495.74 1024.24 496.978 1025.77 496.978C1027.3 496.978 1028.54 495.736 1028.54 494.206Z" fill="#8D85DA"/>
<path d="M1028.54 507.227L1028.54 507.134C1028.54 505.604 1027.31 504.362 1025.77 504.362C1024.24 504.362 1023 505.604 1023 507.134L1023 507.227C1023 508.757 1024.24 510 1025.77 510C1027.3 510 1028.54 508.757 1028.54 507.227Z" fill="#8D85DA"/>
<path d="M1028.54 519.773L1028.54 541.014C1028.54 542.544 1027.3 543.787 1025.77 543.787C1024.24 543.787 1023 542.548 1023 541.014L1023 519.773C1023 518.243 1024.24 517 1025.77 517C1027.31 517 1028.54 518.243 1028.54 519.773Z" fill="#8D85DA"/>
<path d="M1028.54 554.036L1028.54 553.943C1028.54 552.413 1027.31 551.174 1025.77 551.174C1024.24 551.174 1023 552.413 1023 553.943L1023 554.036C1023 555.566 1024.24 556.808 1025.77 556.808C1027.3 556.808 1028.54 555.566 1028.54 554.036Z" fill="#8D85DA"/>
<path d="M1028.54 2.77255L1028.54 24.0142C1028.54 25.5441 1027.3 26.7866 1025.77 26.7866C1024.24 26.7866 1023 25.5483 1023 24.0142L1023 2.77254C1023 1.24261 1024.24 3.6402e-05 1025.77 3.66032e-05C1027.31 3.68044e-05 1028.54 1.24261 1028.54 2.77255Z" fill="#8D85DA"/>
<path d="M1028.54 37.0356L1028.54 36.9426C1028.54 35.4127 1027.31 34.1744 1025.77 34.1744C1024.24 34.1744 1023 35.4127 1023 36.9426L1023 37.0356C1023 38.5655 1024.24 39.8081 1025.77 39.8081C1027.3 39.8081 1028.54 38.5655 1028.54 37.0356Z" fill="#8D85DA"/>
<path d="M1028.54 71.2056L1028.54 49.9639C1028.54 48.434 1027.31 47.1914 1025.77 47.1914C1024.24 47.1914 1023 48.434 1023 49.9639L1023 71.2056C1023 72.7397 1024.24 73.978 1025.77 73.978C1027.3 73.978 1028.54 72.7355 1028.54 71.2056Z" fill="#8D85DA"/>
<path d="M1028.54 84.227L1028.54 84.134C1028.54 82.6041 1027.31 81.3615 1025.77 81.3615C1024.24 81.3615 1023 82.6041 1023 84.134L1023 84.227C1023 85.7569 1024.24 86.9995 1025.77 86.9995C1027.3 86.9995 1028.54 85.7569 1028.54 84.227Z" fill="#8D85DA"/>
<path d="M1028.54 96.7725L1028.54 118.014C1028.54 119.544 1027.3 120.787 1025.77 120.787C1024.24 120.787 1023 119.548 1023 118.014L1023 96.7725C1023 95.2426 1024.24 94 1025.77 94C1027.31 94 1028.54 95.2426 1028.54 96.7725Z" fill="#8D85DA"/>
<path d="M1028.54 131.036L1028.54 130.943C1028.54 129.413 1027.31 128.174 1025.77 128.174C1024.24 128.174 1023 129.413 1023 130.943L1023 131.036C1023 132.566 1024.24 133.808 1025.77 133.808C1027.3 133.808 1028.54 132.566 1028.54 131.036Z" fill="#8D85DA"/>
<path d="M1028.54 165.206L1028.54 143.964C1028.54 142.434 1027.31 141.191 1025.77 141.191C1024.24 141.191 1023 142.434 1023 143.964L1023 165.206C1023 166.74 1024.24 167.978 1025.77 167.978C1027.3 167.978 1028.54 166.736 1028.54 165.206Z" fill="#8D85DA"/>
<path d="M1028.54 178.227L1028.54 178.134C1028.54 176.604 1027.31 175.362 1025.77 175.362C1024.24 175.362 1023 176.604 1023 178.134L1023 178.227C1023 179.757 1024.24 181 1025.77 181C1027.3 181 1028.54 179.757 1028.54 178.227Z" fill="#8D85DA"/>
<path d="M1028.54 190.773L1028.54 212.014C1028.54 213.544 1027.3 214.787 1025.77 214.787C1024.24 214.787 1023 213.548 1023 212.014L1023 190.773C1023 189.243 1024.24 188 1025.77 188C1027.31 188 1028.54 189.243 1028.54 190.773Z" fill="#8D85DA"/>
<path d="M1028.54 225.036L1028.54 224.943C1028.54 223.413 1027.31 222.174 1025.77 222.174C1024.24 222.174 1023 223.413 1023 224.943L1023 225.036C1023 226.566 1024.24 227.808 1025.77 227.808C1027.3 227.808 1028.54 226.566 1028.54 225.036Z" fill="#8D85DA"/>
<path d="M1028.54 588.206L1028.54 566.964C1028.54 565.434 1027.31 564.191 1025.77 564.191C1024.24 564.191 1023 565.434 1023 566.964L1023 588.206C1023 589.74 1024.24 590.978 1025.77 590.978C1027.3 590.978 1028.54 589.736 1028.54 588.206Z" fill="#8D85DA"/>
<path d="M1028.54 601.227L1028.54 601.134C1028.54 599.604 1027.31 598.362 1025.77 598.362C1024.24 598.362 1023 599.604 1023 601.134L1023 601.227C1023 602.757 1024.24 604 1025.77 604C1027.3 604 1028.54 602.757 1028.54 601.227Z" fill="#8D85DA"/>
<path d="M1028.54 613.773L1028.54 635.014C1028.54 636.544 1027.3 637.787 1025.77 637.787C1024.24 637.787 1023 636.548 1023 635.014L1023 613.773C1023 612.243 1024.24 611 1025.77 611C1027.31 611 1028.54 612.243 1028.54 613.773Z" fill="#8D85DA"/>
<path d="M1028.54 648.036L1028.54 647.943C1028.54 646.413 1027.31 645.174 1025.77 645.174C1024.24 645.174 1023 646.413 1023 647.943L1023 648.036C1023 649.566 1024.24 650.808 1025.77 650.808C1027.3 650.808 1028.54 649.566 1028.54 648.036Z" fill="#8D85DA"/>
<path d="M1028.54 682.206L1028.54 660.964C1028.54 659.434 1027.31 658.191 1025.77 658.191C1024.24 658.191 1023 659.434 1023 660.964L1023 682.206C1023 683.74 1024.24 684.978 1025.77 684.978C1027.3 684.978 1028.54 683.736 1028.54 682.206Z" fill="#8D85DA"/>
<path d="M1028.54 695.227L1028.54 695.134C1028.54 693.604 1027.31 692.362 1025.77 692.362C1024.24 692.362 1023 693.604 1023 695.134L1023 695.227C1023 696.757 1024.24 698 1025.77 698C1027.3 698 1028.54 696.757 1028.54 695.227Z" fill="#8D85DA"/>
<path d="M1028.54 707.773L1028.54 729.014C1028.54 730.544 1027.3 731.787 1025.77 731.787C1024.24 731.787 1023 730.548 1023 729.014L1023 707.773C1023 706.243 1024.24 705 1025.77 705C1027.31 705 1028.54 706.243 1028.54 707.773Z" fill="#8D85DA"/>
<path d="M1028.54 742.036L1028.54 741.943C1028.54 740.413 1027.31 739.174 1025.77 739.174C1024.24 739.174 1023 740.413 1023 741.943L1023 742.036C1023 743.566 1024.24 744.808 1025.77 744.808C1027.3 744.808 1028.54 743.566 1028.54 742.036Z" fill="#8D85DA"/>
<path d="M1028.54 776.206L1028.54 754.964C1028.54 753.434 1027.31 752.191 1025.77 752.191C1024.24 752.191 1023 753.434 1023 754.964L1023 776.206C1023 777.74 1024.24 778.978 1025.77 778.978C1027.3 778.978 1028.54 777.736 1028.54 776.206Z" fill="#8D85DA"/>
<path d="M1028.54 789.227L1028.54 789.134C1028.54 787.604 1027.31 786.362 1025.77 786.362C1024.24 786.362 1023 787.604 1023 789.134L1023 789.227C1023 790.757 1024.24 792 1025.77 792C1027.3 792 1028.54 790.757 1028.54 789.227Z" fill="#8D85DA"/>
<path d="M1028.54 801.773L1028.54 823.014C1028.54 824.544 1027.3 825.787 1025.77 825.787C1024.24 825.787 1023 824.548 1023 823.014L1023 801.773C1023 800.243 1024.24 799 1025.77 799C1027.31 799 1028.54 800.243 1028.54 801.773Z" fill="#8D85DA"/>
<path d="M1028.54 836.036L1028.54 835.943C1028.54 834.413 1027.31 833.174 1025.77 833.174C1024.24 833.174 1023 834.413 1023 835.943L1023 836.036C1023 837.566 1024.24 838.808 1025.77 838.808C1027.3 838.808 1028.54 837.566 1028.54 836.036Z" fill="#8D85DA"/>
<path d="M1028.54 870.206L1028.54 848.964C1028.54 847.434 1027.31 846.191 1025.77 846.191C1024.24 846.191 1023 847.434 1023 848.964L1023 870.206C1023 871.74 1024.24 872.978 1025.77 872.978C1027.3 872.978 1028.54 871.736 1028.54 870.206Z" fill="#8D85DA"/>
<path d="M1028.54 883.227L1028.54 883.134C1028.54 881.604 1027.31 880.362 1025.77 880.362C1024.24 880.362 1023 881.604 1023 883.134L1023 883.227C1023 884.757 1024.24 886 1025.77 886C1027.3 886 1028.54 884.757 1028.54 883.227Z" fill="#8D85DA"/>
<path d="M1028.54 895.773L1028.54 917.014C1028.54 918.544 1027.3 919.787 1025.77 919.787C1024.24 919.787 1023 918.548 1023 917.014L1023 895.773C1023 894.243 1024.24 893 1025.77 893C1027.31 893 1028.54 894.243 1028.54 895.773Z" fill="#8D85DA"/>
<path d="M1028.54 930.036L1028.54 929.943C1028.54 928.413 1027.31 927.174 1025.77 927.174C1024.24 927.174 1023 928.413 1023 929.943L1023 930.036C1023 931.566 1024.24 932.808 1025.77 932.808C1027.3 932.808 1028.54 931.566 1028.54 930.036Z" fill="#8D85DA"/>
<path d="M1028.54 964.206L1028.54 942.964C1028.54 941.434 1027.31 940.191 1025.77 940.191C1024.24 940.191 1023 941.434 1023 942.964L1023 964.206C1023 965.74 1024.24 966.978 1025.77 966.978C1027.3 966.978 1028.54 965.736 1028.54 964.206Z" fill="#8D85DA"/>
<path d="M1028.54 977.227L1028.54 977.134C1028.54 975.604 1027.31 974.362 1025.77 974.362C1024.24 974.362 1023 975.604 1023 977.134L1023 977.227C1023 978.757 1024.24 980 1025.77 980C1027.3 980 1028.54 978.757 1028.54 977.227Z" fill="#8D85DA"/>
<path d="M1028.54 989.773L1028.54 1011.01C1028.54 1012.54 1027.3 1013.79 1025.77 1013.79C1024.24 1013.79 1023 1012.55 1023 1011.01L1023 989.773C1023 988.243 1024.24 987 1025.77 987C1027.31 987 1028.54 988.243 1028.54 989.773Z" fill="#8D85DA"/>
<path d="M1028.54 1024.04L1028.54 1023.94C1028.54 1022.41 1027.31 1021.17 1025.77 1021.17C1024.24 1021.17 1023 1022.41 1023 1023.94L1023 1024.04C1023 1025.57 1024.24 1026.81 1025.77 1026.81C1027.3 1026.81 1028.54 1025.57 1028.54 1024.04Z" fill="#8D85DA"/>
<path d="M1028.54 1058.21L1028.54 1036.96C1028.54 1035.43 1027.31 1034.19 1025.77 1034.19C1024.24 1034.19 1023 1035.43 1023 1036.96L1023 1058.21C1023 1059.74 1024.24 1060.98 1025.77 1060.98C1027.3 1060.98 1028.54 1059.74 1028.54 1058.21Z" fill="#8D85DA"/>
<path d="M1028.54 1071.23L1028.54 1071.13C1028.54 1069.6 1027.31 1068.36 1025.77 1068.36C1024.24 1068.36 1023 1069.6 1023 1071.13L1023 1071.23C1023 1072.76 1024.24 1074 1025.77 1074C1027.3 1074 1028.54 1072.76 1028.54 1071.23Z" fill="#8D85DA"/>
</svg>
