<svg width="300" height="410" viewBox="0 0 300 410" fill="none" xmlns="http://www.w3.org/2000/svg">
<path d="M180.091 148.086L148.72 116.715C140.563 108.559 127.336 108.559 119.175 116.715L107.877 128.013C99.7204 136.169 86.493 136.169 78.3316 128.013L67.0335 116.715C58.8773 108.559 45.6499 108.559 37.4885 116.715L6.11717 148.086C-2.03906 156.242 -2.03906 169.47 6.11717 177.631L17.4152 188.929C25.5714 197.085 25.5714 210.313 17.4152 218.474L6.11717 229.772C-2.03906 237.929 -2.03906 251.156 6.11717 259.317L37.4885 290.689C45.6447 298.845 58.8722 298.845 67.0335 290.689L78.3316 279.391C86.4878 271.234 99.7152 271.234 107.877 279.391L119.175 290.689C127.331 298.845 140.558 298.845 148.72 290.689L180.091 259.317C188.247 251.161 188.247 237.934 180.091 229.772L168.793 218.474C160.637 210.318 160.637 197.091 168.793 188.929L180.091 177.631C188.247 169.475 188.247 156.248 180.091 148.086Z" fill="#5448C8"/>
<path d="M22.7231 90.3944C22.7231 71.3219 30.1519 53.3895 43.6373 39.899C57.1227 26.4136 75.0602 18.9848 94.1327 18.9848C113.205 18.9848 131.138 26.4136 144.628 39.899C158.113 53.3844 165.542 71.3167 165.542 90.3944C165.542 102.606 162.493 114.347 156.762 124.758L170.619 138.615C173.456 134.121 175.891 129.38 177.908 124.407C182.298 113.573 184.527 102.131 184.527 90.3944C184.527 78.6579 182.298 67.2154 177.908 56.3817C173.358 45.1611 166.677 35.1012 158.052 26.4755C149.426 17.8498 139.361 11.169 128.145 6.61888C117.312 2.22865 105.869 0 94.1327 0C82.3961 0 70.9537 2.22865 60.12 6.61888C48.8994 11.169 38.8395 17.8498 30.2138 26.4755C21.5881 35.1012 14.9073 45.1662 10.3572 56.3817C5.96694 67.2154 3.73828 78.6579 3.73828 90.3944C3.73828 102.131 5.96694 113.573 10.3572 124.407C12.1834 128.911 14.3605 133.229 16.8625 137.34L30.7813 123.422C25.514 113.346 22.7179 102.09 22.7179 90.3944H22.7231Z" fill="#F8AE35"/>
<path d="M94.1312 218.022L94.0254 218.128L94.1312 218.233L94.237 218.128L94.1312 218.022Z" fill="#FF7BAC"/>
<path d="M165.542 319.006C165.542 338.079 158.113 356.011 144.628 369.502C131.143 382.987 113.205 390.416 94.1327 390.416C75.0602 390.416 57.1278 382.987 43.6373 369.502C30.1519 356.016 22.7231 338.079 22.7231 319.006C22.7231 306.805 25.7668 295.079 31.4829 284.679L17.7086 270.905C14.8454 275.429 12.3846 280.201 10.3572 285.21C5.96694 296.044 3.73828 307.486 3.73828 319.223C3.73828 330.959 5.96694 342.402 10.3572 353.236C14.9073 364.456 21.5881 374.516 30.2138 383.142C38.8395 391.767 48.9045 398.448 60.12 402.998C70.9537 407.389 82.3961 409.617 94.1327 409.617C105.869 409.617 117.312 407.389 128.145 402.998C139.366 398.448 149.426 391.767 158.052 383.142C166.677 374.516 173.358 364.451 177.908 353.236C182.298 342.402 184.527 330.959 184.527 319.223C184.527 307.486 182.298 296.044 177.908 285.21C175.69 279.742 172.961 274.547 169.752 269.656L156.045 283.363C162.241 294.084 165.547 306.289 165.547 319.006H165.542Z" fill="#F8AE35"/>
<path d="M130.235 227.487L107.556 204.809L131.344 181.021L158.052 154.313C162.854 149.51 167.054 144.259 170.619 138.61L156.762 124.753C153.543 130.603 149.477 136.035 144.623 140.885L117.915 167.592L94.1275 191.38L69.3132 166.566L43.6321 140.885C38.4113 135.664 34.1036 129.777 30.7761 123.417L16.8574 137.335C20.5873 143.464 25.0446 149.144 30.2087 154.308L55.8897 179.989L80.704 204.803L56.9989 228.509L30.2087 255.299C25.4315 260.076 21.258 265.292 17.7035 270.899L31.4778 284.674C34.7021 278.813 38.7725 273.37 43.6321 268.506L70.314 241.824L94.0192 218.119L94.1275 218.01L94.2359 218.119L116.914 240.797L144.623 268.506C149.121 273.004 152.939 277.998 156.04 283.358L169.747 269.651C166.373 264.513 162.468 259.715 158.046 255.294L130.23 227.477L130.235 227.487Z" fill="#92848C"/>
<path d="M255.922 300.336C255.839 300.372 255.751 300.408 255.664 300.455L255.633 300.475V300.383C255.731 300.367 255.824 300.352 255.922 300.336Z" fill="#92848C"/>
<path d="M299.179 341.762V341.979C299.179 342.252 299.173 342.521 299.163 342.789C299.173 342.448 299.179 342.108 299.179 341.762Z" fill="#92848C"/>
<path d="M255.922 300.336C255.839 300.372 255.751 300.408 255.664 300.455L255.633 300.475V300.383C255.731 300.367 255.824 300.352 255.922 300.336Z" fill="#92848C"/>
<path d="M299.163 342.789C299.173 342.521 299.179 342.252 299.179 341.979V341.762C299.179 342.108 299.173 342.448 299.163 342.789Z" fill="#92848C"/>
<path d="M298.364 277.498L284.429 286.407L277.78 290.653C272.636 286.01 266.755 282.182 260.322 279.37C258.826 278.715 257.304 278.112 255.751 277.575C255.715 277.554 255.674 277.544 255.627 277.534V297.556C255.725 297.54 255.818 297.525 255.916 297.509C257.314 297.292 258.748 297.174 260.213 297.174C262.365 297.174 264.454 297.421 266.461 297.891L258.341 303.081L255.632 301.817V325.063L276.97 311.423L282.123 308.126C285.554 312.697 287.592 318.382 287.592 324.542C287.592 331.563 284.945 337.97 280.596 342.815C280.581 342.835 280.56 342.851 280.54 342.871V326.77C275.989 324.531 271.429 323.938 267.266 324.939C263.495 325.842 260.188 328.07 257.954 331.202C255.668 334.411 254.647 338.373 255.07 342.355C255.137 342.99 255.24 343.625 255.385 344.249C255.963 346.9 257.17 349.47 258.939 351.869C259.677 352.869 260.513 353.844 261.446 354.773C265.625 358.952 271.176 361.253 277.083 361.253C282.99 361.253 288.536 358.952 292.709 354.773C296.697 350.79 298.972 345.554 299.168 339.951C299.179 339.611 299.184 339.27 299.184 338.925V338.76C299.184 325.868 295.423 313.858 288.933 303.767L295.66 299.464L298.369 300.728V277.487L298.364 277.498ZM268.648 352.591C265.151 354.737 262.618 355.444 261.704 354.53C261.039 353.86 260.827 352.978 261.091 351.899C261.142 351.672 261.219 351.435 261.312 351.193C261.859 349.815 263.046 348.268 264.66 346.772C265.465 346.023 266.378 345.286 267.374 344.594C270.408 342.49 273.647 341.195 276.056 341.123C277.96 341.066 279.296 341.731 280.044 343.098C280.08 343.155 280.106 343.217 280.142 343.274C279.26 344.135 278.378 344.976 277.496 345.776C274.406 348.582 271.346 350.945 268.648 352.596V352.591Z" fill="#92848C"/>
<path d="M255.633 280.361C255.674 280.371 255.721 280.381 255.757 280.402L255.633 280.325V280.361ZM255.633 300.465V300.475L255.664 300.455C255.664 300.455 255.643 300.46 255.633 300.465Z" fill="#92848C"/>
<path d="M255.922 300.336C255.839 300.372 255.751 300.408 255.664 300.455C255.653 300.455 255.643 300.46 255.633 300.465V300.388C255.731 300.372 255.824 300.357 255.922 300.341V300.336Z" fill="#92848C"/>
<path d="M298.353 212.439V231.779H276.273C271.553 231.779 267.782 232.306 265.068 233.348C262.38 234.38 261.374 235.664 261.003 236.562C260.626 237.47 260.745 238.419 261.297 239.095H292.111L298.358 236.185V258.436L292.111 255.526H261.89L255.643 258.436V239.095H260.765C258.207 236.422 256.396 233.446 255.509 230.454C254.621 227.441 254.693 224.542 255.72 222.065C257.49 217.799 261.844 215.348 267.673 215.348H292.111L298.358 212.439H298.353Z" fill="#92848C"/>
<path d="M292.095 207.177H266.75L260.502 210.086V190.746H292.095L298.348 187.836V210.086L292.095 207.177ZM249.963 206.836C245.614 208.152 241.017 205.696 239.702 201.347C238.386 196.998 240.842 192.402 245.191 191.086C249.54 189.77 254.131 192.226 255.452 196.575C256.767 200.924 254.312 205.521 249.963 206.836Z" fill="#92848C"/>
<path d="M298.353 139.456V158.796H276.995C272.275 158.796 268.504 159.323 265.79 160.365C263.102 161.396 262.096 162.681 261.725 163.579C261.343 164.492 261.467 165.451 262.029 166.122H292.106L298.353 163.212V185.463L292.106 182.553H245.614L239.366 185.463V166.122H261.498C258.929 163.445 257.113 160.463 256.226 157.465C255.338 154.453 255.41 151.553 256.437 149.077C258.207 144.811 262.566 142.36 268.39 142.36H292.106L298.353 139.451V139.456Z" fill="#92848C"/>
<path d="M292.095 134.127H266.75L260.502 137.036V117.695H292.095L298.348 114.786V137.036L292.095 134.127ZM249.963 133.786C245.614 135.102 241.017 132.646 239.702 128.297C238.386 123.948 240.842 119.351 245.191 118.036C249.54 116.72 254.131 119.176 255.452 123.525C256.767 127.874 254.312 132.471 249.963 133.786Z" fill="#92848C"/>
<path d="M292.096 109.503H253.079L247.997 111.866L246.723 109.126L239.253 93.0668H292.101L298.353 90.1571V112.408L292.101 109.498L292.096 109.503Z" fill="#92848C"/>
<path d="M277.073 87.5209C271.166 87.5209 265.615 85.2201 261.441 81.0465C257.268 76.873 254.967 71.322 254.967 65.415C254.967 59.5081 257.268 53.9623 261.441 49.7835C265.615 45.61 271.166 43.3091 277.073 43.3091C282.98 43.3091 288.525 45.61 292.704 49.7835C296.878 53.9571 299.179 59.5081 299.179 65.415C299.179 71.322 296.878 76.873 292.704 81.0465C288.525 85.2201 282.98 87.5209 277.073 87.5209ZM268.127 78.3381C271.609 75.9805 275.804 72.4105 279.936 68.2782C284.068 64.1459 287.643 59.9517 289.996 56.4695C292.235 53.1575 293.148 50.7586 292.441 50.0518C291.734 49.345 289.33 50.2582 286.018 52.4971C282.536 54.8547 278.342 58.4247 274.21 62.557C265.016 71.7502 260.322 79.4008 261.704 80.7834C262.421 81.5005 264.81 80.577 268.122 78.3381H268.127Z" fill="#92848C"/>
</svg>
