<svg width="73" height="160" viewBox="0 0 73 160" fill="none" xmlns="http://www.w3.org/2000/svg">
<path d="M70.4636 57.8211L58.2146 45.5721C55.03 42.3874 49.8653 42.3874 46.6786 45.5721L42.2673 49.9834C39.0826 53.168 33.918 53.168 30.7313 49.9834L26.32 45.5721C23.1353 42.3874 17.9706 42.3874 14.784 45.5721L2.53496 57.8211C-0.649673 61.0057 -0.649673 66.1704 2.53496 69.3571L6.9463 73.7684C10.1309 76.953 10.1309 82.1177 6.9463 85.3044L2.53496 89.7157C-0.649673 92.9004 -0.649673 98.0651 2.53496 101.252L14.784 113.501C17.9686 116.685 23.1333 116.685 26.32 113.501L30.7313 109.089C33.9159 105.905 39.0806 105.905 42.2673 109.089L46.6786 113.501C49.8633 116.685 55.028 116.685 58.2146 113.501L70.4636 101.252C73.6483 98.0671 73.6483 92.9024 70.4636 89.7157L66.0523 85.3044C62.8677 82.1198 62.8677 76.9551 66.0523 73.7684L70.4636 69.3571C73.6483 66.1724 73.6483 61.0077 70.4636 57.8211Z" fill="#5448C8"/>
<path d="M9.01814 35.2948C9.01814 27.8479 11.9188 20.8461 17.1842 15.5787C22.4496 10.3133 29.4533 7.41267 36.9003 7.41267C44.3472 7.41267 51.3489 10.3133 56.6164 15.5787C61.8818 20.8441 64.7824 27.8459 64.7824 35.2948C64.7824 40.0627 63.5919 44.6472 61.354 48.7121L66.7645 54.1226C67.8723 52.3681 68.8231 50.517 69.6107 48.5752C71.3249 44.3451 72.1951 39.8774 72.1951 35.2948C72.1951 30.7122 71.3249 26.2445 69.6107 22.0144C67.8341 17.6333 65.2255 13.7054 61.8576 10.3375C58.4897 6.96952 54.5597 4.36099 50.1806 2.58436C45.9506 0.870184 41.4828 0 36.9003 0C32.3177 0 27.85 0.870184 23.6199 2.58436C19.2388 4.36099 15.3109 6.96952 11.9429 10.3375C8.57499 13.7054 5.96646 17.6353 4.18984 22.0144C2.47566 26.2445 1.60547 30.7122 1.60547 35.2948C1.60547 39.8774 2.47566 44.3451 4.18984 48.5752C4.9029 50.3337 5.75294 52.0196 6.72988 53.625L12.1645 48.1904C10.1079 44.2565 9.01613 39.8612 9.01613 35.2948H9.01814Z" fill="#F8AE35"/>
<path d="M36.9007 85.1276L36.8594 85.1689L36.9007 85.2102L36.942 85.1689L36.9007 85.1276Z" fill="#FF7BAC"/>
<path d="M64.7824 124.557C64.7824 132.004 61.8818 139.006 56.6164 144.273C51.351 149.539 44.3472 152.439 36.9003 152.439C29.4533 152.439 22.4516 149.539 17.1842 144.273C11.9188 139.008 9.01814 132.004 9.01814 124.557C9.01814 119.793 10.2066 115.215 12.4384 111.154L7.06023 105.776C5.94229 107.542 4.98146 109.405 4.18984 111.361C2.47566 115.591 1.60547 120.059 1.60547 124.642C1.60547 129.224 2.47566 133.692 4.18984 137.922C5.96646 142.303 8.57499 146.231 11.9429 149.599C15.3109 152.967 19.2408 155.575 23.6199 157.352C27.85 159.066 32.3177 159.936 36.9003 159.936C41.4828 159.936 45.9506 159.066 50.1806 157.352C54.5618 155.575 58.4897 152.967 61.8576 149.599C65.2255 146.231 67.8341 142.301 69.6107 137.922C71.3249 133.692 72.1951 129.224 72.1951 124.642C72.1951 120.059 71.3249 115.591 69.6107 111.361C68.7445 109.226 67.679 107.198 66.4261 105.288L61.074 110.64C63.4932 114.826 64.7844 119.592 64.7844 124.557H64.7824Z" fill="#F8AE35"/>
<path d="M50.9971 88.8232L42.1422 79.9683L51.4302 70.6803L61.8582 60.2522C63.7336 58.3769 65.3732 56.3263 66.7651 54.1206L61.3547 48.7102C60.0977 50.9944 58.5105 53.1155 56.615 55.0089L46.1869 65.437L36.8989 74.725L27.21 65.0362L17.1828 55.0089C15.1443 52.9705 13.4624 50.6721 12.1631 48.1885L6.72852 53.6231C8.18486 56.0161 9.92523 58.2339 11.9416 60.2502L21.9688 70.2774L31.6576 79.9663L22.4019 89.222L11.9416 99.6824C10.0763 101.548 8.44672 103.584 7.05886 105.774L12.4371 111.152C13.696 108.864 15.2853 106.739 17.1828 104.839L27.6008 94.421L36.8566 85.1652L36.8989 85.1229L36.9412 85.1652L45.7961 94.0201L56.615 104.839C58.3715 106.595 59.8621 108.545 61.0727 110.638L66.4247 105.286C65.1073 103.28 63.5825 101.407 61.8562 99.6804L50.9951 88.8192L50.9971 88.8232Z" fill="#92848C"/>
</svg>
