<svg width="330" height="329" viewBox="0 0 330 329" fill="none" xmlns="http://www.w3.org/2000/svg">
<path d="M261.985 135.075C266.911 151.435 252.491 168.538 248.826 184.049C245.042 200.057 250.026 221.789 238.783 233.803C227.874 245.424 206.124 241.946 189.764 246.871C173.405 251.796 157.187 266.704 141.672 263.039C125.668 259.26 117.826 238.39 105.835 227.129C94.2134 216.22 72.746 209.925 67.8208 193.561C62.8956 177.197 77.3152 160.098 80.9806 144.588C84.7646 128.58 79.7801 106.848 91.0227 94.8563C101.932 83.2348 123.682 86.7131 140.042 81.7879C156.402 76.8627 172.62 61.9547 188.135 65.62C204.138 69.3995 211.98 90.2689 223.971 101.53C235.593 112.398 257.06 118.693 261.985 135.075Z" fill="#5448C8"/>
</svg>
