<svg width="329" height="329" viewBox="0 0 329 329" fill="none" xmlns="http://www.w3.org/2000/svg">
<path d="M265.199 164.299C265.199 174.366 248.862 181.745 245.911 190.811C242.855 200.241 251.639 215.767 245.934 223.603C240.172 231.519 222.643 227.941 214.726 233.698C206.89 239.403 204.91 257.216 195.494 260.271C186.413 263.222 174.381 250.073 164.315 250.073C154.249 250.073 142.216 263.222 133.135 260.271C123.706 257.216 121.74 239.403 113.903 233.698C105.987 227.941 88.4431 231.519 82.6956 223.603C76.9906 215.767 85.7744 200.227 82.7192 190.811C79.7535 181.745 63.4023 174.366 63.4023 164.299C63.4023 154.233 79.7394 146.854 82.6909 137.788C85.7461 128.358 76.9623 112.832 82.6673 104.996C88.4289 97.0795 105.959 100.658 113.875 94.9012C121.711 89.1962 123.691 71.3834 133.107 68.3282C142.188 65.3767 154.22 78.5264 164.287 78.5264C174.353 78.5264 186.385 65.3767 195.466 68.3282C204.896 71.3834 206.862 89.1962 214.698 94.9012C222.614 100.658 240.158 97.0795 245.906 104.996C251.611 112.832 242.827 128.372 245.882 137.788C248.848 146.854 265.199 154.233 265.199 164.299Z" fill="#5448C8"/>
</svg>
