<svg width="329" height="329" viewBox="0 0 329 329" fill="none" xmlns="http://www.w3.org/2000/svg">
<path d="M259.509 164.3C259.509 174.122 249.818 182.291 246.94 191.152C243.952 200.339 246.893 212.614 241.341 220.268C235.721 227.988 223.091 228.967 215.369 234.585C207.725 240.15 202.922 251.891 193.738 254.874C184.877 257.746 174.133 251.168 164.311 251.168C154.489 251.168 143.745 257.749 134.884 254.874C125.699 251.891 120.897 240.15 113.253 234.585C105.531 228.967 92.9012 227.988 87.2811 220.268C81.7081 212.614 84.6487 200.339 81.6611 191.152C78.7884 182.291 69.0918 174.122 69.0918 164.3C69.0918 154.478 78.7832 146.309 81.6611 137.448C84.6487 128.261 81.7081 115.987 87.2602 108.332C92.8803 100.613 105.51 99.6335 113.232 94.0161C120.876 88.4509 125.679 76.7094 134.863 73.727C143.724 70.8544 154.468 77.4328 164.29 77.4328C174.112 77.4328 184.856 70.8517 193.717 73.727C202.902 76.7094 207.704 88.4509 215.348 94.0161C223.07 99.6335 235.7 100.613 241.32 108.332C246.893 115.987 243.952 128.261 246.94 137.448C249.818 146.309 259.509 154.478 259.509 164.3Z" fill="#5448C8"/>
</svg>
