<svg width="329" height="329" viewBox="0 0 329 329" fill="none" xmlns="http://www.w3.org/2000/svg">
<path d="M173.244 276.307C168.752 276.3 164.333 275.161 160.398 272.996C156.462 270.83 153.135 267.707 150.726 263.916C148.316 260.125 146.9 255.788 146.61 251.305C146.32 246.822 147.165 242.338 149.065 238.268L153.594 228.584L130.877 218.726C126.853 216.981 123.319 214.272 120.59 210.838C117.86 207.404 116.018 203.35 115.227 199.035C114.435 194.72 114.718 190.277 116.051 186.098C117.384 181.918 119.726 178.131 122.87 175.072L161.142 137.835L117.927 106.861C112.167 102.733 108.282 96.4865 107.127 89.4946C105.972 82.5027 107.642 75.3384 111.769 69.5778C115.897 63.8171 122.144 59.9321 129.136 58.7772C136.127 57.6224 143.292 59.2924 149.052 63.4198L218.21 113.002C221.385 115.278 224.022 118.223 225.936 121.629C227.849 125.034 228.993 128.818 229.286 132.714C229.579 136.609 229.014 140.522 227.631 144.176C226.248 147.829 224.081 151.135 221.282 153.86L188.698 185.57L200.064 190.499C203.34 191.92 206.298 193.983 208.763 196.567C211.228 199.15 213.15 202.202 214.415 205.541C215.681 208.881 216.263 212.44 216.129 216.008C215.996 219.576 215.147 223.082 213.635 226.317L197.458 260.908C195.306 265.513 191.884 269.408 187.595 272.137C183.306 274.865 178.327 276.312 173.244 276.31" fill="#5447C7"/>
</svg>
