<svg width="329" height="329" viewBox="0 0 329 329" fill="none" xmlns="http://www.w3.org/2000/svg">
<path d="M60.6596 126.244C55.5457 142.084 61.9227 162.297 77.4358 168.324C87.1113 172.093 99.3873 170.477 106.557 177.989C112.793 184.522 112.039 194.916 110.04 203.725C106.994 217.141 101.993 230.964 105.45 244.281C108.7 256.81 119.158 266.491 130.956 271.794C142.753 277.097 155.868 278.608 168.765 279.588C182.187 280.61 196.521 280.92 208.109 274.067C218.848 267.713 225.576 255.877 227.954 243.621C230.332 231.366 228.805 218.671 226.077 206.487C224.134 197.811 221.73 188.097 226.417 180.539C232.7 170.393 247.128 170.589 258.44 166.785C271.225 162.481 281.514 151.374 284.821 138.287C288.127 125.201 284.348 110.544 275.132 100.697C264.986 89.8406 249.895 85.435 235.571 81.4819C219.495 77.0302 202.487 72.5709 186.378 76.8947C177.827 79.196 169.471 83.9366 160.711 82.6658C146.195 80.5614 136.931 62.8059 122.252 62.8826C115.471 62.9184 109.234 67.0453 105.015 72.3433C101.111 77.2552 99.9345 83.7371 96.2908 88.5749C93.3708 92.4538 88.3489 94.2565 84.3958 96.9771C73.9174 104.195 64.6459 113.93 60.6596 126.244Z" fill="#5448C8"/>
</svg>
