<svg width="287" height="276" viewBox="0 0 287 276" fill="none" xmlns="http://www.w3.org/2000/svg">
<path d="M287 138C287 152.846 272.393 165.193 268.055 178.586C263.552 192.473 267.984 211.025 259.616 222.595C251.146 234.263 232.11 235.744 220.471 244.234C208.95 252.646 201.712 270.393 187.868 274.901C174.513 279.243 158.32 269.3 143.516 269.3C128.712 269.3 112.519 279.247 99.1633 274.901C85.3199 270.393 78.0813 252.646 66.5602 244.234C54.921 235.744 35.8858 234.263 27.4152 222.595C19.0155 211.025 23.4476 192.473 18.9447 178.586C14.6149 165.193 0 152.846 0 138C0 123.154 14.607 110.807 18.9447 97.4136C23.4476 83.5269 19.0155 64.9745 27.3838 53.4049C35.8543 41.7366 54.8895 40.2564 66.5287 31.7657C78.0498 23.3539 85.2884 5.60677 99.1318 1.09892C112.487 -3.24313 128.68 6.70018 143.484 6.70018C158.288 6.70018 174.481 -3.24708 187.837 1.09892C201.68 5.60677 208.919 23.3539 220.44 31.7657C232.079 40.2564 251.114 41.7366 259.585 53.4049C267.984 64.9745 263.552 83.5269 268.055 97.4136C272.393 110.807 287 123.154 287 138Z" fill="#5448C8"/>
</svg>
