<svg width="357" height="340" viewBox="0 0 357 340" fill="none" xmlns="http://www.w3.org/2000/svg">
<path d="M357 170C357 187.751 328.098 200.763 322.877 216.752C317.471 233.38 333.011 260.76 322.918 274.578C312.725 288.538 281.713 282.227 267.708 292.379C253.845 302.439 250.342 333.851 233.685 339.239C217.62 344.444 196.333 321.255 178.525 321.255C160.717 321.255 139.43 344.444 123.365 339.239C106.683 333.851 103.205 302.439 89.3417 292.379C75.337 282.227 44.2997 288.538 34.1319 274.578C24.0391 260.76 39.5786 233.355 34.1736 216.752C28.927 200.763 0 187.751 0 170C0 152.249 28.902 139.237 34.1235 123.248C39.5286 106.62 23.9891 79.2405 34.0818 65.422C44.2747 51.4622 75.287 57.7728 89.2917 47.621C103.155 37.5606 106.658 6.14897 123.315 0.76127C139.38 -4.44352 160.667 18.7452 178.475 18.7452C196.283 18.7452 217.57 -4.44352 233.635 0.76127C250.317 6.14897 253.795 37.5606 267.658 47.621C281.663 57.7728 312.7 51.4622 322.868 65.422C332.961 79.2405 317.421 106.645 322.826 123.248C328.073 139.237 357 152.249 357 170Z" fill="#5448C8"/>
</svg>
