<svg width="227" height="404" viewBox="0 0 227 404" fill="none" xmlns="http://www.w3.org/2000/svg">
<path d="M123.089 403.994C114.771 403.982 106.59 401.87 99.302 397.855C92.0142 393.84 85.8546 388.05 81.3924 381.02C76.9303 373.991 74.3095 365.949 73.7722 357.637C73.2349 349.325 74.7985 341.011 78.3185 333.464L86.7031 315.509L44.6402 297.231C37.1874 293.996 30.6449 288.973 25.5906 282.605C20.5363 276.238 17.1257 268.722 15.6601 260.721C14.1945 252.721 14.7189 244.482 17.1871 236.733C19.6552 228.984 23.9912 221.963 29.812 216.289L100.679 147.246L20.6607 89.8163C9.99389 82.1635 2.79999 70.581 0.66159 57.617C-1.4768 44.653 1.61548 31.3693 9.25815 20.6883C16.9008 10.0072 28.4678 2.80372 41.4146 0.662474C54.3614 -1.47877 67.6273 1.61762 78.2941 9.27049L206.351 101.204C212.23 105.424 217.113 110.884 220.657 117.198C224.201 123.513 226.318 130.529 226.861 137.752C227.403 144.975 226.357 152.229 223.796 159.004C221.236 165.778 217.223 171.908 212.04 176.961L151.705 235.755L172.752 244.894C178.818 247.529 184.295 251.354 188.859 256.145C193.424 260.935 196.982 266.593 199.325 272.785C201.668 278.976 202.747 285.575 202.499 292.191C202.251 298.808 200.681 305.307 197.881 311.305L167.927 375.443C163.94 383.982 157.604 391.204 149.662 396.262C141.72 401.32 132.502 404.005 123.089 404" fill="#5447C7"/>
</svg>
