<svg width="334" height="339" viewBox="0 0 334 339" fill="none" xmlns="http://www.w3.org/2000/svg">
<path d="M332.273 119.556C340.658 147.485 316.11 176.685 309.87 203.165C303.428 230.495 311.914 267.597 292.774 288.107C274.202 307.948 237.174 302.01 209.324 310.418C181.473 318.827 153.863 344.278 127.45 338.021C100.206 331.568 86.8558 295.939 66.4419 276.714C46.6574 258.089 10.1113 247.343 1.72656 219.405C-6.65814 191.468 17.8899 162.276 24.1298 135.796C30.5718 108.466 22.0861 71.3645 41.2256 50.8926C59.7978 31.052 96.8257 36.9902 124.676 28.5817C152.527 20.1732 180.137 -5.27832 206.55 0.979346C233.794 7.43184 247.144 43.0608 267.558 62.2858C287.343 80.8406 323.889 91.587 332.273 119.556Z" fill="#5448C8"/>
</svg>
