<svg width="353" height="337" viewBox="0 0 353 337" fill="none" xmlns="http://www.w3.org/2000/svg">
<path d="M2.69529 98.2832C-5.25462 122.854 4.65891 154.207 28.7749 163.555C43.8162 169.401 62.8999 166.895 74.0457 178.547C83.7406 188.681 82.568 204.804 79.4596 218.467C74.7254 239.278 66.9504 260.719 72.3245 281.375C77.3767 300.81 93.6342 315.826 111.975 324.052C130.315 332.278 150.703 334.622 170.752 336.141C191.617 337.727 213.9 338.207 231.915 327.578C248.61 317.722 259.068 299.362 262.764 280.352C266.461 261.342 264.088 241.65 259.847 222.751C256.826 209.294 253.089 194.226 260.375 182.502C270.142 166.764 292.573 167.069 310.158 161.167C330.033 154.492 346.028 137.263 351.167 116.964C356.307 96.6649 350.432 73.9306 336.106 58.6567C320.334 41.8162 296.874 34.9824 274.606 28.8506C249.615 21.9454 223.174 15.0284 198.132 21.7352C184.839 25.3048 171.849 32.6582 158.231 30.687C135.665 27.4228 121.264 -0.118602 98.4439 0.000384401C87.9024 0.0559114 78.2074 6.45738 71.6488 14.6754C65.579 22.2945 63.7505 32.3488 58.0862 39.8529C53.5468 45.8696 45.74 48.6658 39.5948 52.8859C23.3054 64.0825 8.89224 79.1819 2.69529 98.2832Z" fill="#5448C8"/>
</svg>
